<?xml version="1.0" encoding="UTF-8"?>
<svg id="_Шар_2" data-name="Шар 2" xmlns="http://www.w3.org/2000/svg" viewBox="0 0 305.85 290.62">
  <defs>
    <style>
      .cls-1 {
        fill: #fff;
      }

      .cls-2 {
        fill: #e68e20;
      }

      .cls-3 {
        fill: #f6c800;
      }

      .cls-4 {
        fill: #eaa61d;
      }

      .cls-5 {
        fill: #1d1d1b;
      }
    </style>
  </defs>
  <g id="_Шар_1-2" data-name="Шар 1">
    <g>
      <rect class="cls-3" x="256.92" y="116.31" width="12.24" height="11.63"/>
      <g>
        <polygon class="cls-3" points="183.51 116.24 195.75 116.24 207.98 116.24 220.22 116.24 232.45 116.24 244.68 116.24 256.92 116.24 256.92 104.62 244.68 104.62 232.45 104.62 220.22 104.62 207.98 104.62 195.75 104.62 195.75 92.99 183.51 92.99 183.51 104.62 183.51 116.24"/>
        <rect class="cls-5" x="220.53" y="104.62" width="36.39" height="11.63"/>
        <polygon class="cls-3" points="183.51 69.75 171.27 69.75 171.27 81.37 171.27 92.99 183.51 92.99 183.51 81.37 183.51 69.75"/>
        <polygon class="cls-3" points="171.27 46.49 159.04 46.49 159.04 34.87 159.04 23.24 146.82 23.24 146.82 34.87 146.82 46.49 146.82 58.12 134.58 58.12 134.58 69.75 134.58 81.37 134.58 92.99 122.34 92.99 122.34 104.62 122.34 116.24 110.11 116.24 97.87 116.24 85.64 116.24 73.41 116.24 61.17 116.24 61.17 127.87 61.17 139.49 73.41 139.49 73.41 151.12 85.64 151.12 85.64 162.74 97.87 162.74 97.87 174.37 97.87 186 97.87 197.62 97.87 209.24 97.87 220.87 97.87 232.49 110.11 232.49 122.34 232.49 122.34 220.87 134.58 220.87 146.82 220.87 146.82 209.24 159.04 209.24 171.27 209.24 171.27 220.87 183.51 220.87 183.51 232.49 195.75 232.49 195.75 244.12 207.98 244.12 207.98 255.75 220.22 255.75 220.22 267.37 232.45 267.37 232.45 255.75 232.45 244.12 232.45 232.49 220.22 232.49 220.22 220.87 220.22 209.24 220.22 197.62 220.22 186 207.98 186 207.98 174.37 207.98 162.74 220.22 162.74 232.45 162.74 232.45 151.12 244.68 151.12 244.68 139.49 256.92 139.49 256.92 127.87 244.68 127.87 232.45 127.87 220.22 127.87 207.98 127.87 207.98 139.49 195.75 139.49 183.51 139.49 171.27 139.49 171.27 127.87 171.27 116.24 171.27 104.62 159.04 104.62 159.04 92.99 159.04 81.37 159.04 69.75 171.27 69.75 171.27 58.12 171.27 46.49"/>
      </g>
      <g>
        <polygon class="cls-5" points="73.41 267.37 73.41 255.75 73.41 244.12 73.41 232.49 61.17 232.49 61.17 244.12 61.17 255.75 61.17 267.37 61.17 279 61.17 290.62 73.41 290.62 73.41 279 85.64 279 97.87 279 97.87 267.37 85.64 267.37 73.41 267.37"/>
        <rect class="cls-5" x="195.75" y="255.75" width="12.23" height="11.63"/>
        <rect class="cls-5" x="97.87" y="255.75" width="12.24" height="11.63"/>
        <polygon class="cls-5" points="232.45 255.75 232.45 267.37 220.22 267.37 207.98 267.37 207.98 279 220.22 279 232.45 279 232.45 290.62 244.68 290.62 244.68 279 244.68 267.37 244.68 255.75 244.68 244.12 232.45 244.12 232.45 255.75"/>
        <polygon class="cls-5" points="183.51 244.12 171.27 244.12 171.27 255.75 183.51 255.75 195.75 255.75 195.75 244.12 183.51 244.12"/>
        <polygon class="cls-5" points="110.11 244.12 110.11 255.75 122.34 255.75 134.58 255.75 134.58 244.12 122.34 244.12 110.11 244.12"/>
        <polygon class="cls-5" points="159.04 232.49 146.82 232.49 134.58 232.49 134.58 244.12 146.82 244.12 159.04 244.12 171.27 244.12 171.27 232.49 159.04 232.49"/>
        <polygon class="cls-5" points="85.64 220.87 85.64 209.24 85.64 197.62 85.64 186 85.64 174.37 73.41 174.37 73.41 186 73.41 197.62 73.41 209.24 73.41 220.87 73.41 232.49 85.64 232.49 85.64 220.87"/>
        <polygon class="cls-5" points="220.22 186 220.22 197.62 220.22 209.24 232.45 209.24 232.45 197.62 232.45 186 232.45 174.37 220.22 174.37 220.22 186"/>
        <rect class="cls-5" x="232.45" y="162.74" width="12.23" height="11.64"/>
        <rect class="cls-5" x="61.17" y="162.74" width="12.24" height="11.64"/>
        <rect class="cls-5" x="244.68" y="151.12" width="12.24" height="11.62"/>
        <rect class="cls-5" x="48.94" y="151.12" width="12.24" height="11.62"/>
        <rect class="cls-5" x="256.92" y="139.49" width="12.24" height="11.63"/>
        <rect class="cls-5" x="36.71" y="139.49" width="12.23" height="11.63"/>
        <rect class="cls-5" x="269.15" y="127.87" width="12.23" height="11.63"/>
        <rect class="cls-5" x="24.48" y="127.87" width="12.23" height="11.63"/>
        <polygon class="cls-5" points="293.61 104.62 281.38 104.62 269.15 104.62 256.92 104.62 256.92 116.24 269.15 116.24 281.38 116.24 281.38 127.87 293.61 127.87 293.61 116.24 305.85 116.24 305.85 104.62 293.61 104.62"/>
        <polygon class="cls-5" points="36.71 116.24 48.94 116.24 61.17 116.24 73.41 116.24 85.64 116.24 85.64 104.62 73.41 104.62 61.17 104.62 48.94 104.62 36.71 104.62 24.48 104.62 12.24 104.62 0 104.62 0 116.24 12.24 116.24 12.24 127.87 24.48 127.87 24.48 116.24 36.71 116.24"/>
        <polygon class="cls-5" points="207.98 104.62 220.22 104.62 220.22 92.99 207.98 92.99 195.75 92.99 195.75 104.62 207.98 104.62"/>
        <polygon class="cls-5" points="110.11 104.62 110.11 92.99 97.87 92.99 85.64 92.99 85.64 104.62 97.87 104.62 110.11 104.62"/>
        <polygon class="cls-5" points="122.34 81.37 122.34 69.75 110.11 69.75 110.11 81.37 110.11 92.99 122.34 92.99 122.34 81.37"/>
        <polygon class="cls-5" points="195.75 69.75 183.51 69.75 183.51 81.37 183.51 92.99 195.75 92.99 195.75 81.37 195.75 69.75"/>
        <polygon class="cls-5" points="134.58 58.12 134.58 46.49 122.34 46.49 122.34 58.12 122.34 69.75 134.58 69.75 134.58 58.12"/>
        <rect class="cls-5" x="171.27" y="46.49" width="12.24" height="11.63"/>
        <polygon class="cls-5" points="171.27 23.24 159.04 23.24 159.04 34.87 159.04 46.49 171.27 46.49 171.27 34.87 171.27 23.24"/>
        <rect class="cls-5" x="134.58" y="23.24" width="12.24" height="11.63"/>
        <rect class="cls-5" x="146.82" width="12.23" height="11.63"/>
      </g>
      <polygon class="cls-1" points="256.92 116.24 244.68 116.24 232.45 116.24 220.22 116.24 207.98 116.24 195.75 116.24 183.51 116.24 183.51 104.62 183.51 92.99 171.27 92.99 171.27 81.37 171.27 69.75 159.04 69.75 159.04 81.37 159.04 92.99 159.04 104.62 171.27 104.62 171.27 116.24 171.27 127.87 171.27 139.49 183.51 139.49 195.75 139.49 195.75 139.49 207.98 139.49 207.98 127.87 207.98 127.87 220.22 127.87 232.45 127.87 244.68 127.87 256.92 127.87 269.15 127.87 269.15 116.24 256.92 116.24"/>
      <g>
        <rect class="cls-4" x="207.98" y="255.75" width="12.24" height="11.63"/>
        <rect class="cls-4" x="195.75" y="244.12" width="12.23" height="11.63"/>
        <rect class="cls-5" x="232.45" y="232.49" width="12.23" height="11.63"/>
        <polygon class="cls-2" points="183.51 232.49 183.51 220.87 171.27 220.87 171.27 209.24 159.04 209.24 146.82 209.24 146.82 220.87 134.58 220.87 122.34 220.87 122.34 232.49 110.11 232.49 97.87 232.49 97.87 220.87 97.87 209.24 97.87 197.62 97.87 186 97.87 174.37 97.87 162.74 85.64 162.74 85.64 151.12 73.41 151.12 73.41 139.49 61.17 139.49 61.17 127.87 61.17 116.24 48.94 116.24 36.71 116.24 24.48 116.24 24.48 127.87 36.71 127.87 36.71 139.49 48.94 139.49 48.94 151.12 61.17 151.12 61.17 162.74 73.41 162.74 73.41 174.37 85.64 174.37 85.64 186 85.64 197.62 85.64 209.24 85.64 220.87 85.64 232.49 73.41 232.49 73.41 244.12 73.41 255.75 73.41 267.37 85.64 267.37 97.87 267.37 97.87 255.75 110.11 255.75 110.11 244.12 122.34 244.12 134.58 244.12 134.58 232.49 146.82 232.49 159.04 232.49 171.27 232.49 171.27 244.12 183.51 244.12 195.75 244.12 195.75 232.49 183.51 232.49"/>
        <polygon class="cls-5" points="232.45 209.24 220.22 209.24 220.22 220.87 220.22 232.49 232.45 232.49 232.45 220.87 232.45 209.24"/>
        <polygon class="cls-4" points="207.98 162.74 207.98 174.37 207.98 186 220.22 186 220.22 174.37 232.45 174.37 232.45 162.74 220.22 162.74 207.98 162.74"/>
        <rect class="cls-4" x="232.45" y="151.12" width="12.23" height="11.62"/>
        <rect class="cls-4" x="244.68" y="139.49" width="12.24" height="11.63"/>
        <polygon class="cls-4" points="269.15 116.24 256.92 116.24 256.92 127.87 256.92 139.49 269.15 139.49 269.15 127.87 281.38 127.87 281.38 116.24 269.15 116.24"/>
        <polygon class="cls-4" points="110.11 116.24 122.34 116.24 122.34 104.62 122.34 92.99 110.11 92.99 110.11 104.62 97.87 104.62 85.64 104.62 85.64 116.24 97.87 116.24 110.11 116.24"/>
        <polygon class="cls-4" points="134.58 81.37 134.58 69.75 122.34 69.75 122.34 81.37 122.34 92.99 134.58 92.99 134.58 81.37"/>
        <rect class="cls-5" x="171.27" y="58.12" width="12.24" height="11.63"/>
        <polygon class="cls-5" points="146.82 46.49 146.82 34.87 134.58 34.87 134.58 46.49 134.58 58.12 146.82 58.12 146.82 46.49"/>
        <rect class="cls-5" x="146.82" y="11.63" width="12.23" height="11.62"/>
      </g>
    </g>
  </g>
</svg>