<?xml version="1.0" encoding="UTF-8"?>
<svg id="_Шар_2" data-name="Шар 2" xmlns="http://www.w3.org/2000/svg" viewBox="0 0 499.95 255.47">
  <defs>
    <style>
      .cls-1 {
        fill: #fff;
      }

      .cls-2 {
        fill: #c0e4f4;
      }
    </style>
  </defs>
  <g id="_Шар_1-2" data-name="Шар 1">
    <g>
      <polygon class="cls-2" points="459.95 238.43 459.95 229.93 449.95 229.93 449.95 221.41 439.95 221.41 439.95 212.89 439.95 204.38 429.95 204.38 429.95 195.86 429.95 187.34 429.95 178.83 429.95 170.31 429.95 161.8 429.95 153.28 429.95 144.77 419.96 144.77 419.96 153.28 409.96 153.28 409.96 161.8 399.96 161.8 389.96 161.8 379.96 161.8 369.96 161.8 359.96 161.8 349.96 161.8 349.96 153.28 339.97 153.28 339.97 144.77 329.96 144.77 329.96 136.25 319.96 136.25 319.96 144.77 309.96 144.77 309.96 153.28 309.96 161.8 299.97 161.8 299.97 170.31 289.97 170.31 289.97 178.83 279.97 178.83 279.97 187.34 269.98 187.34 259.98 187.34 259.98 195.86 249.98 195.86 239.98 195.86 229.98 195.86 219.98 195.86 209.98 195.86 199.98 195.86 189.98 195.86 179.98 195.86 179.98 187.34 169.99 187.34 159.99 187.34 159.99 178.83 149.99 178.83 149.99 170.31 139.99 170.31 139.99 161.8 129.99 161.8 119.99 161.8 119.99 170.31 109.99 170.31 109.99 178.83 99.99 178.83 89.99 178.83 79.99 178.83 69.99 178.83 59.99 178.83 50 178.83 50 170.31 40 170.31 40 161.8 30 161.8 30 153.28 30 144.77 20 144.77 20 136.25 20 127.73 20 119.22 20 110.7 10 110.7 10 119.22 10 127.73 10 136.25 0 136.25 0 144.77 0 153.28 0 161.8 0 170.31 0 178.83 0 187.34 10 187.34 10 195.86 10 204.38 10 212.89 20 212.89 20 221.41 20 229.93 30 229.93 30 238.43 40 238.43 40 246.95 50 246.95 59.99 246.95 59.99 255.47 69.99 255.47 79.99 255.47 89.99 255.47 99.99 255.47 109.99 255.47 119.99 255.47 129.99 255.47 139.99 255.47 149.99 255.47 159.99 255.47 169.99 255.47 179.98 255.47 189.98 255.47 199.98 255.47 209.98 255.47 219.98 255.47 229.98 255.47 239.98 255.47 249.98 255.47 259.98 255.47 269.98 255.47 279.97 255.47 289.97 255.47 299.97 255.47 309.96 255.47 319.96 255.47 329.96 255.47 339.97 255.47 349.96 255.47 359.96 255.47 369.96 255.47 379.96 255.47 389.96 255.47 399.96 255.47 409.96 255.47 419.96 255.47 429.95 255.47 439.95 255.47 449.95 255.47 459.95 255.47 459.95 246.95 469.95 246.95 469.95 238.43 459.95 238.43"/>
      <polygon class="cls-1" points="489.95 161.8 489.95 153.28 489.95 144.77 479.95 144.77 479.95 136.25 469.95 136.25 469.95 127.73 459.95 127.73 459.95 119.22 449.95 119.22 439.95 119.22 429.95 119.22 429.95 110.7 429.95 102.19 429.95 93.68 419.96 93.68 419.96 85.16 419.96 76.64 419.96 68.13 409.96 68.13 409.96 59.61 399.96 59.61 399.96 51.09 389.96 51.09 389.96 42.58 379.96 42.58 379.96 34.06 369.96 34.06 359.96 34.06 349.96 34.06 339.97 34.06 329.96 34.06 319.96 34.06 309.96 34.06 299.97 34.06 299.97 42.58 289.97 42.58 289.97 34.06 289.97 25.55 279.97 25.55 279.97 17.04 269.98 17.04 259.98 17.04 259.98 8.52 249.98 8.52 249.98 0 239.98 0 229.98 0 219.98 0 209.98 0 199.98 0 189.98 0 189.98 8.52 179.98 8.52 169.99 8.52 169.99 17.04 159.99 17.04 159.99 25.55 149.99 25.55 149.99 34.06 139.99 34.06 139.99 42.58 129.99 42.58 129.99 51.09 129.99 59.61 129.99 68.13 119.99 68.13 109.99 68.13 99.99 68.13 89.99 68.13 79.99 68.13 69.99 68.13 59.99 68.13 59.99 76.64 50 76.64 40 76.64 40 85.16 30 85.16 30 93.68 20 93.68 20 102.19 20 110.7 20 119.22 20 127.73 20 136.25 20 144.77 30 144.77 30 153.28 30 161.8 40 161.8 40 170.31 50 170.31 50 178.83 59.99 178.83 69.99 178.83 79.99 178.83 89.99 178.83 99.99 178.83 109.99 178.83 109.99 170.31 119.99 170.31 119.99 161.8 129.99 161.8 139.99 161.8 139.99 170.31 149.99 170.31 149.99 178.83 159.99 178.83 159.99 187.34 169.99 187.34 179.98 187.34 179.98 195.86 189.98 195.86 199.98 195.86 209.98 195.86 219.98 195.86 229.98 195.86 239.98 195.86 249.98 195.86 259.98 195.86 259.98 187.34 269.98 187.34 279.97 187.34 279.97 178.83 289.97 178.83 289.97 170.31 299.97 170.31 299.97 161.8 309.96 161.8 309.96 153.28 309.96 144.77 319.96 144.77 319.96 136.25 329.96 136.25 329.96 144.77 339.97 144.77 339.97 153.28 349.96 153.28 349.96 161.8 359.96 161.8 369.96 161.8 379.96 161.8 389.96 161.8 399.96 161.8 409.96 161.8 409.96 153.28 419.96 153.28 419.96 144.77 429.95 144.77 429.95 153.28 429.95 161.8 429.95 170.31 429.95 178.83 429.95 187.34 429.95 195.86 429.95 204.38 439.95 204.38 439.95 212.89 439.95 221.41 449.95 221.41 449.95 229.93 459.95 229.93 459.95 238.43 469.95 238.43 469.95 246.95 479.95 246.95 479.95 238.43 479.95 229.93 489.95 229.93 489.95 221.41 499.95 221.41 499.95 212.89 499.95 204.38 499.95 195.86 499.95 187.34 499.95 178.83 499.95 170.31 499.95 161.8 489.95 161.8"/>
    </g>
  </g>
</svg>