<?xml version="1.0" encoding="UTF-8"?>
<svg id="_Шар_2" data-name="Шар 2" xmlns="http://www.w3.org/2000/svg" viewBox="0 0 636.69 349.1">
  <defs>
    <style>
      .cls-1 {
        fill: #fff;
      }

      .cls-2 {
        fill: #faf0ce;
      }

      .cls-3 {
        fill: #f2a316;
      }

      .cls-4 {
        fill: #fdcc00;
      }

      .cls-5 {
        fill: #1d1d1b;
      }
    </style>
  </defs>
  <g id="_Шар_1-2" data-name="Шар 1">
    <g>
      <g>
        <rect class="cls-3" x="365.86" y="324.57" width="5.84" height="5.46"/>
        <rect class="cls-3" x="371.7" y="308.22" width="5.83" height="5.45"/>
        <rect class="cls-2" x="254.91" y="253.7" width="5.84" height="5.46"/>
        <polygon class="cls-3" points="395.04 237.36 389.21 237.36 383.37 237.36 377.53 237.36 377.53 242.8 377.53 248.25 377.53 253.7 377.53 259.16 377.53 264.6 377.53 270.06 377.53 275.51 377.53 280.96 377.53 286.41 377.53 291.86 377.53 297.32 371.7 297.32 371.7 302.76 371.7 308.22 377.53 308.22 377.53 313.67 371.7 313.67 371.7 308.22 365.86 308.22 365.86 313.67 360.01 313.67 360.01 319.12 354.18 319.12 354.18 324.57 354.18 330.03 348.33 330.03 342.5 330.03 342.5 335.47 336.66 335.47 336.66 340.93 330.82 340.93 324.98 340.93 324.98 346.38 330.82 346.38 336.66 346.38 342.5 346.38 348.33 346.38 348.33 340.93 354.18 340.93 360.01 340.93 360.01 335.47 365.86 335.47 365.86 330.03 365.86 324.57 371.7 324.57 371.7 330.03 377.53 330.03 377.53 324.57 377.53 319.12 383.37 319.12 383.37 313.67 389.21 313.67 389.21 308.22 389.21 302.76 395.04 302.76 395.04 297.32 395.04 291.86 400.89 291.86 400.89 286.41 400.89 280.96 400.89 275.51 400.89 270.06 400.89 264.6 400.89 259.16 400.89 253.7 400.89 248.25 400.89 242.8 400.89 237.36 395.04 237.36"/>
        <polygon class="cls-5" points="336.66 340.79 336.66 340.93 324.98 340.93 324.98 346.38 348.33 346.38 348.33 340.93 360.01 340.93 360.01 340.79 336.66 340.79"/>
        <rect class="cls-1" x="365.86" y="221" width="5.84" height="5.45"/>
        <g>
          <path class="cls-4" d="M365.86,237.36v-16.35h-5.85v-5.46h-5.83v-5.46h-5.84v-5.45h-5.83v-5.46h-5.84v-5.45h-11.68v-5.45h-46.71v5.45h-11.67v5.45h-5.85v5.46h-5.84v5.45h-5.83v5.46h-5.84v10.9h-5.83v10.9h-5.84v54.5h5.84v10.9h5.83v10.9h5.84v5.46h5.83v5.45h5.84v5.46h5.85v5.45h11.67v5.46h46.71v-5.46h11.68v-5.45h5.84v-5.46h5.83v-5.45h5.84v-5.46h5.83v-5.45h5.85v-10.9h5.84v-59.96h-5.84Zm-110.94,5.45v-10.9h5.84v-5.45h5.85v-5.45h5.84v-5.46h5.83v-5.46h46.71v5.46h5.84v5.46h5.84v5.45h5.84v5.45h5.83v10.9h5.84v43.61h-5.84v10.9h-5.83v5.45h-5.84v5.46h-5.84v5.45h-5.84v5.46h-46.71v-5.46h-5.83v-5.45h-5.84v-5.46h-5.85v-5.45h-5.84v-10.9h-5.83v-43.61h5.83Z"/>
          <polygon class="cls-4" points="266.6 237.36 260.76 237.36 260.76 242.8 260.76 248.25 260.76 253.7 260.76 259.16 260.76 264.6 260.76 270.06 260.76 275.51 260.76 280.96 266.6 280.96 266.6 286.41 266.6 291.86 272.44 291.86 272.44 297.32 278.28 297.32 278.28 302.76 284.12 302.76 289.95 302.76 289.95 308.22 295.79 308.22 301.63 308.22 307.48 308.22 313.3 308.22 319.14 308.22 319.14 302.76 324.98 302.76 330.82 302.76 330.82 297.32 336.66 297.32 336.66 291.86 342.5 291.86 342.5 286.41 342.5 280.96 348.33 280.96 348.33 275.51 348.33 270.06 348.33 264.6 348.33 259.16 348.33 253.7 348.33 248.25 342.5 248.25 342.5 242.8 342.5 237.36 342.5 231.9 336.66 231.9 336.66 226.45 330.82 226.45 330.82 221 324.98 221 319.14 221 319.14 215.55 313.3 215.55 307.48 215.55 301.63 215.55 295.79 215.55 289.95 215.55 284.12 215.55 284.12 221 278.28 221 272.44 221 272.44 226.45 266.6 226.45 266.6 231.9 266.6 237.36"/>
        </g>
        <g>
          <polygon class="cls-3" points="389.21 221 389.21 215.55 389.21 210.09 383.37 210.09 383.37 215.55 377.53 215.55 371.7 215.55 371.7 221 371.7 226.45 371.7 231.9 377.53 231.9 377.53 226.45 383.37 226.45 389.21 226.45 389.21 231.9 389.21 237.36 395.04 237.36 395.04 231.9 395.04 226.45 395.04 221 389.21 221"/>
          <polygon class="cls-3" points="377.53 204.64 377.53 199.19 371.7 199.19 365.86 199.19 365.86 193.74 360.01 193.74 360.01 188.29 354.18 188.29 348.33 188.29 348.33 182.85 342.5 182.85 336.66 182.85 330.82 182.85 324.98 182.85 324.98 188.29 330.82 188.29 336.66 188.29 336.66 193.74 342.5 193.74 342.5 199.19 348.33 199.19 348.33 204.64 354.18 204.64 354.18 210.09 360.01 210.09 365.86 210.09 371.7 210.09 377.53 210.09 383.37 210.09 383.37 204.64 377.53 204.64"/>
        </g>
        <polygon class="cls-3" points="389.21 221 389.21 215.55 389.21 210.09 383.37 210.09 383.37 215.55 377.53 215.55 371.7 215.55 371.7 221 371.7 226.45 371.7 231.9 377.53 231.9 377.53 226.45 383.37 226.45 389.21 226.45 389.21 231.9 389.21 237.36 395.04 237.36 395.04 231.9 395.04 226.45 395.04 221 389.21 221"/>
        <polygon class="cls-5" points="389.21 221 389.21 215.55 389.21 210.09 383.37 210.09 383.37 210.09 383.37 210.09 383.37 215.55 383.37 221 389.21 221 389.21 226.45 389.21 226.45 389.21 231.9 389.21 237.36 395.04 237.36 395.04 231.9 395.04 226.45 395.04 221 389.21 221"/>
        <g>
          <rect class="cls-5" x="360.01" y="193.74" width="5.85" height="5.45"/>
          <polygon class="cls-5" points="365.86 204.64 371.7 204.64 377.53 204.64 377.53 199.19 371.7 199.19 365.86 199.19 365.86 204.64"/>
          <polygon class="cls-5" points="354.18 193.74 360.01 193.74 360.01 188.29 354.18 188.29 348.33 188.29 348.33 193.74 354.18 193.74"/>
          <rect class="cls-5" x="377.53" y="204.64" width="5.84" height="5.45"/>
          <polygon class="cls-5" points="330.82 188.29 330.82 188.29 336.66 188.29 336.66 188.29 342.5 188.29 348.33 188.29 348.33 182.85 342.5 182.85 336.66 182.85 330.82 182.85 324.98 182.85 324.98 188.29 324.98 188.29 330.82 188.29"/>
        </g>
        <g>
          <polygon class="cls-5" points="371.7 308.22 365.86 308.22 365.86 313.67 365.86 313.67 365.86 313.67 371.7 313.67 371.7 308.22"/>
          <polygon class="cls-5" points="395.04 237.36 389.21 237.36 389.21 237.36 389.21 237.36 395.04 237.36 395.04 242.8 395.04 248.25 395.04 253.7 395.04 259.16 395.04 264.6 395.04 270.06 395.04 275.51 395.04 280.96 395.04 286.41 395.04 291.86 400.89 291.86 400.89 286.41 400.89 280.96 400.89 275.51 400.89 270.06 400.89 264.6 400.89 259.16 400.89 253.7 400.89 248.25 400.89 242.8 400.89 237.36 395.04 237.36"/>
          <polygon class="cls-5" points="371.7 319.12 371.7 324.57 371.7 324.57 371.7 330.03 377.53 330.03 377.53 324.57 377.53 319.12 371.7 319.12"/>
          <rect class="cls-5" x="377.53" y="313.67" width="5.84" height="5.46"/>
          <polygon class="cls-5" points="389.21 291.86 389.21 297.32 389.21 302.76 383.37 302.76 383.37 308.22 383.37 313.67 389.21 313.67 389.21 308.22 389.21 302.76 395.04 302.76 395.04 297.32 395.04 291.86 389.21 291.86"/>
          <polygon class="cls-5" points="348.33 340.93 342.5 340.93 342.5 346.38 348.33 346.38 348.33 340.93 348.33 340.93"/>
          <polygon class="cls-5" points="365.86 330.03 365.86 324.57 360.01 324.57 360.01 330.03 360.01 335.47 365.86 335.47 365.86 330.03 365.86 330.03"/>
          <rect class="cls-5" x="354.18" y="335.47" width="5.83" height="5.46"/>
        </g>
        <g>
          <polygon class="cls-5" points="324.98 335.47 324.98 340.93 319.14 340.93 313.3 340.93 307.48 340.93 301.63 340.93 295.79 340.93 289.95 340.93 284.12 340.93 278.28 340.93 278.28 346.38 284.12 346.38 289.95 346.38 295.79 346.38 301.63 346.38 307.48 346.38 313.3 346.38 319.14 346.38 324.98 346.38 324.98 340.93 330.82 340.93 336.66 340.93 336.66 335.47 330.82 335.47 324.98 335.47"/>
          <rect class="cls-5" x="336.66" y="330.03" width="5.84" height="5.45"/>
          <polygon class="cls-5" points="348.33 324.57 342.5 324.57 342.5 330.03 348.33 330.03 354.18 330.03 354.18 324.57 354.18 319.12 348.33 319.12 348.33 324.57"/>
          <rect class="cls-5" x="354.18" y="313.67" width="5.83" height="5.46"/>
          <rect class="cls-5" x="360.01" y="308.22" width="5.85" height="5.45"/>
          <polygon class="cls-5" points="365.86 302.76 365.86 308.22 371.7 308.22 371.7 302.76 371.7 297.32 365.86 297.32 365.86 302.76"/>
          <polygon class="cls-5" points="371.7 242.8 371.7 248.25 371.7 253.7 371.7 259.16 371.7 264.6 371.7 270.06 371.7 275.51 371.7 280.96 371.7 286.41 371.7 291.86 371.7 297.32 377.53 297.32 377.53 291.86 377.53 286.41 377.53 280.96 377.53 275.51 377.53 270.06 377.53 264.6 377.53 259.16 377.53 253.7 377.53 248.25 377.53 242.8 371.7 242.8"/>
          <polygon class="cls-5" points="365.86 231.9 365.86 237.36 371.7 237.36 371.7 231.9 371.7 226.45 365.86 226.45 365.86 231.9"/>
          <rect class="cls-5" x="360.01" y="215.55" width="5.85" height="5.46"/>
          <rect class="cls-5" x="330.82" y="302.76" width="5.84" height="5.46"/>
          <polygon class="cls-5" points="342.5 242.8 342.5 248.25 348.33 248.25 348.33 248.25 348.33 253.7 348.33 259.16 348.33 264.6 348.33 270.06 348.33 275.51 348.33 280.96 348.33 280.96 342.5 280.96 342.5 286.41 342.5 291.86 336.66 291.86 336.66 297.32 336.66 302.76 342.5 302.76 342.5 297.32 348.33 297.32 348.33 291.86 348.33 286.41 354.18 286.41 354.18 280.96 354.18 275.51 354.18 270.06 354.18 264.6 354.18 259.16 354.18 253.7 354.18 248.25 354.18 242.8 348.33 242.8 348.33 242.8 348.33 237.36 348.33 231.9 342.5 231.9 342.5 237.36 342.5 242.8"/>
          <rect class="cls-5" x="336.66" y="226.45" width="5.84" height="5.45"/>
          <rect class="cls-5" x="330.82" y="221" width="5.84" height="5.45"/>
          <rect class="cls-5" x="354.18" y="210.09" width="5.83" height="5.46"/>
          <rect class="cls-5" x="348.33" y="204.64" width="5.84" height="5.45"/>
          <rect class="cls-5" x="342.5" y="199.19" width="5.83" height="5.46"/>
          <rect class="cls-5" x="336.66" y="193.74" width="5.84" height="5.45"/>
          <polygon class="cls-5" points="324.98 193.74 330.82 193.74 336.66 193.74 336.66 188.29 330.82 188.29 324.98 188.29 324.98 193.74"/>
          <polygon class="cls-5" points="272.44 335.47 266.6 335.47 266.6 340.93 272.44 340.93 278.28 340.93 278.28 335.47 272.44 335.47"/>
          <rect class="cls-5" x="260.76" y="330.03" width="5.85" height="5.45"/>
          <polygon class="cls-5" points="254.91 324.57 254.91 319.12 249.08 319.12 249.08 324.57 249.08 330.03 254.91 330.03 260.76 330.03 260.76 324.57 254.91 324.57"/>
          <rect class="cls-5" x="243.24" y="313.67" width="5.84" height="5.46"/>
          <polygon class="cls-5" points="284.12 319.12 289.95 319.12 295.79 319.12 301.63 319.12 307.48 319.12 313.3 319.12 319.14 319.12 324.98 319.12 324.98 313.67 330.82 313.67 330.82 308.22 324.98 308.22 319.14 308.22 319.14 313.67 313.3 313.67 307.48 313.67 301.63 313.67 295.79 313.67 289.95 313.67 284.12 313.67 284.12 308.22 278.28 308.22 272.44 308.22 272.44 313.67 278.28 313.67 278.28 319.12 284.12 319.12"/>
          <rect class="cls-5" x="266.6" y="302.76" width="5.84" height="5.46"/>
          <polygon class="cls-5" points="243.24 302.76 237.41 302.76 237.41 308.22 237.41 313.67 243.24 313.67 243.24 308.22 243.24 302.76"/>
          <polygon class="cls-5" points="237.41 291.86 231.57 291.86 231.57 297.32 231.57 302.76 237.41 302.76 237.41 297.32 237.41 291.86"/>
          <polygon class="cls-5" points="231.57 280.96 231.57 275.51 231.57 270.06 231.57 264.6 231.57 259.16 231.57 253.7 231.57 248.25 231.57 242.8 225.72 242.8 225.72 248.25 225.72 253.7 225.72 259.16 225.72 264.6 225.72 270.06 225.72 275.51 225.72 280.96 225.72 286.41 231.57 286.41 231.57 280.96"/>
          <polygon class="cls-5" points="266.6 291.86 260.76 291.86 260.76 286.41 260.76 280.96 254.91 280.96 254.91 275.51 254.91 270.06 254.91 264.6 254.91 259.16 254.91 253.7 254.91 248.25 260.76 248.25 260.76 242.8 260.76 237.36 266.6 237.36 266.6 231.9 266.6 226.45 260.76 226.45 260.76 231.9 254.91 231.9 254.91 237.36 254.91 242.8 249.08 242.8 249.08 248.25 249.08 253.7 249.08 259.16 249.08 264.6 249.08 270.06 249.08 275.51 249.08 280.96 249.08 286.41 254.91 286.41 254.91 291.86 254.91 297.32 260.76 297.32 260.76 302.76 266.6 302.76 266.6 297.32 266.6 291.86"/>
          <polygon class="cls-5" points="237.41 231.9 237.41 226.45 231.57 226.45 231.57 231.9 231.57 237.36 237.41 237.36 237.41 231.9"/>
          <rect class="cls-5" x="266.6" y="221" width="5.84" height="5.45"/>
          <polygon class="cls-5" points="243.24 221 243.24 215.55 237.41 215.55 237.41 221 237.41 226.45 243.24 226.45 243.24 221"/>
          <polygon class="cls-5" points="284.12 221 284.12 215.55 289.95 215.55 295.79 215.55 301.63 215.55 307.48 215.55 313.3 215.55 319.14 215.55 319.14 221 324.98 221 330.82 221 330.82 215.55 324.98 215.55 324.98 210.09 319.14 210.09 313.3 210.09 307.48 210.09 301.63 210.09 295.79 210.09 289.95 210.09 284.12 210.09 278.28 210.09 278.28 215.55 272.44 215.55 272.44 221 278.28 221 284.12 221"/>
          <rect class="cls-5" x="243.24" y="210.09" width="5.84" height="5.46"/>
          <rect class="cls-5" x="249.08" y="204.64" width="5.83" height="5.45"/>
          <rect class="cls-5" x="254.91" y="199.19" width="5.84" height="5.46"/>
          <rect class="cls-5" x="260.76" y="193.74" width="5.85" height="5.45"/>
          <polygon class="cls-5" points="278.28 193.74 278.28 188.29 272.44 188.29 266.6 188.29 266.6 193.74 272.44 193.74 278.28 193.74"/>
          <polygon class="cls-5" points="289.95 188.29 295.79 188.29 301.63 188.29 307.48 188.29 313.3 188.29 319.14 188.29 324.98 188.29 324.98 182.85 319.14 182.85 313.3 182.85 307.48 182.85 301.63 182.85 295.79 182.85 289.95 182.85 284.12 182.85 278.28 182.85 278.28 188.29 284.12 188.29 289.95 188.29"/>
        </g>
        <g>
          <polygon class="cls-1" points="383.37 226.45 377.53 226.45 377.53 231.9 371.7 231.9 371.7 237.36 371.7 242.8 377.53 242.8 377.53 237.36 383.37 237.36 389.21 237.36 389.21 231.9 389.21 226.45 383.37 226.45"/>
          <polygon class="cls-1" points="377.53 210.09 371.7 210.09 365.86 210.09 360.01 210.09 360.01 215.55 365.86 215.55 365.86 221 371.7 221 371.7 215.55 377.53 215.55 383.37 215.55 383.37 210.09 377.53 210.09"/>
          <polygon class="cls-1" points="307.48 308.22 301.63 308.22 295.79 308.22 289.95 308.22 289.95 302.76 284.12 302.76 278.28 302.76 278.28 297.32 272.44 297.32 272.44 291.86 266.6 291.86 266.6 297.32 266.6 302.76 272.44 302.76 272.44 308.22 278.28 308.22 284.12 308.22 284.12 313.67 289.95 313.67 295.79 313.67 301.63 313.67 307.48 313.67 313.3 313.67 319.14 313.67 319.14 308.22 313.3 308.22 307.48 308.22"/>
          <polygon class="cls-1" points="319.14 302.76 319.14 308.22 324.98 308.22 330.82 308.22 330.82 302.76 324.98 302.76 319.14 302.76"/>
          <rect class="cls-1" x="330.82" y="297.32" width="5.84" height="5.45"/>
          <polygon class="cls-1" points="266.6 280.96 260.76 280.96 260.76 286.41 260.76 291.86 266.6 291.86 266.6 286.41 266.6 280.96"/>
          <polygon class="cls-1" points="260.76 270.06 260.76 264.6 260.76 259.16 254.91 259.16 254.91 264.6 254.91 270.06 254.91 275.51 254.91 280.96 260.76 280.96 260.76 275.51 260.76 270.06"/>
          <rect class="cls-1" x="254.91" y="248.25" width="5.84" height="5.45"/>
        </g>
      </g>
      <g>
        <rect class="cls-3" x="601.67" y="319.12" width="5.83" height="5.45"/>
        <rect class="cls-3" x="607.5" y="302.76" width="5.84" height="5.46"/>
        <rect class="cls-2" x="490.73" y="248.25" width="5.85" height="5.45"/>
        <polygon class="cls-3" points="630.85 231.9 625.03 231.9 619.18 231.9 613.34 231.9 613.34 237.36 613.34 242.8 613.34 248.25 613.34 253.7 613.34 259.16 613.34 264.6 613.34 270.06 613.34 275.51 613.34 280.96 613.34 286.41 613.34 291.86 607.5 291.86 607.5 297.32 607.5 302.76 613.34 302.76 613.34 308.22 607.5 308.22 607.5 302.76 601.67 302.76 601.67 308.22 595.82 308.22 595.82 313.67 590 313.67 590 319.12 590 324.57 584.15 324.57 578.31 324.57 578.31 330.03 572.47 330.03 572.47 335.47 566.63 335.47 560.79 335.47 560.79 340.93 566.63 340.93 572.47 340.93 578.31 340.93 584.15 340.93 584.15 335.47 590 335.47 595.82 335.47 595.82 330.03 601.67 330.03 601.67 324.57 601.67 319.12 607.5 319.12 607.5 324.57 613.34 324.57 613.34 319.12 613.34 313.67 619.18 313.67 619.18 308.22 625.03 308.22 625.03 302.76 625.03 297.32 630.85 297.32 630.85 291.86 630.85 286.41 636.69 286.41 636.69 280.96 636.69 275.51 636.69 270.06 636.69 264.6 636.69 259.16 636.69 253.7 636.69 248.25 636.69 242.8 636.69 237.36 636.69 231.9 630.85 231.9"/>
        <polygon class="cls-5" points="572.47 335.34 572.47 335.47 560.79 335.47 560.79 340.93 584.15 340.93 584.15 335.47 595.82 335.47 595.82 335.34 572.47 335.34"/>
        <rect class="cls-1" x="601.67" y="215.55" width="5.83" height="5.46"/>
        <g>
          <path class="cls-4" d="M601.67,231.9v-16.35h-5.85v-5.46h-5.82v-5.45h-5.85v-5.46h-5.84v-5.45h-5.84v-5.45h-11.67v-5.45h-46.71v5.45h-11.68v5.45h-5.83v5.45h-5.85v5.46h-5.84v5.45h-5.83v10.91h-5.84v10.89h-5.83v54.51h5.83v10.9h5.84v10.9h5.83v5.45h5.84v5.46h5.85v5.45h5.83v5.46h11.68v5.45h46.71v-5.45h11.67v-5.46h5.84v-5.45h5.84v-5.46h5.85v-5.45h5.82v-5.46h5.85v-10.9h5.83v-59.96h-5.83Zm-110.94,5.46v-10.9h5.85v-5.45h5.83v-5.46h5.83v-5.46h5.85v-5.45h46.71v5.45h5.84v5.46h5.83v5.46h5.84v5.45h5.84v10.9h5.85v43.61h-5.85v10.89h-5.84v5.46h-5.84v5.45h-5.83v5.46h-5.84v5.45h-46.71v-5.45h-5.85v-5.46h-5.83v-5.45h-5.83v-5.46h-5.85v-10.89h-5.84v-43.61h5.84Z"/>
          <polygon class="cls-4" points="502.41 231.9 496.58 231.9 496.58 237.36 496.58 242.8 496.58 248.25 496.58 253.7 496.58 259.16 496.58 264.6 496.58 270.06 496.58 275.51 502.41 275.51 502.41 280.96 502.41 286.41 508.24 286.41 508.24 291.86 514.09 291.86 514.09 297.32 519.93 297.32 525.76 297.32 525.76 302.76 531.6 302.76 537.43 302.76 543.27 302.76 549.11 302.76 554.96 302.76 554.96 297.32 560.79 297.32 566.63 297.32 566.63 291.86 572.47 291.86 572.47 286.41 578.31 286.41 578.31 280.96 578.31 275.51 584.15 275.51 584.15 270.06 584.15 264.6 584.15 259.16 584.15 253.7 584.15 248.25 584.15 242.8 578.31 242.8 578.31 237.36 578.31 231.9 578.31 226.45 572.47 226.45 572.47 221 566.63 221 566.63 215.55 560.79 215.55 554.96 215.55 554.96 210.09 549.11 210.09 543.27 210.09 537.43 210.09 531.6 210.09 525.76 210.09 519.93 210.09 519.93 215.55 514.09 215.55 508.24 215.55 508.24 221 502.41 221 502.41 226.45 502.41 231.9"/>
        </g>
        <g>
          <polygon class="cls-3" points="625.03 215.55 625.03 210.09 625.03 204.64 619.18 204.64 619.18 210.09 613.34 210.09 607.5 210.09 607.5 215.55 607.5 221 607.5 226.45 613.34 226.45 613.34 221 619.18 221 625.03 221 625.03 226.45 625.03 231.9 630.85 231.9 630.85 226.45 630.85 221 630.85 215.55 625.03 215.55"/>
          <polygon class="cls-3" points="613.34 199.19 613.34 193.74 607.5 193.74 601.67 193.74 601.67 188.29 595.82 188.29 595.82 182.85 590 182.85 584.15 182.85 584.15 177.39 578.31 177.39 572.47 177.39 566.63 177.39 560.79 177.39 560.79 182.85 566.63 182.85 572.47 182.85 572.47 188.29 578.31 188.29 578.31 193.74 584.15 193.74 584.15 199.19 590 199.19 590 204.64 595.82 204.64 601.67 204.64 607.5 204.64 613.34 204.64 619.18 204.64 619.18 199.19 613.34 199.19"/>
        </g>
        <polygon class="cls-3" points="625.03 215.55 625.03 210.09 625.03 204.64 619.18 204.64 619.18 210.09 613.34 210.09 607.5 210.09 607.5 215.55 607.5 221 607.5 226.45 613.34 226.45 613.34 221 619.18 221 625.03 221 625.03 226.45 625.03 231.9 630.85 231.9 630.85 226.45 630.85 221 630.85 215.55 625.03 215.55"/>
        <polygon class="cls-5" points="625.03 215.55 625.03 210.09 625.03 204.64 619.18 204.64 619.18 204.64 619.18 204.64 619.18 210.09 619.18 215.55 625.03 215.55 625.03 221 625.03 221 625.03 226.45 625.03 231.9 630.85 231.9 630.85 226.45 630.85 221 630.85 215.55 625.03 215.55"/>
        <g>
          <rect class="cls-5" x="595.82" y="188.29" width="5.85" height="5.45"/>
          <polygon class="cls-5" points="601.67 199.19 607.5 199.19 613.34 199.19 613.34 193.74 607.5 193.74 601.67 193.74 601.67 199.19"/>
          <polygon class="cls-5" points="590 188.29 595.82 188.29 595.82 182.85 590 182.85 584.15 182.85 584.15 188.29 590 188.29"/>
          <rect class="cls-5" x="613.34" y="199.19" width="5.84" height="5.46"/>
          <polygon class="cls-5" points="566.63 182.85 566.63 182.85 572.47 182.85 572.47 182.85 578.31 182.85 584.15 182.85 584.15 177.39 578.31 177.39 572.47 177.39 566.63 177.39 560.79 177.39 560.79 182.85 560.79 182.85 566.63 182.85"/>
        </g>
        <g>
          <polygon class="cls-5" points="607.5 302.76 601.67 302.76 601.67 308.22 601.67 308.22 601.67 308.22 607.5 308.22 607.5 302.76"/>
          <polygon class="cls-5" points="630.85 231.9 625.03 231.9 625.03 231.9 625.03 231.9 630.85 231.9 630.85 237.36 630.85 242.8 630.85 248.26 630.85 253.7 630.85 259.16 630.85 264.6 630.85 270.06 630.85 275.51 630.85 280.96 630.85 286.41 636.69 286.41 636.69 280.96 636.69 275.51 636.69 270.06 636.69 264.6 636.69 259.16 636.69 253.7 636.69 248.26 636.69 242.8 636.69 237.36 636.69 231.9 630.85 231.9"/>
          <polygon class="cls-5" points="607.5 313.67 607.5 319.12 607.5 319.12 607.5 324.57 613.34 324.57 613.34 319.12 613.34 313.67 607.5 313.67"/>
          <rect class="cls-5" x="613.34" y="308.22" width="5.84" height="5.45"/>
          <polygon class="cls-5" points="625.03 286.41 625.03 291.86 625.03 297.32 619.18 297.32 619.18 302.76 619.18 308.22 625.03 308.22 625.03 302.76 625.03 297.32 630.85 297.32 630.85 291.86 630.85 286.41 625.03 286.41"/>
          <polygon class="cls-5" points="584.15 335.47 578.31 335.47 578.31 340.93 584.15 340.93 584.15 335.47 584.15 335.47"/>
          <polygon class="cls-5" points="601.67 324.57 601.67 319.12 595.82 319.12 595.82 324.57 595.82 330.03 601.67 330.03 601.67 324.57 601.67 324.57"/>
          <rect class="cls-5" x="590" y="330.03" width="5.82" height="5.45"/>
        </g>
        <g>
          <polygon class="cls-5" points="560.79 330.03 560.79 335.47 554.96 335.47 549.11 335.47 543.27 335.47 537.43 335.47 531.61 335.47 525.76 335.47 519.93 335.47 514.09 335.47 514.09 340.93 519.93 340.93 525.76 340.93 531.61 340.93 537.43 340.93 543.27 340.93 549.11 340.93 554.96 340.93 560.79 340.93 560.79 335.47 566.63 335.47 572.47 335.47 572.47 330.03 566.63 330.03 560.79 330.03"/>
          <rect class="cls-5" x="572.47" y="324.57" width="5.84" height="5.46"/>
          <polygon class="cls-5" points="584.15 319.12 578.31 319.12 578.31 324.57 584.15 324.57 590 324.57 590 319.12 590 313.67 584.15 313.67 584.15 319.12"/>
          <rect class="cls-5" x="590" y="308.22" width="5.82" height="5.45"/>
          <rect class="cls-5" x="595.82" y="302.76" width="5.85" height="5.46"/>
          <polygon class="cls-5" points="601.67 297.32 601.67 302.76 607.5 302.76 607.5 297.32 607.5 291.86 601.67 291.86 601.67 297.32"/>
          <polygon class="cls-5" points="607.5 237.36 607.5 242.8 607.5 248.25 607.5 253.7 607.5 259.16 607.5 264.6 607.5 270.06 607.5 275.51 607.5 280.96 607.5 286.41 607.5 291.86 613.34 291.86 613.34 286.41 613.34 280.96 613.34 275.51 613.34 270.06 613.34 264.6 613.34 259.16 613.34 253.7 613.34 248.25 613.34 242.8 613.34 237.36 607.5 237.36"/>
          <polygon class="cls-5" points="601.67 226.45 601.67 231.9 607.5 231.9 607.5 226.45 607.5 221 601.67 221 601.67 226.45"/>
          <rect class="cls-5" x="595.82" y="210.09" width="5.85" height="5.46"/>
          <rect class="cls-5" x="566.63" y="297.32" width="5.83" height="5.45"/>
          <polygon class="cls-5" points="578.31 237.36 578.31 242.8 584.15 242.8 584.15 242.8 584.15 248.25 584.15 253.7 584.15 259.16 584.15 264.6 584.15 270.06 584.15 275.51 584.15 275.51 578.31 275.51 578.31 280.96 578.31 286.41 572.47 286.41 572.47 291.86 572.47 297.32 578.31 297.32 578.31 291.86 584.15 291.86 584.15 286.41 584.15 280.96 590 280.96 590 275.51 590 270.06 590 264.6 590 259.16 590 253.7 590 248.25 590 242.8 590 237.36 584.15 237.36 584.15 237.36 584.15 231.9 584.15 226.45 578.31 226.45 578.31 231.9 578.31 237.36"/>
          <rect class="cls-5" x="572.47" y="221" width="5.84" height="5.45"/>
          <rect class="cls-5" x="566.63" y="215.55" width="5.83" height="5.46"/>
          <rect class="cls-5" x="590" y="204.64" width="5.82" height="5.45"/>
          <rect class="cls-5" x="584.15" y="199.19" width="5.85" height="5.46"/>
          <rect class="cls-5" x="578.31" y="193.74" width="5.84" height="5.45"/>
          <rect class="cls-5" x="572.47" y="188.29" width="5.84" height="5.45"/>
          <polygon class="cls-5" points="560.79 188.29 566.63 188.29 572.47 188.29 572.47 182.85 566.63 182.85 560.79 182.85 560.79 188.29"/>
          <polygon class="cls-5" points="508.24 330.03 502.41 330.03 502.41 335.47 508.24 335.47 514.09 335.47 514.09 330.03 508.24 330.03"/>
          <rect class="cls-5" x="496.58" y="324.57" width="5.83" height="5.46"/>
          <polygon class="cls-5" points="490.73 319.12 490.73 313.67 484.89 313.67 484.89 319.12 484.89 324.57 490.73 324.57 496.58 324.57 496.58 319.12 490.73 319.12"/>
          <rect class="cls-5" x="479.05" y="308.22" width="5.83" height="5.45"/>
          <polygon class="cls-5" points="519.93 313.67 525.76 313.67 531.61 313.67 537.43 313.67 543.27 313.67 549.11 313.67 554.96 313.67 560.79 313.67 560.79 308.22 566.63 308.22 566.63 302.76 560.79 302.76 554.96 302.76 554.96 308.22 549.11 308.22 543.27 308.22 537.43 308.22 531.61 308.22 525.76 308.22 519.93 308.22 519.93 302.76 514.09 302.76 508.24 302.76 508.24 308.22 514.09 308.22 514.09 313.67 519.93 313.67"/>
          <rect class="cls-5" x="502.41" y="297.32" width="5.83" height="5.45"/>
          <polygon class="cls-5" points="479.05 297.32 473.21 297.32 473.21 302.76 473.21 308.22 479.05 308.22 479.05 302.76 479.05 297.32"/>
          <polygon class="cls-5" points="473.21 286.41 467.38 286.41 467.38 291.86 467.38 297.32 473.21 297.32 473.21 291.86 473.21 286.41"/>
          <polygon class="cls-5" points="467.38 275.51 467.38 270.06 467.38 264.6 467.38 259.16 467.38 253.7 467.38 248.26 467.38 242.8 467.38 237.36 461.54 237.36 461.54 242.8 461.54 248.26 461.54 253.7 461.54 259.16 461.54 264.6 461.54 270.06 461.54 275.51 461.54 280.96 467.38 280.96 467.38 275.51"/>
          <polygon class="cls-5" points="502.41 286.41 496.58 286.41 496.58 280.96 496.58 275.51 490.73 275.51 490.73 270.06 490.73 264.6 490.73 259.16 490.73 253.7 490.73 248.26 490.73 242.8 496.58 242.8 496.58 237.36 496.58 231.9 502.41 231.9 502.41 226.45 502.41 221 496.58 221 496.58 226.45 490.73 226.45 490.73 231.9 490.73 237.36 484.89 237.36 484.89 242.8 484.89 248.26 484.89 253.7 484.89 259.16 484.89 264.6 484.89 270.06 484.89 275.51 484.89 280.96 490.73 280.96 490.73 286.41 490.73 291.86 496.58 291.86 496.58 297.32 502.41 297.32 502.41 291.86 502.41 286.41"/>
          <polygon class="cls-5" points="473.21 226.45 473.21 221 467.38 221 467.38 226.45 467.38 231.9 473.21 231.9 473.21 226.45"/>
          <rect class="cls-5" x="502.41" y="215.55" width="5.83" height="5.46"/>
          <polygon class="cls-5" points="479.05 215.55 479.05 210.09 473.21 210.09 473.21 215.55 473.21 221 479.05 221 479.05 215.55"/>
          <polygon class="cls-5" points="519.93 215.55 519.93 210.09 525.76 210.09 531.61 210.09 537.43 210.09 543.27 210.09 549.11 210.09 554.96 210.09 554.96 215.55 560.79 215.55 566.63 215.55 566.63 210.09 560.79 210.09 560.79 204.64 554.96 204.64 549.11 204.64 543.27 204.64 537.43 204.64 531.61 204.64 525.76 204.64 519.93 204.64 514.09 204.64 514.09 210.09 508.24 210.09 508.24 215.55 514.09 215.55 519.93 215.55"/>
          <rect class="cls-5" x="479.05" y="204.64" width="5.83" height="5.45"/>
          <rect class="cls-5" x="484.89" y="199.19" width="5.84" height="5.46"/>
          <rect class="cls-5" x="490.73" y="193.74" width="5.85" height="5.45"/>
          <rect class="cls-5" x="496.58" y="188.29" width="5.83" height="5.45"/>
          <polygon class="cls-5" points="514.09 188.29 514.09 182.85 508.24 182.85 502.41 182.85 502.41 188.29 508.24 188.29 514.09 188.29"/>
          <polygon class="cls-5" points="525.76 182.85 531.61 182.85 537.43 182.85 543.27 182.85 549.11 182.85 554.96 182.85 560.79 182.85 560.79 177.39 554.96 177.39 549.11 177.39 543.27 177.39 537.43 177.39 531.61 177.39 525.76 177.39 519.93 177.39 514.09 177.39 514.09 182.85 519.93 182.85 525.76 182.85"/>
        </g>
        <g>
          <polygon class="cls-1" points="619.18 221 613.34 221 613.34 226.45 607.5 226.45 607.5 231.9 607.5 237.36 613.34 237.36 613.34 231.9 619.18 231.9 625.03 231.9 625.03 226.45 625.03 221 619.18 221"/>
          <polygon class="cls-1" points="613.34 204.64 607.5 204.64 601.67 204.64 595.82 204.64 595.82 210.09 601.67 210.09 601.67 215.55 607.5 215.55 607.5 210.09 613.34 210.09 619.18 210.09 619.18 204.64 613.34 204.64"/>
          <polygon class="cls-1" points="543.27 302.76 537.43 302.76 531.6 302.76 525.76 302.76 525.76 297.32 519.93 297.32 514.09 297.32 514.09 291.86 508.24 291.86 508.24 286.41 502.41 286.41 502.41 291.86 502.41 297.32 508.24 297.32 508.24 302.76 514.09 302.76 519.93 302.76 519.93 308.22 525.76 308.22 531.6 308.22 537.43 308.22 543.27 308.22 549.11 308.22 554.96 308.22 554.96 302.76 549.11 302.76 543.27 302.76"/>
          <polygon class="cls-1" points="554.96 297.32 554.96 302.76 560.79 302.76 566.63 302.76 566.63 297.32 560.79 297.32 554.96 297.32"/>
          <rect class="cls-1" x="566.63" y="291.86" width="5.83" height="5.46"/>
          <polygon class="cls-1" points="502.41 275.51 496.58 275.51 496.58 280.96 496.58 286.41 502.41 286.41 502.41 280.96 502.41 275.51"/>
          <polygon class="cls-1" points="496.58 264.6 496.58 259.16 496.58 253.7 490.73 253.7 490.73 259.16 490.73 264.6 490.73 270.06 490.73 275.51 496.58 275.51 496.58 270.06 496.58 264.6"/>
          <rect class="cls-1" x="490.73" y="242.8" width="5.85" height="5.45"/>
        </g>
      </g>
      <g>
        <rect class="cls-3" x="140.13" y="327.29" width="5.84" height="5.46"/>
        <rect class="cls-3" x="145.97" y="310.94" width="5.84" height="5.45"/>
        <rect class="cls-2" x="29.2" y="256.42" width="5.83" height="5.46"/>
        <polygon class="cls-3" points="169.33 240.07 163.49 240.07 157.66 240.07 151.81 240.07 151.81 245.53 151.81 250.97 151.81 256.42 151.81 261.88 151.81 267.33 151.81 272.78 151.81 278.24 151.81 283.69 151.81 289.13 151.81 294.59 151.81 300.04 145.97 300.04 145.97 305.5 145.97 310.94 151.81 310.94 151.81 316.39 145.97 316.39 145.97 310.94 140.13 310.94 140.13 316.39 134.29 316.39 134.29 321.85 128.45 321.85 128.45 327.29 128.45 332.75 122.61 332.75 116.77 332.75 116.77 338.2 110.93 338.2 110.93 343.65 105.09 343.65 99.27 343.65 99.27 349.1 105.09 349.1 110.93 349.1 116.77 349.1 122.61 349.1 122.61 343.65 128.45 343.65 134.29 343.65 134.29 338.2 140.13 338.2 140.13 332.75 140.13 327.29 145.97 327.29 145.97 332.75 151.81 332.75 151.81 327.29 151.81 321.85 157.66 321.85 157.66 316.39 163.49 316.39 163.49 310.94 163.49 305.5 169.33 305.5 169.33 300.04 169.33 294.59 175.15 294.59 175.15 289.13 175.15 283.69 175.15 278.24 175.15 272.78 175.15 267.33 175.15 261.88 175.15 256.42 175.15 250.97 175.15 245.53 175.15 240.07 169.33 240.07"/>
        <polygon class="cls-5" points="110.93 343.52 110.93 343.65 99.27 343.65 99.27 349.1 122.61 349.1 122.61 343.65 134.29 343.65 134.29 343.52 110.93 343.52"/>
        <rect class="cls-1" x="140.13" y="223.73" width="5.84" height="5.45"/>
        <g>
          <path class="cls-4" d="M140.13,240.07v-16.34h-5.83v-5.46h-5.84v-5.45h-5.84v-5.46h-5.84v-5.45h-5.84v-5.46h-11.66v-5.45H52.55v5.45h-11.67v5.46h-5.84v5.45h-5.83v5.46h-5.84v5.45h-5.85v10.9h-5.83v10.89H5.84v54.52h5.84v10.9h5.83v10.89h5.85v5.46h5.84v5.45h5.83v5.46h5.84v5.45h11.67v5.46h46.72v-5.46h11.66v-5.45h5.84v-5.46h5.84v-5.45h5.84v-5.46h5.84v-5.45h5.83v-10.9h5.84v-59.97h-5.84Zm-110.92,5.46v-10.9h5.83v-5.45h5.84v-5.45h5.84v-5.46h5.83v-5.45h46.72v5.45h5.82v5.46h5.84v5.45h5.84v5.45h5.84v10.9h5.84v43.61h-5.84v10.9h-5.84v5.46h-5.84v5.45h-5.84v5.45h-5.82v5.46H52.55v-5.46h-5.83v-5.45h-5.84v-5.45h-5.84v-5.46h-5.83v-10.9h-5.84v-43.61h5.84Z"/>
          <polygon class="cls-4" points="40.87 240.07 35.03 240.07 35.03 245.53 35.03 250.97 35.03 256.42 35.03 261.88 35.03 267.33 35.03 272.78 35.03 278.24 35.03 283.69 40.87 283.69 40.87 289.13 40.87 294.59 46.71 294.59 46.71 300.04 52.55 300.04 52.55 305.5 58.39 305.5 64.24 305.5 64.24 310.94 70.06 310.94 75.91 310.94 81.75 310.94 87.58 310.94 93.42 310.94 93.42 305.5 99.27 305.5 105.09 305.5 105.09 300.04 110.93 300.04 110.93 294.59 116.77 294.59 116.77 289.13 116.77 283.69 122.61 283.69 122.61 278.24 122.61 272.78 122.61 267.33 122.61 261.88 122.61 256.42 122.61 250.97 116.77 250.97 116.77 245.53 116.77 240.07 116.77 234.62 110.93 234.62 110.93 229.18 105.09 229.18 105.09 223.73 99.27 223.73 93.42 223.73 93.42 218.27 87.58 218.27 81.75 218.27 75.91 218.27 70.06 218.27 64.24 218.27 58.39 218.27 58.39 223.73 52.55 223.73 46.71 223.73 46.71 229.18 40.87 229.18 40.87 234.62 40.87 240.07"/>
        </g>
        <g>
          <polygon class="cls-3" points="163.49 223.73 163.49 218.27 163.49 212.82 157.66 212.82 157.66 218.27 151.81 218.27 145.97 218.27 145.97 223.73 145.97 229.18 145.97 234.62 151.81 234.62 151.81 229.18 157.66 229.18 163.49 229.18 163.49 234.62 163.49 240.07 169.33 240.07 169.33 234.62 169.33 229.18 169.33 223.73 163.49 223.73"/>
          <polygon class="cls-3" points="151.81 207.37 151.81 201.92 145.97 201.92 140.13 201.92 140.13 196.46 134.29 196.46 134.29 191.02 128.45 191.02 122.61 191.02 122.61 185.57 116.77 185.57 110.93 185.57 105.09 185.57 99.27 185.57 99.27 191.02 105.09 191.02 110.93 191.02 110.93 196.46 116.77 196.46 116.77 201.92 122.61 201.92 122.61 207.37 128.45 207.37 128.45 212.82 134.29 212.82 140.13 212.82 145.97 212.82 151.81 212.82 157.66 212.82 157.66 207.37 151.81 207.37"/>
        </g>
        <polygon class="cls-3" points="163.49 223.73 163.49 218.27 163.49 212.82 157.66 212.82 157.66 218.27 151.81 218.27 145.97 218.27 145.97 223.73 145.97 229.18 145.97 234.62 151.81 234.62 151.81 229.18 157.66 229.18 163.49 229.18 163.49 234.62 163.49 240.07 169.33 240.07 169.33 234.62 169.33 229.18 169.33 223.73 163.49 223.73"/>
        <polygon class="cls-5" points="163.49 223.73 163.49 218.27 163.49 212.82 157.66 212.82 157.66 212.82 157.66 212.82 157.66 218.27 157.66 223.73 163.49 223.73 163.49 229.18 163.49 229.18 163.49 234.62 163.49 240.07 169.33 240.07 169.33 234.62 169.33 229.18 169.33 223.73 163.49 223.73"/>
        <g>
          <rect class="cls-5" x="134.29" y="196.46" width="5.83" height="5.46"/>
          <polygon class="cls-5" points="140.13 207.37 145.97 207.37 151.81 207.37 151.81 201.92 145.97 201.92 140.13 201.92 140.13 207.37"/>
          <polygon class="cls-5" points="128.45 196.46 134.29 196.46 134.29 191.02 128.45 191.02 122.61 191.02 122.61 196.46 128.45 196.46"/>
          <rect class="cls-5" x="151.81" y="207.37" width="5.85" height="5.46"/>
          <polygon class="cls-5" points="105.09 191.02 105.09 191.02 110.93 191.02 110.93 191.02 116.77 191.02 122.61 191.02 122.61 185.57 116.77 185.57 110.93 185.57 105.09 185.57 99.27 185.57 99.27 191.02 99.27 191.02 105.09 191.02"/>
        </g>
        <g>
          <polygon class="cls-5" points="145.97 310.94 140.13 310.94 140.13 316.39 140.13 316.39 140.13 316.39 145.97 316.39 145.97 310.94"/>
          <polygon class="cls-5" points="157.66 240.08 157.66 240.07 157.66 240.07 151.81 240.07 151.81 240.08 151.81 240.08 157.66 240.08"/>
          <polygon class="cls-5" points="169.33 240.07 163.49 240.07 163.49 240.07 163.49 240.08 169.33 240.08 169.33 245.53 169.33 250.97 169.33 256.42 169.33 261.88 169.33 267.33 169.33 272.78 169.33 278.24 169.33 283.69 169.33 289.13 169.33 294.59 175.15 294.59 175.15 289.13 175.15 283.69 175.15 278.24 175.15 272.78 175.15 267.33 175.15 261.88 175.15 256.42 175.15 250.97 175.15 245.53 175.15 240.07 169.33 240.07"/>
          <polygon class="cls-5" points="145.97 321.85 145.97 327.29 145.97 327.29 145.97 332.75 151.81 332.75 151.81 327.29 151.81 321.85 145.97 321.85"/>
          <rect class="cls-5" x="151.81" y="316.39" width="5.85" height="5.46"/>
          <polygon class="cls-5" points="163.49 294.59 163.49 300.04 163.49 305.5 157.66 305.5 157.66 310.94 157.66 316.39 163.49 316.39 163.49 310.94 163.49 305.5 169.33 305.5 169.33 300.04 169.33 294.59 163.49 294.59"/>
          <polygon class="cls-5" points="122.61 343.65 116.77 343.65 116.77 349.1 122.61 349.1 122.61 343.65 122.61 343.65"/>
          <polygon class="cls-5" points="140.13 332.75 140.13 327.29 134.29 327.29 134.29 332.75 134.29 338.2 140.13 338.2 140.13 332.75 140.13 332.75"/>
          <rect class="cls-5" x="128.45" y="338.2" width="5.84" height="5.46"/>
        </g>
        <g>
          <polygon class="cls-5" points="99.27 338.2 99.27 343.65 93.42 343.65 87.58 343.65 81.75 343.65 75.91 343.65 70.07 343.65 64.24 343.65 58.39 343.65 52.55 343.65 52.55 349.1 58.39 349.1 64.24 349.1 70.07 349.1 75.91 349.1 81.75 349.1 87.58 349.1 93.42 349.1 99.27 349.1 99.27 343.65 105.09 343.65 110.93 343.65 110.93 338.2 105.09 338.2 99.27 338.2"/>
          <rect class="cls-5" x="110.93" y="332.75" width="5.84" height="5.45"/>
          <polygon class="cls-5" points="122.61 327.29 116.77 327.29 116.77 332.75 122.61 332.75 128.45 332.75 128.45 327.29 128.45 321.85 122.61 321.85 122.61 327.29"/>
          <rect class="cls-5" x="128.45" y="316.39" width="5.84" height="5.46"/>
          <rect class="cls-5" x="134.29" y="310.94" width="5.83" height="5.45"/>
          <polygon class="cls-5" points="140.13 305.5 140.13 310.94 145.97 310.94 145.97 305.5 145.97 300.04 140.13 300.04 140.13 305.5"/>
          <polygon class="cls-5" points="145.97 245.53 145.97 250.97 145.97 256.42 145.97 261.88 145.97 267.33 145.97 272.78 145.97 278.24 145.97 283.69 145.97 289.13 145.97 294.59 145.97 300.04 151.81 300.04 151.81 294.59 151.81 289.13 151.81 283.69 151.81 278.24 151.81 272.78 151.81 267.33 151.81 261.88 151.81 256.42 151.81 250.97 151.81 245.53 145.97 245.53"/>
          <polygon class="cls-5" points="140.13 234.62 140.13 240.07 145.97 240.07 145.97 234.62 145.97 229.18 140.13 229.18 140.13 234.62"/>
          <rect class="cls-5" x="134.29" y="218.27" width="5.83" height="5.46"/>
          <rect class="cls-5" x="105.09" y="305.5" width="5.84" height="5.45"/>
          <polygon class="cls-5" points="116.77 245.53 116.77 250.97 122.61 250.97 122.61 250.97 122.61 256.42 122.61 261.88 122.61 267.33 122.61 272.78 122.61 278.24 122.61 283.69 122.61 283.69 116.77 283.69 116.77 289.13 116.77 294.59 110.93 294.59 110.93 300.04 110.93 305.5 116.77 305.5 116.77 300.04 122.61 300.04 122.61 294.59 122.61 289.13 128.45 289.13 128.45 283.69 128.45 278.24 128.45 272.78 128.45 267.33 128.45 261.88 128.45 256.42 128.45 250.97 128.45 245.53 122.61 245.53 122.61 245.53 122.61 240.07 122.61 234.62 116.77 234.62 116.77 240.07 116.77 245.53"/>
          <rect class="cls-5" x="110.93" y="229.18" width="5.84" height="5.45"/>
          <rect class="cls-5" x="105.09" y="223.73" width="5.84" height="5.45"/>
          <rect class="cls-5" x="128.45" y="212.82" width="5.84" height="5.45"/>
          <rect class="cls-5" x="122.61" y="207.37" width="5.84" height="5.46"/>
          <rect class="cls-5" x="116.77" y="201.92" width="5.84" height="5.45"/>
          <rect class="cls-5" x="110.93" y="196.46" width="5.84" height="5.46"/>
          <polygon class="cls-5" points="99.27 196.46 105.09 196.46 110.93 196.46 110.93 191.02 105.09 191.02 99.27 191.02 99.27 196.46"/>
          <polygon class="cls-5" points="46.71 338.2 40.87 338.2 40.87 343.65 46.71 343.65 52.55 343.65 52.55 338.2 46.71 338.2"/>
          <rect class="cls-5" x="35.03" y="332.75" width="5.84" height="5.45"/>
          <polygon class="cls-5" points="29.2 327.29 29.2 321.85 23.36 321.85 23.36 327.29 23.36 332.75 29.2 332.75 35.03 332.75 35.03 327.29 29.2 327.29"/>
          <rect class="cls-5" x="17.51" y="316.39" width="5.85" height="5.46"/>
          <polygon class="cls-5" points="58.39 321.85 64.24 321.85 70.07 321.85 75.91 321.85 81.75 321.85 87.58 321.85 93.42 321.85 99.27 321.85 99.27 316.39 105.09 316.39 105.09 310.94 99.27 310.94 93.42 310.94 93.42 316.39 87.58 316.39 81.75 316.39 75.91 316.39 70.07 316.39 64.24 316.39 58.39 316.39 58.39 310.94 52.55 310.94 46.71 310.94 46.71 316.39 52.55 316.39 52.55 321.85 58.39 321.85"/>
          <rect class="cls-5" x="40.87" y="305.5" width="5.84" height="5.45"/>
          <polygon class="cls-5" points="17.51 305.5 11.68 305.5 11.68 310.94 11.68 316.39 17.51 316.39 17.51 310.94 17.51 305.5"/>
          <polygon class="cls-5" points="11.68 294.59 5.84 294.59 5.84 300.04 5.84 305.5 11.68 305.5 11.68 300.04 11.68 294.59"/>
          <polygon class="cls-5" points="5.84 283.69 5.84 278.24 5.84 272.78 5.84 267.33 5.84 261.88 5.84 256.42 5.84 250.97 5.84 245.53 0 245.53 0 250.97 0 256.42 0 261.88 0 267.33 0 272.78 0 278.24 0 283.69 0 289.13 5.84 289.13 5.84 283.69"/>
          <polygon class="cls-5" points="40.87 294.59 35.03 294.59 35.03 289.13 35.03 283.69 29.2 283.69 29.2 278.24 29.2 272.78 29.2 267.33 29.2 261.88 29.2 256.42 29.2 250.97 35.03 250.97 35.03 245.53 35.03 240.07 40.87 240.07 40.87 234.62 40.87 229.18 35.03 229.18 35.03 234.62 29.2 234.62 29.2 240.07 29.2 245.53 23.36 245.53 23.36 250.97 23.36 256.42 23.36 261.88 23.36 267.33 23.36 272.78 23.36 278.24 23.36 283.69 23.36 289.13 29.2 289.13 29.2 294.59 29.2 300.04 35.03 300.04 35.03 305.5 40.87 305.5 40.87 300.04 40.87 294.59"/>
          <polygon class="cls-5" points="11.68 234.62 11.68 229.18 5.84 229.18 5.84 234.62 5.84 240.07 11.68 240.07 11.68 234.62"/>
          <rect class="cls-5" x="40.87" y="223.73" width="5.84" height="5.45"/>
          <polygon class="cls-5" points="17.51 223.73 17.51 218.27 11.68 218.27 11.68 223.73 11.68 229.18 17.51 229.18 17.51 223.73"/>
          <polygon class="cls-5" points="58.39 223.73 58.39 218.27 64.24 218.27 70.07 218.27 75.91 218.27 81.75 218.27 87.58 218.27 93.42 218.27 93.42 223.73 99.27 223.73 105.09 223.73 105.09 218.27 99.27 218.27 99.27 212.82 93.42 212.82 87.58 212.82 81.75 212.82 75.91 212.82 70.07 212.82 64.24 212.82 58.39 212.82 52.55 212.82 52.55 218.27 46.71 218.27 46.71 223.73 52.55 223.73 58.39 223.73"/>
          <rect class="cls-5" x="17.51" y="212.82" width="5.85" height="5.45"/>
          <rect class="cls-5" x="23.36" y="207.37" width="5.84" height="5.46"/>
          <rect class="cls-5" x="29.2" y="201.92" width="5.83" height="5.45"/>
          <rect class="cls-5" x="35.03" y="196.46" width="5.84" height="5.46"/>
          <polygon class="cls-5" points="52.55 196.46 52.55 191.02 46.71 191.02 40.87 191.02 40.87 196.46 46.71 196.46 52.55 196.46"/>
          <polygon class="cls-5" points="64.24 191.02 70.07 191.02 75.91 191.02 81.75 191.02 87.58 191.02 93.42 191.02 99.27 191.02 99.27 185.57 93.42 185.57 87.58 185.57 81.75 185.57 75.91 185.57 70.07 185.57 64.24 185.57 58.39 185.57 52.55 185.57 52.55 191.02 58.39 191.02 64.24 191.02"/>
        </g>
        <g>
          <polygon class="cls-1" points="157.66 229.18 151.81 229.18 151.81 234.62 145.97 234.62 145.97 240.07 145.97 245.53 151.81 245.53 151.81 240.07 157.66 240.07 163.49 240.07 163.49 234.62 163.49 229.18 157.66 229.18"/>
          <polygon class="cls-1" points="151.81 212.82 145.97 212.82 140.13 212.82 134.29 212.82 134.29 218.27 140.13 218.27 140.13 223.73 145.97 223.73 145.97 218.27 151.81 218.27 157.66 218.27 157.66 212.82 151.81 212.82"/>
          <polygon class="cls-1" points="81.75 310.94 75.91 310.94 70.06 310.94 64.24 310.94 64.24 305.5 58.39 305.5 52.55 305.5 52.55 300.04 46.71 300.04 46.71 294.59 40.87 294.59 40.87 300.04 40.87 305.5 46.71 305.5 46.71 310.94 52.55 310.94 58.39 310.94 58.39 316.39 64.24 316.39 70.06 316.39 75.91 316.39 81.75 316.39 87.58 316.39 93.42 316.39 93.42 310.94 87.58 310.94 81.75 310.94"/>
          <polygon class="cls-1" points="93.42 305.5 93.42 310.94 99.27 310.94 105.09 310.94 105.09 305.5 99.27 305.5 93.42 305.5"/>
          <rect class="cls-1" x="105.09" y="300.04" width="5.84" height="5.46"/>
          <polygon class="cls-1" points="40.87 283.69 35.03 283.69 35.03 289.13 35.03 294.59 40.87 294.59 40.87 289.13 40.87 283.69"/>
          <polygon class="cls-1" points="35.03 272.78 35.03 267.33 35.03 261.88 29.2 261.88 29.2 267.33 29.2 272.78 29.2 278.24 29.2 283.69 35.03 283.69 35.03 278.24 35.03 272.78"/>
          <rect class="cls-1" x="29.2" y="250.97" width="5.83" height="5.45"/>
        </g>
      </g>
      <g>
        <rect class="cls-3" x="250.35" y="141.72" width="5.84" height="5.46"/>
        <rect class="cls-3" x="256.19" y="125.37" width="5.83" height="5.45"/>
        <rect class="cls-2" x="139.43" y="70.86" width="5.83" height="5.46"/>
        <polygon class="cls-3" points="279.56 54.51 273.72 54.51 267.88 54.51 262.03 54.51 262.03 59.97 262.03 65.41 262.03 70.86 262.03 76.32 262.03 81.77 262.03 87.21 262.03 92.66 262.03 98.12 262.03 103.56 262.03 109.02 262.03 114.47 256.19 114.47 256.19 119.93 256.19 125.37 262.03 125.37 262.03 130.82 256.19 130.82 256.19 125.37 250.35 125.37 250.35 130.82 244.53 130.82 244.53 136.28 238.68 136.28 238.68 141.72 238.68 147.18 232.84 147.18 226.99 147.18 226.99 152.64 221.17 152.64 221.17 158.09 215.32 158.09 209.5 158.09 209.5 163.53 215.32 163.53 221.17 163.53 226.99 163.53 232.84 163.53 232.84 158.09 238.68 158.09 244.53 158.09 244.53 152.64 250.35 152.64 250.35 147.18 250.35 141.72 256.19 141.72 256.19 147.18 262.03 147.18 262.03 141.72 262.03 136.28 267.88 136.28 267.88 130.82 273.72 130.82 273.72 125.37 273.72 119.93 279.56 119.93 279.56 114.47 279.56 109.02 285.39 109.02 285.39 103.56 285.39 98.12 285.39 92.66 285.39 87.21 285.39 81.77 285.39 76.32 285.39 70.86 285.39 65.41 285.39 59.97 285.39 54.51 279.56 54.51"/>
        <polygon class="cls-5" points="221.17 157.95 221.17 158.09 209.5 158.09 209.5 163.53 232.84 163.53 232.84 158.09 244.53 158.09 244.53 157.95 221.17 157.95"/>
        <rect class="cls-1" x="250.35" y="38.15" width="5.84" height="5.46"/>
        <g>
          <path class="cls-4" d="M250.35,54.51v-16.36h-5.82v-5.45h-5.85v-5.45h-5.84v-5.45h-5.85v-5.46h-5.82v-5.45h-11.67V5.46h-46.72v5.45h-11.67v5.45h-5.84v5.46h-5.83v5.45h-5.84v5.45h-5.85v10.9h-5.84v10.9h-5.82v54.51h5.82v10.9h5.84v10.89h5.85v5.46h5.84v5.45h5.83v5.46h5.84v5.46h11.67v5.45h46.72v-5.45h11.67v-5.46h5.82v-5.46h5.85v-5.45h5.84v-5.46h5.85v-5.45h5.82v-10.9h5.84V54.51h-5.84Zm-110.92,5.46v-10.9h5.83v-5.46h5.84v-5.46h5.83v-5.45h5.84v-5.45h46.72v5.45h5.82v5.45h5.85v5.46h5.82v5.46h5.85v10.9h5.84v43.6h-5.84v10.9h-5.85v5.46h-5.82v5.45h-5.85v5.45h-5.82v5.46h-46.72v-5.46h-5.84v-5.45h-5.83v-5.45h-5.84v-5.46h-5.83v-10.9h-5.84V59.97h5.84Z"/>
          <polygon class="cls-4" points="151.1 54.51 145.26 54.51 145.26 59.97 145.26 65.41 145.26 70.86 145.26 76.32 145.26 81.77 145.26 87.21 145.26 92.66 145.26 98.12 151.1 98.12 151.1 103.56 151.1 109.02 156.93 109.02 156.93 114.47 162.77 114.47 162.77 119.93 168.61 119.93 174.46 119.93 174.46 125.37 180.3 125.37 186.14 125.37 191.98 125.37 197.81 125.37 203.65 125.37 203.65 119.93 209.5 119.93 215.32 119.93 215.32 114.47 221.17 114.47 221.17 109.02 226.99 109.02 226.99 103.56 226.99 98.12 232.84 98.12 232.84 92.66 232.84 87.21 232.84 81.77 232.84 76.32 232.84 70.86 232.84 65.41 226.99 65.41 226.99 59.97 226.99 54.51 226.99 49.06 221.17 49.06 221.17 43.61 215.32 43.61 215.32 38.15 209.5 38.15 203.65 38.15 203.65 32.7 197.81 32.7 191.98 32.7 186.14 32.7 180.3 32.7 174.46 32.7 168.61 32.7 168.61 38.15 162.77 38.15 156.93 38.15 156.93 43.61 151.1 43.61 151.1 49.06 151.1 54.51"/>
        </g>
        <g>
          <polygon class="cls-3" points="273.72 38.15 273.72 32.7 273.72 27.26 267.88 27.26 267.88 32.7 262.03 32.7 256.19 32.7 256.19 38.15 256.19 43.61 256.19 49.06 262.03 49.06 262.03 43.61 267.88 43.61 273.72 43.61 273.72 49.06 273.72 54.51 279.56 54.51 279.56 49.06 279.56 43.61 279.56 38.15 273.72 38.15"/>
          <polygon class="cls-3" points="262.03 21.81 262.03 16.35 256.19 16.35 250.35 16.35 250.35 10.9 244.53 10.9 244.53 5.46 238.68 5.46 232.84 5.46 232.84 0 226.99 0 221.17 0 215.32 0 209.5 0 209.5 5.46 215.32 5.46 221.17 5.46 221.17 10.9 226.99 10.9 226.99 16.35 232.84 16.35 232.84 21.81 238.68 21.81 238.68 27.26 244.53 27.26 250.35 27.26 256.19 27.26 262.03 27.26 267.88 27.26 267.88 21.81 262.03 21.81"/>
        </g>
        <polygon class="cls-3" points="273.72 38.15 273.72 32.7 273.72 27.26 267.88 27.26 267.88 32.7 262.03 32.7 256.19 32.7 256.19 38.15 256.19 43.61 256.19 49.06 262.03 49.06 262.03 43.61 267.88 43.61 273.72 43.61 273.72 49.06 273.72 54.51 279.56 54.51 279.56 49.06 279.56 43.61 279.56 38.15 273.72 38.15"/>
        <polygon class="cls-5" points="273.72 38.15 273.72 32.7 273.72 27.26 267.88 27.26 267.88 27.26 267.88 27.26 267.88 32.7 267.88 38.15 273.72 38.15 273.72 43.61 273.72 43.61 273.72 49.06 273.72 54.51 279.56 54.51 279.56 49.06 279.56 43.61 279.56 38.15 273.72 38.15"/>
        <g>
          <rect class="cls-5" x="244.53" y="10.9" width="5.82" height="5.45"/>
          <polygon class="cls-5" points="250.35 21.81 256.19 21.81 262.03 21.81 262.03 16.35 256.19 16.35 250.35 16.35 250.35 21.81"/>
          <polygon class="cls-5" points="238.68 10.9 244.53 10.9 244.53 5.46 238.68 5.46 232.84 5.46 232.84 10.9 238.68 10.9"/>
          <rect class="cls-5" x="262.03" y="21.81" width="5.85" height="5.45"/>
          <polygon class="cls-5" points="215.32 5.46 215.32 5.46 221.17 5.46 221.17 5.46 226.99 5.46 232.84 5.46 232.84 0 226.99 0 221.17 0 215.32 0 209.5 0 209.5 5.46 209.5 5.46 215.32 5.46"/>
        </g>
        <g>
          <polygon class="cls-5" points="256.19 125.37 250.35 125.37 250.35 130.82 250.35 130.82 250.35 130.82 256.19 130.82 256.19 125.37"/>
          <polygon class="cls-5" points="279.56 54.51 273.72 54.51 273.72 54.51 273.72 54.51 279.56 54.51 279.56 59.97 279.56 65.41 279.56 70.86 279.56 76.32 279.56 81.77 279.56 87.21 279.56 92.66 279.56 98.12 279.56 103.56 279.56 109.02 285.4 109.02 285.4 103.56 285.4 98.12 285.4 92.66 285.4 87.21 285.4 81.77 285.4 76.32 285.4 70.86 285.4 65.41 285.4 59.97 285.4 54.51 279.56 54.51"/>
          <polygon class="cls-5" points="256.19 136.28 256.19 141.72 256.19 141.72 256.19 147.18 262.03 147.18 262.03 141.72 262.03 136.28 256.19 136.28"/>
          <rect class="cls-5" x="262.03" y="130.82" width="5.85" height="5.46"/>
          <polygon class="cls-5" points="273.72 109.02 273.72 114.47 273.72 119.93 267.88 119.93 267.88 125.37 267.88 130.82 273.72 130.82 273.72 125.37 273.72 119.93 279.56 119.93 279.56 114.47 279.56 109.02 273.72 109.02"/>
          <polygon class="cls-5" points="232.84 158.09 226.99 158.09 226.99 163.53 232.84 163.53 232.84 158.09 232.84 158.09"/>
          <polygon class="cls-5" points="250.35 147.18 250.35 141.72 244.53 141.72 244.53 147.18 244.53 152.64 250.35 152.64 250.35 147.18 250.35 147.18"/>
          <rect class="cls-5" x="238.68" y="152.64" width="5.85" height="5.45"/>
        </g>
        <g>
          <polygon class="cls-5" points="209.5 152.64 209.5 158.09 203.65 158.09 197.81 158.09 191.98 158.09 186.14 158.09 180.3 158.09 174.46 158.09 168.61 158.09 162.77 158.09 162.77 163.53 168.61 163.53 174.46 163.53 180.3 163.53 186.14 163.53 191.98 163.53 197.81 163.53 203.65 163.53 209.5 163.53 209.5 158.09 215.32 158.09 221.17 158.09 221.17 152.64 215.32 152.64 209.5 152.64"/>
          <rect class="cls-5" x="221.17" y="147.18" width="5.82" height="5.46"/>
          <polygon class="cls-5" points="232.84 141.72 226.99 141.72 226.99 147.18 232.84 147.18 238.68 147.18 238.68 141.72 238.68 136.28 232.84 136.28 232.84 141.72"/>
          <rect class="cls-5" x="238.68" y="130.82" width="5.85" height="5.46"/>
          <rect class="cls-5" x="244.53" y="125.37" width="5.82" height="5.45"/>
          <polygon class="cls-5" points="250.35 119.93 250.35 125.37 256.19 125.37 256.19 119.93 256.19 114.47 250.35 114.47 250.35 119.93"/>
          <polygon class="cls-5" points="256.19 59.97 256.19 65.41 256.19 70.86 256.19 76.32 256.19 81.77 256.19 87.21 256.19 92.66 256.19 98.12 256.19 103.56 256.19 109.02 256.19 114.47 262.03 114.47 262.03 109.02 262.03 103.56 262.03 98.12 262.03 92.66 262.03 87.21 262.03 81.77 262.03 76.32 262.03 70.86 262.03 65.41 262.03 59.97 256.19 59.97"/>
          <polygon class="cls-5" points="250.35 49.06 250.35 54.51 256.19 54.51 256.19 49.06 256.19 43.61 250.35 43.61 250.35 49.06"/>
          <rect class="cls-5" x="244.53" y="32.7" width="5.82" height="5.45"/>
          <rect class="cls-5" x="215.32" y="119.93" width="5.85" height="5.45"/>
          <polygon class="cls-5" points="226.99 59.97 226.99 65.41 232.84 65.41 232.84 65.41 232.84 70.86 232.84 76.32 232.84 81.77 232.84 87.21 232.84 92.66 232.84 98.12 232.84 98.12 226.99 98.12 226.99 103.56 226.99 109.02 221.17 109.02 221.17 114.47 221.17 119.93 226.99 119.93 226.99 114.47 232.84 114.47 232.84 109.02 232.84 103.56 238.68 103.56 238.68 98.12 238.68 92.66 238.68 87.21 238.68 81.77 238.68 76.32 238.68 70.86 238.68 65.41 238.68 59.97 232.84 59.97 232.84 59.97 232.84 54.51 232.84 49.06 226.99 49.06 226.99 54.51 226.99 59.97"/>
          <rect class="cls-5" x="221.17" y="43.61" width="5.82" height="5.46"/>
          <rect class="cls-5" x="215.32" y="38.15" width="5.85" height="5.46"/>
          <rect class="cls-5" x="238.68" y="27.26" width="5.85" height="5.45"/>
          <rect class="cls-5" x="232.84" y="21.81" width="5.84" height="5.45"/>
          <rect class="cls-5" x="226.99" y="16.35" width="5.85" height="5.46"/>
          <rect class="cls-5" x="221.17" y="10.9" width="5.82" height="5.45"/>
          <polygon class="cls-5" points="209.5 10.9 215.32 10.9 221.17 10.9 221.17 5.46 215.32 5.46 209.5 5.46 209.5 10.9"/>
          <polygon class="cls-5" points="156.93 152.64 151.1 152.64 151.1 158.09 156.93 158.09 162.77 158.09 162.77 152.64 156.93 152.64"/>
          <rect class="cls-5" x="145.26" y="147.18" width="5.84" height="5.46"/>
          <polygon class="cls-5" points="139.43 141.72 139.43 136.28 133.59 136.28 133.59 141.72 133.59 147.18 139.43 147.18 145.26 147.18 145.26 141.72 139.43 141.72"/>
          <rect class="cls-5" x="127.74" y="130.82" width="5.85" height="5.46"/>
          <polygon class="cls-5" points="168.61 136.28 174.46 136.28 180.3 136.28 186.14 136.28 191.98 136.28 197.81 136.28 203.65 136.28 209.5 136.28 209.5 130.82 215.32 130.82 215.32 125.37 209.5 125.37 203.65 125.37 203.65 130.82 197.81 130.82 191.98 130.82 186.14 130.82 180.3 130.82 174.46 130.82 168.61 130.82 168.61 125.37 162.77 125.37 156.93 125.37 156.93 130.82 162.77 130.82 162.77 136.28 168.61 136.28"/>
          <rect class="cls-5" x="151.1" y="119.93" width="5.83" height="5.45"/>
          <polygon class="cls-5" points="127.74 119.93 121.9 119.93 121.9 125.37 121.9 130.82 127.74 130.82 127.74 125.37 127.74 119.93"/>
          <polygon class="cls-5" points="121.9 109.02 116.08 109.02 116.08 114.47 116.08 119.93 121.9 119.93 121.9 114.47 121.9 109.02"/>
          <polygon class="cls-5" points="116.08 98.12 116.08 92.66 116.08 87.21 116.08 81.77 116.08 76.32 116.08 70.86 116.08 65.41 116.08 59.97 110.23 59.97 110.23 65.41 110.23 70.86 110.23 76.32 110.23 81.77 110.23 87.21 110.23 92.66 110.23 98.12 110.23 103.56 116.08 103.56 116.08 98.12"/>
          <polygon class="cls-5" points="151.1 109.02 145.26 109.02 145.26 103.56 145.26 98.12 139.43 98.12 139.43 92.66 139.43 87.21 139.43 81.77 139.43 76.32 139.43 70.86 139.43 65.41 145.26 65.41 145.26 59.97 145.26 54.51 151.1 54.51 151.1 49.06 151.1 43.61 145.26 43.61 145.26 49.06 139.43 49.06 139.43 54.51 139.43 59.97 133.59 59.97 133.59 65.41 133.59 70.86 133.59 76.32 133.59 81.77 133.59 87.21 133.59 92.66 133.59 98.12 133.59 103.56 139.43 103.56 139.43 109.02 139.43 114.47 145.26 114.47 145.26 119.93 151.1 119.93 151.1 114.47 151.1 109.02"/>
          <polygon class="cls-5" points="121.9 49.06 121.9 43.61 116.08 43.61 116.08 49.06 116.08 54.51 121.9 54.51 121.9 49.06"/>
          <rect class="cls-5" x="151.1" y="38.15" width="5.83" height="5.46"/>
          <polygon class="cls-5" points="127.74 38.15 127.74 32.7 121.9 32.7 121.9 38.15 121.9 43.61 127.74 43.61 127.74 38.15"/>
          <polygon class="cls-5" points="168.61 38.15 168.61 32.7 174.46 32.7 180.3 32.7 186.14 32.7 191.98 32.7 197.81 32.7 203.65 32.7 203.65 38.15 209.5 38.15 215.32 38.15 215.32 32.7 209.5 32.7 209.5 27.26 203.65 27.26 197.81 27.26 191.98 27.26 186.14 27.26 180.3 27.26 174.46 27.26 168.61 27.26 162.77 27.26 162.77 32.7 156.93 32.7 156.93 38.15 162.77 38.15 168.61 38.15"/>
          <rect class="cls-5" x="127.74" y="27.26" width="5.85" height="5.45"/>
          <rect class="cls-5" x="133.59" y="21.81" width="5.84" height="5.45"/>
          <rect class="cls-5" x="139.43" y="16.35" width="5.83" height="5.46"/>
          <rect class="cls-5" x="145.26" y="10.9" width="5.84" height="5.45"/>
          <polygon class="cls-5" points="162.77 10.9 162.77 5.46 156.93 5.46 151.1 5.46 151.1 10.9 156.93 10.9 162.77 10.9"/>
          <polygon class="cls-5" points="174.46 5.46 180.3 5.46 186.14 5.46 191.98 5.46 197.81 5.46 203.65 5.46 209.5 5.46 209.5 0 203.65 0 197.81 0 191.98 0 186.14 0 180.3 0 174.46 0 168.61 0 162.77 0 162.77 5.46 168.61 5.46 174.46 5.46"/>
        </g>
        <g>
          <polygon class="cls-1" points="267.88 43.61 262.03 43.61 262.03 49.06 256.19 49.06 256.19 54.51 256.19 59.97 262.03 59.97 262.03 54.51 267.88 54.51 273.72 54.51 273.72 49.06 273.72 43.61 267.88 43.61"/>
          <polygon class="cls-1" points="262.03 27.26 256.19 27.26 250.35 27.26 244.53 27.26 244.53 32.7 250.35 32.7 250.35 38.15 256.19 38.15 256.19 32.7 262.03 32.7 267.88 32.7 267.88 27.26 262.03 27.26"/>
          <polygon class="cls-1" points="191.98 125.37 186.14 125.37 180.3 125.37 174.46 125.37 174.46 119.93 168.61 119.93 162.77 119.93 162.77 114.47 156.93 114.47 156.93 109.02 151.1 109.02 151.1 114.47 151.1 119.93 156.93 119.93 156.93 125.37 162.77 125.37 168.61 125.37 168.61 130.82 174.46 130.82 180.3 130.82 186.14 130.82 191.98 130.82 197.81 130.82 203.65 130.82 203.65 125.37 197.81 125.37 191.98 125.37"/>
          <polygon class="cls-1" points="203.65 119.93 203.65 125.37 209.5 125.37 215.32 125.37 215.32 119.93 209.5 119.93 203.65 119.93"/>
          <rect class="cls-1" x="215.32" y="114.47" width="5.85" height="5.46"/>
          <polygon class="cls-1" points="151.1 98.12 145.26 98.12 145.26 103.56 145.26 109.02 151.1 109.02 151.1 103.56 151.1 98.12"/>
          <polygon class="cls-1" points="145.26 87.21 145.26 81.77 145.26 76.32 139.43 76.32 139.43 81.77 139.43 87.21 139.43 92.66 139.43 98.12 145.26 98.12 145.26 92.66 145.26 87.21"/>
          <rect class="cls-1" x="139.43" y="65.41" width="5.83" height="5.45"/>
        </g>
      </g>
      <g>
        <rect class="cls-3" x="477.81" y="145.69" width="5.83" height="5.46"/>
        <rect class="cls-3" x="483.64" y="129.33" width="5.85" height="5.46"/>
        <rect class="cls-2" x="366.88" y="74.82" width="5.84" height="5.46"/>
        <polygon class="cls-3" points="507.01 58.47 501.16 58.47 495.32 58.47 489.49 58.47 489.49 63.92 489.49 69.36 489.49 74.82 489.49 80.28 489.49 85.72 489.49 91.18 489.49 96.63 489.49 102.08 489.49 107.53 489.49 112.98 489.49 118.44 483.64 118.44 483.64 123.88 483.64 129.33 489.49 129.33 489.49 134.79 483.64 134.79 483.64 129.33 477.81 129.33 477.81 134.79 471.97 134.79 471.97 140.23 466.14 140.23 466.14 145.69 466.14 151.15 460.3 151.15 454.46 151.15 454.46 156.6 448.62 156.6 448.62 162.04 442.79 162.04 436.94 162.04 436.94 167.5 442.79 167.5 448.62 167.5 454.46 167.5 460.3 167.5 460.3 162.04 466.14 162.04 471.97 162.04 471.97 156.6 477.81 156.6 477.81 151.15 477.81 145.69 483.64 145.69 483.64 151.15 489.49 151.15 489.49 145.69 489.49 140.23 495.32 140.23 495.32 134.79 501.16 134.79 501.16 129.33 501.16 123.88 507.01 123.88 507.01 118.44 507.01 112.98 512.85 112.98 512.85 107.53 512.85 102.08 512.85 96.63 512.85 91.18 512.85 85.72 512.85 80.28 512.85 74.82 512.85 69.36 512.85 63.92 512.85 58.47 507.01 58.47"/>
        <polygon class="cls-5" points="448.62 161.92 448.62 162.04 436.94 162.04 436.94 167.5 460.29 167.5 460.29 162.04 471.97 162.04 471.97 161.92 448.62 161.92"/>
        <rect class="cls-1" x="477.81" y="42.11" width="5.83" height="5.46"/>
        <g>
          <path class="cls-4" d="M477.81,58.47v-16.36h-5.84v-5.45h-5.83v-5.45h-5.84v-5.45h-5.84v-5.46h-5.84v-5.45h-11.68v-5.46h-46.71v5.46h-11.68v5.45h-5.83v5.46h-5.84v5.45h-5.84v5.45h-5.83v10.9h-5.84v10.9h-5.85v54.51h5.85v10.9h5.84v10.9h5.83v5.45h5.84v5.46h5.84v5.46h5.83v5.45h11.68v5.45h46.71v-5.45h11.68v-5.45h5.84v-5.46h5.84v-5.46h5.84v-5.45h5.83v-5.46h5.84v-10.89h5.83V58.47h-5.83Zm-110.93,5.45v-10.9h5.84v-5.45h5.83v-5.46h5.85v-5.45h5.83v-5.45h46.71v5.45h5.85v5.45h5.83v5.46h5.84v5.45h5.84v10.9h5.84v43.62h-5.84v10.9h-5.84v5.45h-5.84v5.45h-5.83v5.46h-5.85v5.45h-46.71v-5.45h-5.83v-5.46h-5.85v-5.45h-5.83v-5.45h-5.84v-10.9h-5.84V63.92h5.84Z"/>
          <polygon class="cls-4" points="378.55 58.47 372.72 58.47 372.72 63.92 372.72 69.36 372.72 74.82 372.72 80.28 372.72 85.72 372.72 91.18 372.72 96.63 372.72 102.08 378.55 102.08 378.55 107.53 378.55 112.98 384.4 112.98 384.4 118.44 390.23 118.44 390.23 123.88 396.07 123.88 401.9 123.88 401.9 129.33 407.75 129.33 413.59 129.33 419.43 129.33 425.27 129.33 431.12 129.33 431.12 123.88 436.94 123.88 442.79 123.88 442.79 118.44 448.62 118.44 448.62 112.98 454.46 112.98 454.46 107.53 454.46 102.08 460.3 102.08 460.3 96.63 460.3 91.18 460.3 85.72 460.3 80.28 460.3 74.82 460.3 69.36 454.46 69.36 454.46 63.92 454.46 58.47 454.46 53.01 448.62 53.01 448.62 47.56 442.79 47.56 442.79 42.11 436.94 42.11 431.12 42.11 431.12 36.66 425.27 36.66 419.43 36.66 413.59 36.66 407.75 36.66 401.9 36.66 396.07 36.66 396.07 42.11 390.23 42.11 384.4 42.11 384.4 47.56 378.55 47.56 378.55 53.01 378.55 58.47"/>
        </g>
        <g>
          <polygon class="cls-3" points="501.16 42.11 501.16 36.66 501.16 31.21 495.32 31.21 495.32 36.66 489.49 36.66 483.64 36.66 483.64 42.11 483.64 47.56 483.64 53.01 489.49 53.01 489.49 47.56 495.32 47.56 501.16 47.56 501.16 53.01 501.16 58.47 507.01 58.47 507.01 53.01 507.01 47.56 507.01 42.11 501.16 42.11"/>
          <polygon class="cls-3" points="489.49 25.77 489.49 20.31 483.64 20.31 477.81 20.31 477.81 14.86 471.97 14.86 471.97 9.4 466.14 9.4 460.3 9.4 460.3 3.96 454.46 3.96 448.62 3.96 442.79 3.96 436.94 3.96 436.94 9.4 442.79 9.4 448.62 9.4 448.62 14.86 454.46 14.86 454.46 20.31 460.3 20.31 460.3 25.77 466.14 25.77 466.14 31.21 471.97 31.21 477.81 31.21 483.64 31.21 489.49 31.21 495.32 31.21 495.32 25.77 489.49 25.77"/>
        </g>
        <polygon class="cls-3" points="501.16 42.11 501.16 36.66 501.16 31.21 495.32 31.21 495.32 36.66 489.49 36.66 483.64 36.66 483.64 42.11 483.64 47.56 483.64 53.01 489.49 53.01 489.49 47.56 495.32 47.56 501.16 47.56 501.16 53.01 501.16 58.47 507.01 58.47 507.01 53.01 507.01 47.56 507.01 42.11 501.16 42.11"/>
        <polygon class="cls-5" points="501.16 42.12 501.16 36.66 501.16 31.21 495.32 31.21 495.32 31.21 495.32 31.21 495.32 36.66 495.32 42.12 501.16 42.12 501.16 47.56 501.16 47.56 501.16 53.01 501.16 58.47 507.01 58.47 507.01 53.01 507.01 47.56 507.01 42.12 501.16 42.12"/>
        <g>
          <rect class="cls-5" x="471.97" y="14.86" width="5.84" height="5.45"/>
          <polygon class="cls-5" points="477.81 25.77 483.64 25.77 489.49 25.77 489.49 20.31 483.64 20.31 477.81 20.31 477.81 25.77"/>
          <polygon class="cls-5" points="466.14 14.86 471.97 14.86 471.97 9.4 466.14 9.4 460.3 9.4 460.3 14.86 466.14 14.86"/>
          <rect class="cls-5" x="489.49" y="25.77" width="5.83" height="5.45"/>
          <polygon class="cls-5" points="442.79 9.4 442.79 9.4 448.62 9.4 448.62 9.4 454.46 9.4 460.29 9.4 460.29 3.96 454.46 3.96 448.62 3.96 442.79 3.96 436.94 3.96 436.94 9.4 436.94 9.4 442.79 9.4"/>
        </g>
        <g>
          <polygon class="cls-5" points="483.64 129.33 477.81 129.33 477.81 134.79 477.81 134.79 477.81 134.79 483.64 134.79 483.64 129.33"/>
          <polygon class="cls-5" points="507.01 58.47 501.16 58.47 501.16 58.47 501.16 58.47 507.01 58.47 507.01 63.92 507.01 69.36 507.01 74.82 507.01 80.28 507.01 85.72 507.01 91.18 507.01 96.63 507.01 102.08 507.01 107.53 507.01 112.98 512.85 112.98 512.85 107.53 512.85 102.08 512.85 96.63 512.85 91.18 512.85 85.72 512.85 80.28 512.85 74.82 512.85 69.36 512.85 63.92 512.85 58.47 507.01 58.47"/>
          <polygon class="cls-5" points="483.64 140.23 483.64 145.69 483.64 145.69 483.64 151.15 489.49 151.15 489.49 145.69 489.49 140.23 483.64 140.23"/>
          <rect class="cls-5" x="489.49" y="134.79" width="5.83" height="5.45"/>
          <polygon class="cls-5" points="501.16 112.98 501.16 118.44 501.16 123.88 495.32 123.88 495.32 129.33 495.32 134.79 501.16 134.79 501.16 129.33 501.16 123.88 507.01 123.88 507.01 118.44 507.01 112.98 501.16 112.98"/>
          <polygon class="cls-5" points="460.29 162.04 454.46 162.04 454.46 167.5 460.29 167.5 460.29 162.04 460.29 162.04"/>
          <polygon class="cls-5" points="477.81 151.15 477.81 145.69 471.97 145.69 471.97 151.15 471.97 156.6 477.81 156.6 477.81 151.15 477.81 151.15"/>
          <rect class="cls-5" x="466.14" y="156.6" width="5.83" height="5.45"/>
        </g>
        <g>
          <polygon class="cls-5" points="436.94 156.6 436.94 162.04 431.12 162.04 425.27 162.04 419.43 162.04 413.59 162.04 407.75 162.04 401.9 162.04 396.07 162.04 390.23 162.04 390.23 167.5 396.07 167.5 401.9 167.5 407.75 167.5 413.59 167.5 419.43 167.5 425.27 167.5 431.12 167.5 436.94 167.5 436.94 162.04 442.79 162.04 448.62 162.04 448.62 156.6 442.79 156.6 436.94 156.6"/>
          <rect class="cls-5" x="448.62" y="151.15" width="5.84" height="5.45"/>
          <polygon class="cls-5" points="460.29 145.69 454.46 145.69 454.46 151.15 460.29 151.15 466.14 151.15 466.14 145.69 466.14 140.23 460.29 140.23 460.29 145.69"/>
          <rect class="cls-5" x="466.14" y="134.79" width="5.83" height="5.45"/>
          <rect class="cls-5" x="471.97" y="129.33" width="5.84" height="5.46"/>
          <polygon class="cls-5" points="477.81 123.88 477.81 129.33 483.64 129.33 483.64 123.88 483.64 118.44 477.81 118.44 477.81 123.88"/>
          <polygon class="cls-5" points="483.64 63.92 483.64 69.36 483.64 74.82 483.64 80.28 483.64 85.72 483.64 91.18 483.64 96.63 483.64 102.08 483.64 107.53 483.64 112.98 483.64 118.44 489.49 118.44 489.49 112.98 489.49 107.53 489.49 102.08 489.49 96.63 489.49 91.18 489.49 85.72 489.49 80.28 489.49 74.82 489.49 69.36 489.49 63.92 483.64 63.92"/>
          <polygon class="cls-5" points="477.81 53.01 477.81 58.47 483.64 58.47 483.64 53.01 483.64 47.56 477.81 47.56 477.81 53.01"/>
          <rect class="cls-5" x="471.97" y="36.66" width="5.84" height="5.46"/>
          <rect class="cls-5" x="442.79" y="123.88" width="5.83" height="5.45"/>
          <polygon class="cls-5" points="454.46 63.92 454.46 69.36 460.29 69.36 460.29 69.36 460.29 74.82 460.29 80.28 460.29 85.72 460.29 91.18 460.29 96.63 460.29 102.08 460.29 102.08 454.46 102.08 454.46 107.53 454.46 112.98 448.62 112.98 448.62 118.44 448.62 123.88 454.46 123.88 454.46 118.44 460.29 118.44 460.29 112.98 460.29 107.53 466.14 107.53 466.14 102.08 466.14 96.63 466.14 91.18 466.14 85.72 466.14 80.28 466.14 74.82 466.14 69.36 466.14 63.92 460.29 63.92 460.29 63.92 460.29 58.47 460.29 53.01 454.46 53.01 454.46 58.47 454.46 63.92"/>
          <rect class="cls-5" x="448.62" y="47.56" width="5.84" height="5.45"/>
          <rect class="cls-5" x="442.79" y="42.12" width="5.83" height="5.45"/>
          <rect class="cls-5" x="466.14" y="31.21" width="5.83" height="5.45"/>
          <rect class="cls-5" x="460.29" y="25.77" width="5.85" height="5.45"/>
          <rect class="cls-5" x="454.46" y="20.31" width="5.83" height="5.46"/>
          <rect class="cls-5" x="448.62" y="14.86" width="5.84" height="5.45"/>
          <polygon class="cls-5" points="436.94 14.86 442.79 14.86 448.62 14.86 448.62 9.4 442.79 9.4 436.94 9.4 436.94 14.86"/>
          <polygon class="cls-5" points="384.4 156.6 378.55 156.6 378.55 162.04 384.4 162.04 390.23 162.04 390.23 156.6 384.4 156.6"/>
          <rect class="cls-5" x="372.72" y="151.15" width="5.83" height="5.45"/>
          <polygon class="cls-5" points="366.88 145.69 366.88 140.23 361.04 140.23 361.04 145.69 361.04 151.15 366.88 151.15 372.72 151.15 372.72 145.69 366.88 145.69"/>
          <rect class="cls-5" x="355.2" y="134.79" width="5.84" height="5.45"/>
          <polygon class="cls-5" points="396.07 140.23 401.9 140.23 407.75 140.23 413.59 140.23 419.43 140.23 425.27 140.23 431.12 140.23 436.94 140.23 436.94 134.79 442.79 134.79 442.79 129.33 436.94 129.33 431.12 129.33 431.12 134.79 425.27 134.79 419.43 134.79 413.59 134.79 407.75 134.79 401.9 134.79 396.07 134.79 396.07 129.33 390.23 129.33 384.4 129.33 384.4 134.79 390.23 134.79 390.23 140.23 396.07 140.23"/>
          <rect class="cls-5" x="378.55" y="123.88" width="5.85" height="5.45"/>
          <polygon class="cls-5" points="355.2 123.88 349.37 123.88 349.37 129.33 349.37 134.79 355.2 134.79 355.2 129.33 355.2 123.88"/>
          <polygon class="cls-5" points="349.37 112.98 343.52 112.98 343.52 118.44 343.52 123.88 349.37 123.88 349.37 118.44 349.37 112.98"/>
          <polygon class="cls-5" points="343.52 102.08 343.52 96.63 343.52 91.18 343.52 85.72 343.52 80.28 343.52 74.82 343.52 69.36 343.52 63.92 337.69 63.92 337.69 69.36 337.69 74.82 337.69 80.28 337.69 85.72 337.69 91.18 337.69 96.63 337.69 102.08 337.69 107.53 343.52 107.53 343.52 102.08"/>
          <polygon class="cls-5" points="378.55 112.98 372.72 112.98 372.72 107.53 372.72 102.08 366.88 102.08 366.88 96.63 366.88 91.18 366.88 85.72 366.88 80.28 366.88 74.82 366.88 69.36 372.72 69.36 372.72 63.92 372.72 58.47 378.55 58.47 378.55 53.01 378.55 47.56 372.72 47.56 372.72 53.01 366.88 53.01 366.88 58.47 366.88 63.92 361.04 63.92 361.04 69.36 361.04 74.82 361.04 80.28 361.04 85.72 361.04 91.18 361.04 96.63 361.04 102.08 361.04 107.53 366.88 107.53 366.88 112.98 366.88 118.44 372.72 118.44 372.72 123.88 378.55 123.88 378.55 118.44 378.55 112.98"/>
          <polygon class="cls-5" points="349.37 53.01 349.37 47.56 343.52 47.56 343.52 53.01 343.52 58.47 349.37 58.47 349.37 53.01"/>
          <rect class="cls-5" x="378.55" y="42.12" width="5.85" height="5.45"/>
          <polygon class="cls-5" points="355.2 42.12 355.2 36.66 349.37 36.66 349.37 42.12 349.37 47.56 355.2 47.56 355.2 42.12"/>
          <polygon class="cls-5" points="396.07 42.12 396.07 36.66 401.9 36.66 407.75 36.66 413.59 36.66 419.43 36.66 425.27 36.66 431.12 36.66 431.12 42.12 436.94 42.12 442.79 42.12 442.79 36.66 436.94 36.66 436.94 31.21 431.12 31.21 425.27 31.21 419.43 31.21 413.59 31.21 407.75 31.21 401.9 31.21 396.07 31.21 390.23 31.21 390.23 36.66 384.4 36.66 384.4 42.12 390.23 42.12 396.07 42.12"/>
          <rect class="cls-5" x="355.2" y="31.21" width="5.84" height="5.45"/>
          <rect class="cls-5" x="361.04" y="25.77" width="5.84" height="5.45"/>
          <rect class="cls-5" x="366.88" y="20.31" width="5.84" height="5.46"/>
          <rect class="cls-5" x="372.72" y="14.86" width="5.83" height="5.45"/>
          <polygon class="cls-5" points="390.23 14.86 390.23 9.4 384.4 9.4 378.55 9.4 378.55 14.86 384.4 14.86 390.23 14.86"/>
          <polygon class="cls-5" points="401.9 9.4 407.75 9.4 413.59 9.4 419.43 9.4 425.27 9.4 431.12 9.4 436.94 9.4 436.94 3.96 431.12 3.96 425.27 3.96 419.43 3.96 413.59 3.96 407.75 3.96 401.9 3.96 396.07 3.96 390.23 3.96 390.23 9.4 396.07 9.4 401.9 9.4"/>
        </g>
        <g>
          <polygon class="cls-1" points="495.32 47.56 489.49 47.56 489.49 53.01 483.64 53.01 483.64 58.47 483.64 63.92 489.49 63.92 489.49 58.47 495.32 58.47 501.16 58.47 501.16 53.01 501.16 47.56 495.32 47.56"/>
          <polygon class="cls-1" points="489.49 31.21 483.64 31.21 477.81 31.21 471.97 31.21 471.97 36.66 477.81 36.66 477.81 42.11 483.64 42.11 483.64 36.66 489.49 36.66 495.32 36.66 495.32 31.21 489.49 31.21"/>
          <polygon class="cls-1" points="419.43 129.33 413.59 129.33 407.75 129.33 401.9 129.33 401.9 123.88 396.07 123.88 390.23 123.88 390.23 118.44 384.4 118.44 384.4 112.98 378.55 112.98 378.55 118.44 378.55 123.88 384.4 123.88 384.4 129.33 390.23 129.33 396.07 129.33 396.07 134.79 401.9 134.79 407.75 134.79 413.59 134.79 419.43 134.79 425.27 134.79 431.12 134.79 431.12 129.33 425.27 129.33 419.43 129.33"/>
          <polygon class="cls-1" points="431.12 123.88 431.12 129.33 436.94 129.33 442.79 129.33 442.79 123.88 436.94 123.88 431.12 123.88"/>
          <rect class="cls-1" x="442.79" y="118.44" width="5.83" height="5.45"/>
          <polygon class="cls-1" points="378.55 102.08 372.72 102.08 372.72 107.53 372.72 112.98 378.55 112.98 378.55 107.53 378.55 102.08"/>
          <polygon class="cls-1" points="372.72 91.18 372.72 85.72 372.72 80.28 366.88 80.28 366.88 85.72 366.88 91.18 366.88 96.63 366.88 102.08 372.72 102.08 372.72 96.63 372.72 91.18"/>
          <rect class="cls-1" x="366.88" y="69.36" width="5.84" height="5.46"/>
        </g>
      </g>
    </g>
  </g>
</svg>