<?xml version="1.0" encoding="UTF-8"?>
<svg id="_Шар_2" data-name="Шар 2" xmlns="http://www.w3.org/2000/svg" viewBox="0 0 96.91 78.8">
  <defs>
    <style>
      .cls-1 {
        fill: #fff;
      }

      .cls-2 {
        fill: #e22121;
      }

      .cls-3 {
        fill: #d73b5e;
      }

      .cls-4 {
        fill: #b73b6b;
      }

      .cls-5 {
        fill: #1d1d1b;
      }
    </style>
  </defs>
  <g id="_Шар_1-2" data-name="Шар 1">
    <g>
      <g>
        <polygon class="cls-3" points="92.07 19.71 92.07 23.64 87.22 23.64 82.38 23.64 82.38 19.71 77.53 19.71 77.53 15.77 72.68 15.77 72.68 11.83 67.84 11.83 67.84 7.88 72.68 7.88 77.53 7.88 82.38 7.88 82.38 3.94 77.53 3.94 72.68 3.94 67.84 3.94 62.99 3.94 62.99 7.88 58.15 7.88 58.15 11.83 53.3 11.83 53.3 15.77 48.45 15.77 43.61 15.77 43.61 11.83 38.76 11.83 38.76 7.88 33.92 7.88 33.92 3.94 29.07 3.94 24.23 3.94 19.38 3.94 19.38 7.88 14.53 7.88 14.53 11.83 14.53 15.77 14.53 19.71 14.53 23.64 14.53 27.58 14.53 31.52 14.53 35.46 19.38 35.46 19.38 39.4 24.23 39.4 24.23 43.34 29.07 43.34 29.07 47.28 29.07 51.22 33.92 51.22 33.92 55.16 38.76 55.16 38.76 59.1 43.61 59.1 43.61 63.04 48.45 63.04 48.45 66.98 53.3 66.98 58.15 66.98 58.15 63.04 62.99 63.04 62.99 59.1 67.84 59.1 67.84 55.16 72.68 55.16 72.68 51.22 77.53 51.22 77.53 47.28 82.38 47.28 82.38 43.34 87.22 43.34 87.22 39.4 92.07 39.4 92.07 35.46 92.07 31.52 92.07 27.58 96.91 27.58 96.91 23.64 96.91 19.71 92.07 19.71"/>
        <rect class="cls-2" x="87.22" y="11.83" width="4.84" height="3.94"/>
        <rect class="cls-2" x="82.38" y="7.88" width="4.84" height="3.95"/>
      </g>
      <g>
        <polygon class="cls-4" points="48.45 63.04 43.61 63.04 43.61 59.1 38.76 59.1 38.76 55.16 33.92 55.16 33.92 51.22 29.07 51.22 29.07 47.28 29.07 43.34 24.23 43.34 24.23 39.4 19.38 39.4 19.38 35.46 14.53 35.46 14.53 31.52 14.53 27.58 14.53 23.64 14.53 19.71 14.53 15.77 14.53 11.83 14.53 7.88 9.69 7.88 9.69 11.83 4.84 11.83 4.84 15.77 4.84 19.71 4.84 23.64 4.84 27.58 4.84 31.52 4.84 35.46 4.84 39.4 9.69 39.4 9.69 43.34 14.53 43.34 14.53 47.28 19.38 47.28 19.38 51.22 24.23 51.22 24.23 55.16 29.07 55.16 29.07 59.1 33.92 59.1 33.92 63.04 38.76 63.04 38.76 66.98 38.76 70.92 43.61 70.92 43.61 74.86 48.45 74.86 53.3 74.86 53.3 70.92 53.3 66.98 48.45 66.98 48.45 63.04"/>
        <rect class="cls-4" x="14.53" y="3.94" width="4.84" height="3.94"/>
      </g>
      <g>
        <rect class="cls-5" x="87.22" y="7.88" width="4.84" height="3.95"/>
        <rect class="cls-5" x="82.38" y="3.94" width="4.84" height="3.94"/>
        <polygon class="cls-5" points="53.3 70.92 48.45 70.92 48.45 74.86 43.61 74.86 43.61 78.8 48.45 78.8 48.45 74.86 53.3 74.86 53.3 70.92 58.15 70.92 58.15 66.98 53.3 66.98 53.3 70.92"/>
        <rect class="cls-5" x="58.15" y="63.04" width="4.84" height="3.94"/>
        <rect class="cls-5" x="33.92" y="63.04" width="4.84" height="3.94"/>
        <rect class="cls-5" x="38.76" y="66.98" width="4.84" height="3.94"/>
        <rect class="cls-5" x="62.99" y="59.1" width="4.84" height="3.94"/>
        <rect class="cls-5" x="29.07" y="59.1" width="4.84" height="3.94"/>
        <rect class="cls-5" x="67.84" y="55.16" width="4.84" height="3.94"/>
        <rect class="cls-5" x="24.23" y="55.16" width="4.84" height="3.94"/>
        <rect class="cls-5" x="72.68" y="51.22" width="4.84" height="3.94"/>
        <rect class="cls-5" x="19.38" y="51.22" width="4.85" height="3.94"/>
        <rect class="cls-5" x="77.53" y="47.28" width="4.85" height="3.94"/>
        <rect class="cls-5" x="14.53" y="47.28" width="4.84" height="3.94"/>
        <rect class="cls-5" x="82.38" y="43.34" width="4.84" height="3.94"/>
        <rect class="cls-5" x="9.69" y="43.34" width="4.84" height="3.94"/>
        <rect class="cls-5" x="4.84" y="39.4" width="4.84" height="3.94"/>
        <polygon class="cls-5" points="92.07 39.4 87.22 39.4 87.22 43.34 92.07 43.34 92.07 39.4 96.91 39.4 96.91 35.46 92.07 35.46 92.07 39.4"/>
        <polygon class="cls-5" points="92.07 11.83 92.07 15.77 92.07 19.71 92.16 19.71 92.16 27.58 92.07 27.58 92.07 31.52 92.07 35.46 96.91 35.46 96.91 31.52 96.91 27.58 96.91 19.71 96.91 15.77 96.91 11.83 92.07 11.83"/>
        <polygon class="cls-5" points="43.61 11.83 43.61 15.77 48.45 15.77 53.3 15.77 53.3 11.83 48.45 11.83 43.61 11.83"/>
        <rect class="cls-5" x="53.3" y="7.88" width="4.84" height="3.95"/>
        <rect class="cls-5" x="38.76" y="7.88" width="4.84" height="3.95"/>
        <polygon class="cls-5" points="4.84 11.83 0 11.83 0 15.77 0 15.77 0 19.71 0 23.64 0 27.58 0 31.52 0 35.42 0 35.46 0 39.36 4.84 39.36 4.84 35.46 4.84 35.42 4.84 31.52 4.84 27.58 4.84 23.64 4.84 19.71 4.84 15.77 4.84 15.77 4.84 11.83 9.69 11.83 9.69 7.88 4.84 7.88 4.84 11.83"/>
        <rect class="cls-5" x="58.15" y="3.94" width="4.84" height="3.94"/>
        <rect class="cls-5" x="33.92" y="3.94" width="4.84" height="3.94"/>
        <rect class="cls-5" x="9.69" y="3.94" width="4.84" height="3.94"/>
        <polygon class="cls-5" points="77.53 0 72.68 0 67.84 0 62.99 0 62.99 3.94 67.84 3.94 72.68 3.94 77.53 3.94 82.38 3.94 82.38 0 77.53 0"/>
        <polygon class="cls-5" points="29.07 0 24.23 0 19.38 0 14.53 0 14.53 3.94 19.38 3.94 24.23 3.94 29.07 3.94 33.92 3.94 33.92 0 29.07 0"/>
      </g>
      <polygon class="cls-1" points="87.22 15.77 87.22 15.77 87.22 11.83 82.38 11.83 82.38 7.88 77.53 7.88 72.68 7.88 67.84 7.88 67.84 11.83 72.68 11.83 72.68 15.77 77.53 15.77 77.53 19.71 82.38 19.71 82.38 23.64 87.22 23.64 87.22 23.64 92.07 23.64 92.07 19.71 92.07 15.77 87.22 15.77"/>
    </g>
  </g>
</svg>