<?xml version="1.0" encoding="UTF-8"?>
<svg id="_Шар_2" data-name="Шар 2" xmlns="http://www.w3.org/2000/svg" viewBox="0 0 299.65 577.66">
  <defs>
    <style>
      .cls-1 {
        fill: #7a7852;
      }

      .cls-2 {
        fill: #d0d2d8;
      }

      .cls-3 {
        fill: #fff;
      }

      .cls-4 {
        fill: #424746;
      }

      .cls-5 {
        fill: #86855b;
      }

      .cls-6 {
        fill: #6d6549;
      }

      .cls-7 {
        fill: #d2ad84;
      }

      .cls-8 {
        fill: #5d4125;
      }

      .cls-9 {
        fill: #232623;
      }

      .cls-10 {
        fill: #565a5b;
      }

      .cls-11 {
        fill: #e1a37e;
      }

      .cls-12 {
        fill: #4c5151;
      }

      .cls-13 {
        fill: #535858;
      }

      .cls-14 {
        fill: #f3b996;
      }

      .cls-15 {
        fill: #606466;
      }

      .cls-16 {
        fill: #363a38;
      }

      .cls-17 {
        fill: #838358;
      }

      .cls-18 {
        fill: #47653e;
      }

      .cls-19 {
        fill: #d7b747;
      }

      .cls-20 {
        fill: #c48661;
      }

      .cls-21 {
        fill: #797851;
      }

      .cls-22 {
        fill: #454948;
      }

      .cls-23 {
        fill: #5f6365;
      }

      .cls-24 {
        fill: #f2aa90;
      }

      .cls-25 {
        fill: #4d5252;
      }

      .cls-26 {
        fill: #746f43;
      }

      .cls-27 {
        fill: #828257;
      }

      .cls-28 {
        fill: #597e4e;
      }

      .cls-29 {
        fill: #e2a47f;
      }

      .cls-30 {
        fill: #82878a;
      }

      .cls-31 {
        fill: #616668;
      }

      .cls-32 {
        fill: #797245;
      }

      .cls-33 {
        fill: #897c4e;
      }

      .cls-34 {
        fill: #292927;
      }

      .cls-35 {
        fill: #ae9b72;
      }

      .cls-36 {
        fill: #4e5353;
      }

      .cls-37 {
        fill: #777145;
      }

      .cls-38 {
        fill: #2e2620;
      }

      .cls-39 {
        fill: #f3a380;
      }

      .cls-40 {
        fill: #493d2b;
      }

      .cls-41 {
        fill: #4c5333;
      }

      .cls-42 {
        fill: #753f1c;
      }

      .cls-43 {
        fill: #a87247;
      }

      .cls-44 {
        fill: #4b4f4e;
      }

      .cls-45 {
        fill: #5e6263;
      }

      .cls-46 {
        fill: #3b3f3e;
      }

      .cls-47 {
        fill: #757043;
      }

      .cls-48 {
        fill: #ed8f20;
      }

      .cls-49 {
        fill: #7f7b56;
      }

      .cls-50 {
        fill: #7a7246;
      }

      .cls-51 {
        fill: #2b2f2b;
      }

      .cls-52 {
        fill: #595e5e;
      }

      .cls-53 {
        fill: #252520;
      }

      .cls-54 {
        fill: #767650;
      }

      .cls-55 {
        fill: #272626;
      }

      .cls-56 {
        fill: #d7b187;
      }

      .cls-57 {
        fill: #7a7144;
      }

      .cls-58 {
        fill: #815c25;
      }

      .cls-59 {
        fill: #242825;
      }

      .cls-60 {
        fill: #272b28;
      }

      .cls-61 {
        fill: #1d1d1b;
      }

      .cls-62 {
        fill: #2f3331;
      }

      .cls-63 {
        fill: #787750;
      }

      .cls-64 {
        fill: #805a3a;
      }

      .cls-65 {
        fill: #fccc04;
      }

      .cls-66 {
        fill: #8e8261;
      }

      .cls-67 {
        fill: #373c3a;
      }

      .cls-68 {
        fill: #313530;
      }
    </style>
  </defs>
  <g id="_Шар_1-2" data-name="Шар 1">
    <g>
      <g>
        <rect class="cls-41" x="148.48" y="564.82" width="2.68" height="6.42"/>
        <rect class="cls-64" x="118.98" y="545.57" width="2.69" height="6.42"/>
        <g>
          <polygon class="cls-28" points="89.47 455.71 92.15 455.71 94.84 455.71 97.51 455.71 100.2 455.71 102.88 455.71 105.57 455.71 108.24 455.71 110.93 455.71 113.61 455.71 116.29 455.71 118.98 455.71 118.98 462.13 118.98 468.55 118.98 474.96 118.98 481.39 118.98 487.8 118.98 494.22 118.98 500.64 118.98 507.06 118.98 513.48 118.98 519.9 118.98 526.32 118.98 532.73 118.98 539.15 118.98 545.57 116.29 545.57 113.61 545.57 110.93 545.57 108.24 545.57 105.57 545.57 102.88 545.57 100.2 545.57 97.51 545.57 94.84 545.57 92.15 545.57 89.47 545.57 86.78 545.57 86.78 539.15 86.78 532.73 86.78 526.32 86.78 519.9 86.78 513.48 86.78 507.06 86.78 500.64 86.78 494.22 86.78 487.8 86.78 481.39 86.78 474.96 86.78 468.55 86.78 462.13 86.78 455.71 89.47 455.71"/>
          <polygon class="cls-28" points="188.71 455.71 191.4 455.71 194.08 455.71 196.77 455.71 199.44 455.71 202.13 455.71 204.81 455.71 207.5 455.71 210.17 455.71 212.86 455.71 215.54 455.71 215.54 462.13 215.54 468.55 215.54 474.96 215.54 481.39 215.54 487.8 215.54 494.22 215.54 500.64 215.54 507.06 215.54 513.48 215.54 519.9 215.54 526.32 215.54 532.73 215.54 539.15 215.54 545.57 212.86 545.57 210.17 545.57 207.5 545.57 204.81 545.57 202.13 545.57 199.44 545.57 196.77 545.57 194.08 545.57 191.4 545.57 188.71 545.57 186.04 545.57 183.35 545.57 183.35 539.15 183.35 532.73 183.35 526.32 183.35 519.9 183.35 513.48 183.35 507.06 183.35 500.64 183.35 494.22 183.35 487.8 183.35 481.39 183.35 474.96 183.35 468.55 183.35 462.13 183.35 455.71 186.04 455.71 188.71 455.71"/>
        </g>
        <g>
          <polygon class="cls-18" points="121.66 455.71 124.34 455.71 127.02 455.71 129.71 455.71 132.38 455.71 135.07 455.71 137.75 455.71 140.44 455.71 143.11 455.71 145.8 455.71 148.48 455.71 148.48 462.13 148.48 468.55 148.48 474.96 148.48 481.39 148.48 487.8 148.48 494.22 148.48 500.64 148.48 507.06 148.48 513.48 148.48 519.9 148.48 526.32 148.48 532.73 148.48 539.15 148.48 545.57 148.48 551.99 148.48 558.41 145.8 558.41 143.11 558.41 140.44 558.41 140.44 551.99 137.75 551.99 135.07 551.99 132.38 551.99 132.38 545.57 129.71 545.57 127.02 545.57 124.34 545.57 121.66 545.57 118.98 545.57 118.98 539.15 118.98 532.73 118.98 526.32 118.98 519.9 118.98 513.48 118.98 507.06 118.98 500.64 118.98 494.22 118.98 487.8 118.98 481.39 118.98 474.96 118.98 468.55 118.98 462.13 118.98 455.71 121.66 455.71"/>
          <polygon class="cls-18" points="220.9 455.71 223.59 455.71 226.27 455.71 228.95 455.71 231.63 455.71 234.32 455.71 237 455.71 239.68 455.71 242.37 455.71 245.05 455.71 245.05 462.13 245.05 468.55 245.05 474.96 245.05 481.39 245.05 487.8 245.05 494.22 245.05 500.64 245.05 507.06 245.05 513.48 245.05 519.9 245.05 526.32 245.05 532.73 245.05 539.15 245.05 545.57 245.05 551.99 245.05 558.41 245.05 564.82 242.37 564.82 242.37 558.41 239.68 558.41 237 558.41 237 551.99 234.32 551.99 231.63 551.99 228.95 551.99 228.95 545.57 226.27 545.57 223.59 545.57 220.9 545.57 218.23 545.57 215.54 545.57 215.54 539.15 215.54 532.73 215.54 526.32 215.54 519.9 215.54 513.48 215.54 507.06 215.54 500.64 215.54 494.22 215.54 487.8 215.54 481.39 215.54 474.96 215.54 468.55 215.54 462.13 215.54 455.71 218.23 455.71 220.9 455.71"/>
        </g>
        <rect class="cls-50" x="242.37" y="442.88" width="2.68" height="6.41"/>
        <rect class="cls-57" x="242.37" y="365.85" width="2.68" height="6.42"/>
        <rect class="cls-37" x="242.37" y="359.43" width="2.68" height="6.42"/>
        <rect class="cls-26" x="242.37" y="353.01" width="2.68" height="6.42"/>
        <rect class="cls-17" x="86.79" y="340.18" width="2.68" height="6.42"/>
        <rect class="cls-56" x="277.23" y="320.92" width="2.68" height="6.42"/>
        <rect class="cls-54" x="279.92" y="301.67" width="2.68" height="6.42"/>
        <rect class="cls-63" x="277.23" y="295.25" width="2.68" height="6.42"/>
        <rect class="cls-32" x="239.68" y="269.58" width="2.68" height="6.42"/>
        <rect class="cls-1" x="242.37" y="263.16" width="2.68" height="6.42"/>
        <rect class="cls-21" x="263.83" y="256.74" width="2.68" height="6.42"/>
        <rect class="cls-49" x="261.14" y="250.32" width="2.69" height="6.42"/>
        <rect class="cls-47" x="237" y="243.9" width="2.68" height="6.42"/>
        <rect class="cls-5" x="89.47" y="237.48" width="2.68" height="6.42"/>
        <g>
          <polygon class="cls-6" points="89.47 378.69 92.15 378.69 94.84 378.69 97.51 378.69 100.2 378.69 102.88 378.69 105.57 378.69 108.24 378.69 110.93 378.69 113.61 378.69 116.29 378.69 118.98 378.69 121.66 378.69 124.34 378.69 127.02 378.69 129.71 378.69 132.38 378.69 135.07 378.69 137.75 378.69 140.44 378.69 143.11 378.69 145.8 378.69 148.48 378.69 151.17 378.69 153.84 378.69 156.53 378.69 159.21 378.69 161.89 378.69 164.57 378.69 167.26 378.69 169.94 378.69 172.62 378.69 175.3 378.69 177.99 378.69 180.67 378.69 183.35 378.69 186.04 378.69 188.71 378.69 191.4 378.69 194.08 378.69 196.77 378.69 199.44 378.69 202.13 378.69 204.81 378.69 207.5 378.69 210.17 378.69 212.86 378.69 215.54 378.69 218.23 378.69 220.9 378.69 223.59 378.69 226.27 378.69 228.95 378.69 231.63 378.69 234.32 378.69 237 378.69 239.68 378.69 242.37 378.69 245.05 378.69 245.05 385.11 242.37 385.11 239.68 385.11 237 385.11 234.32 385.11 231.63 385.11 228.95 385.11 226.27 385.11 223.59 385.11 220.9 385.11 218.23 385.11 215.54 385.11 212.86 385.11 210.17 385.11 207.5 385.11 204.81 385.11 202.13 385.11 199.44 385.11 196.77 385.11 194.08 385.11 191.4 385.11 188.71 385.11 186.04 385.11 183.35 385.11 180.67 385.11 177.99 385.11 175.3 385.11 172.62 385.11 169.94 385.11 167.26 385.11 164.57 385.11 161.89 385.11 159.21 385.11 156.53 385.11 153.84 385.11 151.17 385.11 148.48 385.11 145.8 385.11 143.11 385.11 140.44 385.11 137.75 385.11 135.07 385.11 132.38 385.11 129.71 385.11 127.02 385.11 124.34 385.11 121.66 385.11 118.98 385.11 116.29 385.11 113.61 385.11 113.61 391.53 116.29 391.53 116.29 397.95 118.98 397.95 118.98 404.36 118.98 410.78 118.98 417.2 118.98 423.62 116.29 423.62 116.29 430.04 113.61 430.04 113.61 436.45 113.61 442.88 110.93 442.88 108.24 442.88 105.57 442.88 105.57 436.45 105.57 430.04 108.24 430.04 108.24 423.62 110.93 423.62 110.93 417.2 110.93 410.78 110.93 404.36 108.24 404.36 108.24 397.95 105.57 397.95 105.57 404.36 102.88 404.36 102.88 410.78 100.2 410.78 100.2 417.2 100.2 423.62 100.2 430.04 100.2 436.45 100.2 442.88 102.88 442.88 102.88 449.29 102.88 455.71 100.2 455.71 97.51 455.71 97.51 449.29 94.84 449.29 92.15 449.29 92.15 442.88 92.15 436.45 92.15 430.04 92.15 423.62 92.15 417.2 92.15 410.78 94.84 410.78 94.84 404.36 97.51 404.36 97.51 397.95 100.2 397.95 100.2 391.53 100.2 385.11 97.51 385.11 94.84 385.11 92.15 385.11 89.47 385.11 86.78 385.11 86.78 378.69 89.47 378.69"/>
          <polygon class="cls-6" points="167.26 263.16 167.26 256.74 167.26 250.32 167.26 243.9 167.26 237.48 167.26 231.07 169.94 231.07 169.94 237.48 169.94 243.9 169.94 250.32 169.94 256.74 169.94 263.16 169.94 269.58 167.26 269.58 167.26 263.16"/>
        </g>
        <rect class="cls-27" x="177.99" y="224.64" width="2.68" height="6.43"/>
        <g>
          <rect class="cls-66" x="113.61" y="430.04" width="2.68" height="6.42"/>
          <rect class="cls-66" x="116.29" y="423.62" width="2.68" height="6.42"/>
          <rect class="cls-66" x="108.24" y="417.2" width="2.69" height="6.42"/>
          <rect class="cls-66" x="92.15" y="404.36" width="2.69" height="6.42"/>
          <rect class="cls-66" x="97.51" y="391.53" width="2.69" height="6.42"/>
          <polygon class="cls-66" points="167.26 237.48 167.26 243.9 167.26 250.32 167.26 256.74 167.26 263.16 167.26 269.58 164.57 269.58 164.57 263.16 164.57 256.74 164.57 250.32 164.57 243.9 164.57 237.48 164.57 231.07 167.26 231.07 167.26 237.48"/>
          <polygon class="cls-66" points="245.05 224.64 245.05 231.07 247.73 231.07 250.41 231.07 250.41 237.48 253.1 237.48 255.77 237.48 255.77 243.9 258.46 243.9 258.46 250.32 261.14 250.32 261.14 256.74 263.83 256.74 263.83 263.16 266.5 263.16 269.19 263.16 269.19 269.58 269.19 275.99 271.87 275.99 271.87 282.41 274.56 282.41 274.56 288.83 277.23 288.83 277.23 295.25 277.23 301.67 279.92 301.67 279.92 308.09 282.6 308.09 282.6 314.51 279.92 314.51 279.92 320.92 277.23 320.92 274.56 320.92 271.87 320.92 271.87 327.34 269.19 327.34 266.5 327.34 263.83 327.34 261.14 327.34 258.46 327.34 255.77 327.34 255.77 320.92 253.1 320.92 253.1 314.51 250.41 314.51 250.41 308.09 250.41 301.67 247.73 301.67 245.05 301.67 245.05 295.25 245.05 288.83 245.05 282.41 245.05 275.99 245.05 269.58 245.05 263.16 242.37 263.16 242.37 256.74 242.37 250.32 242.37 243.9 242.37 237.48 242.37 231.07 239.68 231.07 239.68 224.64 242.37 224.64 245.05 224.64"/>
        </g>
        <g>
          <polygon class="cls-35" points="102.88 404.36 105.57 404.36 105.57 397.95 108.24 397.95 108.24 404.36 110.93 404.36 110.93 410.78 110.93 417.2 108.24 417.2 108.24 423.62 108.24 430.04 105.57 430.04 105.57 436.45 105.57 442.88 102.88 442.88 100.2 442.88 100.2 436.45 100.2 430.04 100.2 423.62 100.2 417.2 100.2 410.78 102.88 410.78 102.88 404.36"/>
          <polygon class="cls-35" points="92.15 385.11 94.84 385.11 97.51 385.11 100.2 385.11 100.2 391.53 97.51 391.53 97.51 397.95 97.51 404.36 94.84 404.36 92.15 404.36 92.15 410.78 92.15 417.2 92.15 423.62 92.15 430.04 92.15 436.45 89.47 436.45 86.78 436.45 86.78 430.04 86.78 423.62 86.78 417.2 86.78 410.78 86.78 404.36 86.78 397.95 86.78 391.53 86.78 385.11 89.47 385.11 92.15 385.11"/>
          <polygon class="cls-35" points="118.98 385.11 121.66 385.11 124.34 385.11 127.02 385.11 129.71 385.11 132.38 385.11 135.07 385.11 137.75 385.11 140.44 385.11 143.11 385.11 145.8 385.11 148.48 385.11 151.17 385.11 153.84 385.11 156.53 385.11 159.21 385.11 161.89 385.11 164.57 385.11 167.26 385.11 169.94 385.11 172.62 385.11 175.3 385.11 177.99 385.11 180.67 385.11 183.35 385.11 186.04 385.11 188.71 385.11 191.4 385.11 194.08 385.11 196.77 385.11 199.44 385.11 202.13 385.11 204.81 385.11 207.5 385.11 207.5 391.53 204.81 391.53 202.13 391.53 202.13 397.95 199.44 397.95 196.77 397.95 194.08 397.95 194.08 404.36 191.4 404.36 188.71 404.36 188.71 410.78 186.04 410.78 183.35 410.78 180.67 410.78 177.99 410.78 177.99 417.2 175.3 417.2 172.62 417.2 169.94 417.2 169.94 423.62 167.26 423.62 164.57 423.62 161.89 423.62 159.21 423.62 159.21 430.04 156.53 430.04 153.84 430.04 151.17 430.04 148.48 430.04 145.8 430.04 145.8 436.45 143.11 436.45 140.44 436.45 137.75 436.45 135.07 436.45 132.38 436.45 129.71 436.45 127.02 436.45 124.34 436.45 121.66 436.45 118.98 436.45 116.29 436.45 116.29 430.04 118.98 430.04 118.98 423.62 118.98 417.2 118.98 410.78 118.98 404.36 118.98 397.95 116.29 397.95 116.29 391.53 113.61 391.53 113.61 385.11 116.29 385.11 118.98 385.11"/>
          <polygon class="cls-35" points="89.47 365.85 89.47 359.43 89.47 353.01 89.47 346.6 89.47 340.18 89.47 333.76 89.47 327.34 89.47 320.92 89.47 314.51 89.47 308.09 92.15 308.09 92.15 301.67 92.15 295.25 92.15 288.83 92.15 282.41 92.15 275.99 92.15 269.58 92.15 263.16 92.15 256.74 92.15 250.32 94.84 250.32 94.84 243.9 94.84 237.48 94.84 231.07 97.51 231.07 97.51 224.64 100.2 224.64 102.88 224.64 102.88 218.23 105.57 218.23 108.24 218.23 110.93 218.23 113.61 218.23 116.29 218.23 118.98 218.23 121.66 218.23 124.34 218.23 127.02 218.23 129.71 218.23 132.38 218.23 135.07 218.23 137.75 218.23 140.44 218.23 143.11 218.23 143.11 224.64 145.8 224.64 148.48 224.64 151.17 224.64 151.17 231.07 153.84 231.07 156.53 231.07 159.21 231.07 161.89 231.07 164.57 231.07 164.57 237.48 164.57 243.9 164.57 250.32 164.57 256.74 164.57 263.16 164.57 269.58 167.26 269.58 169.94 269.58 169.94 263.16 169.94 256.74 169.94 250.32 169.94 243.9 169.94 237.48 169.94 231.07 172.62 231.07 175.3 231.07 177.99 231.07 180.67 231.07 183.35 231.07 183.35 224.64 183.35 218.23 186.04 218.23 186.04 224.64 188.71 224.64 188.71 218.23 191.4 218.23 194.08 218.23 196.77 218.23 199.44 218.23 202.13 218.23 204.81 218.23 207.5 218.23 210.17 218.23 212.86 218.23 215.54 218.23 215.54 224.64 218.23 224.64 218.23 231.07 220.9 231.07 220.9 237.48 223.59 237.48 223.59 243.9 223.59 250.32 226.27 250.32 226.27 256.74 226.27 263.16 228.95 263.16 228.95 269.58 228.95 275.99 228.95 282.41 228.95 288.83 228.95 295.25 228.95 301.67 228.95 308.09 228.95 314.51 228.95 320.92 228.95 327.34 228.95 333.76 226.27 333.76 226.27 340.18 226.27 346.6 223.59 346.6 223.59 353.01 223.59 359.43 220.9 359.43 220.9 365.85 218.23 365.85 218.23 372.27 215.54 372.27 215.54 378.69 212.86 378.69 210.17 378.69 207.5 378.69 204.81 378.69 202.13 378.69 199.44 378.69 196.77 378.69 194.08 378.69 191.4 378.69 188.71 378.69 186.04 378.69 183.35 378.69 180.67 378.69 177.99 378.69 175.3 378.69 172.62 378.69 169.94 378.69 167.26 378.69 164.57 378.69 161.89 378.69 159.21 378.69 156.53 378.69 153.84 378.69 151.17 378.69 148.48 378.69 145.8 378.69 143.11 378.69 140.44 378.69 137.75 378.69 135.07 378.69 132.38 378.69 129.71 378.69 127.02 378.69 124.34 378.69 121.66 378.69 118.98 378.69 116.29 378.69 113.61 378.69 110.93 378.69 108.24 378.69 105.57 378.69 102.88 378.69 100.2 378.69 97.51 378.69 94.84 378.69 92.15 378.69 89.47 378.69 86.78 378.69 86.78 372.27 89.47 372.27 89.47 365.85"/>
          <polygon class="cls-35" points="54.6 308.09 54.6 301.67 57.28 301.67 57.28 295.25 57.28 288.83 59.96 288.83 59.96 282.41 59.96 275.99 62.65 275.99 65.33 275.99 65.33 269.58 68.01 269.58 68.01 263.16 70.69 263.16 70.69 256.74 73.38 256.74 73.38 250.32 76.06 250.32 76.06 243.9 78.74 243.9 78.74 237.48 81.42 237.48 84.11 237.48 84.11 231.07 86.78 231.07 89.47 231.07 92.15 231.07 92.15 237.48 89.47 237.48 89.47 243.9 89.47 250.32 89.47 256.74 86.78 256.74 86.78 263.16 86.78 269.58 86.78 275.99 86.78 282.41 86.78 288.83 86.78 295.25 86.78 301.67 84.11 301.67 84.11 308.09 84.11 314.51 81.42 314.51 81.42 320.92 78.74 320.92 78.74 327.34 76.06 327.34 73.38 327.34 70.69 327.34 68.01 327.34 65.33 327.34 62.65 327.34 59.96 327.34 59.96 320.92 57.28 320.92 54.6 320.92 54.6 314.51 51.91 314.51 51.91 308.09 54.6 308.09"/>
        </g>
        <g>
          <path class="cls-33" d="M108.24,442.88h5.37v-6.43h32.19v-6.42h13.41v-6.42h10.73v-6.42h8.05v-6.42h10.72v-6.42h5.37v-6.42h8.05v-6.42h5.37v-6.42h37.55v57.77h-2.68v6.41H102.88v-6.41h5.36Z"/>
          <polygon class="cls-33" points="89.47 436.45 92.15 436.45 92.15 442.88 92.15 449.29 89.47 449.29 86.78 449.29 86.78 442.88 86.78 436.45 89.47 436.45"/>
          <polygon class="cls-33" points="239.68 378.69 237 378.69 234.32 378.69 231.63 378.69 228.95 378.69 226.27 378.69 223.59 378.69 220.9 378.69 218.23 378.69 215.54 378.69 215.54 372.27 218.23 372.27 218.23 365.85 220.9 365.85 220.9 359.43 223.59 359.43 223.59 353.01 223.59 346.6 226.27 346.6 226.27 340.18 226.27 333.76 228.95 333.76 228.95 327.34 228.95 320.92 228.95 314.51 228.95 308.09 228.95 301.67 228.95 295.25 228.95 288.83 228.95 282.41 228.95 275.99 228.95 269.58 228.95 263.16 226.27 263.16 226.27 256.74 226.27 250.32 223.59 250.32 223.59 243.9 223.59 237.48 220.9 237.48 220.9 231.07 218.23 231.07 218.23 224.64 215.54 224.64 215.54 218.23 218.23 218.23 220.9 218.23 223.59 218.23 226.27 218.23 228.95 218.23 231.63 218.23 231.63 224.64 234.32 224.64 237 224.64 237 231.07 237 237.48 237 243.9 237 250.32 239.68 250.32 239.68 256.74 239.68 263.16 239.68 269.58 239.68 275.99 242.37 275.99 242.37 282.41 242.37 288.83 242.37 295.25 242.37 301.67 242.37 308.09 242.37 314.51 242.37 320.92 242.37 327.34 242.37 333.76 242.37 340.18 242.37 346.6 242.37 353.01 242.37 359.43 242.37 365.85 242.37 372.27 245.05 372.27 245.05 378.69 242.37 378.69 239.68 378.69"/>
        </g>
        <rect class="cls-7" x="143.11" y="211.81" width="2.69" height="6.42"/>
        <rect class="cls-18" x="226.27" y="545.57" width="2.68" height="6.42"/>
        <g>
          <polygon class="cls-39" points="102.88 128.37 105.57 128.37 108.24 128.37 110.93 128.37 113.61 128.37 116.29 128.37 118.98 128.37 121.66 128.37 124.34 128.37 127.02 128.37 127.02 134.79 124.34 134.79 124.34 134.79 121.66 134.79 118.98 134.79 118.98 141.2 116.29 141.2 113.61 141.2 110.93 141.2 108.24 141.2 105.57 141.2 105.57 134.79 102.88 134.79 100.2 134.79 100.2 128.37 102.88 128.37"/>
          <polygon class="cls-39" points="148.48 198.97 151.17 198.97 153.84 198.97 156.53 198.97 159.21 198.97 161.89 198.97 164.57 198.97 167.26 198.97 169.94 198.97 172.62 198.97 175.3 198.97 177.99 198.97 180.67 198.97 183.35 198.97 186.04 198.97 188.71 198.97 188.71 205.39 188.71 211.81 188.71 218.23 186.04 218.23 183.35 218.23 180.67 218.23 180.67 211.81 177.99 211.81 175.3 211.81 172.62 211.81 169.94 211.81 167.26 211.81 167.26 205.39 164.57 205.39 161.89 205.39 159.21 205.39 156.53 205.39 153.84 205.39 151.17 205.39 148.48 205.39 145.8 205.39 143.11 205.39 143.11 198.97 145.8 198.97 148.48 198.97"/>
          <polygon class="cls-39" points="186.04 141.2 186.04 134.79 186.04 134.79 183.35 134.79 180.67 134.79 180.67 134.79 177.99 134.79 177.99 128.37 180.67 128.37 180.67 128.37 183.35 128.37 186.04 128.37 188.71 128.37 191.4 128.37 194.08 128.37 196.77 128.37 199.44 128.37 202.13 128.37 204.81 128.37 204.81 134.79 202.13 134.79 199.44 134.79 199.44 141.2 196.77 141.2 194.08 141.2 191.4 141.2 188.71 141.2 186.04 141.2"/>
          <rect class="cls-39" x="204.81" y="128.37" width="2.69" height="6.42"/>
        </g>
        <g>
          <polygon class="cls-38" points="124.34 115.53 127.02 115.53 129.71 115.53 132.38 115.53 135.07 115.53 135.07 121.95 135.07 121.95 135.07 128.37 132.38 128.37 132.38 128.37 129.71 128.37 127.02 128.37 124.34 128.37 121.66 128.37 121.66 121.95 121.66 115.53 124.34 115.53"/>
          <polygon class="cls-38" points="172.62 115.53 175.3 115.53 177.99 115.53 180.67 115.53 180.67 121.95 180.67 128.37 177.99 128.37 175.3 128.37 172.62 128.37 169.94 128.37 167.26 128.37 167.26 121.95 167.26 115.53 169.94 115.53 172.62 115.53"/>
        </g>
        <rect class="cls-11" x="226.27" y="109.11" width="2.68" height="6.42"/>
        <rect class="cls-20" x="242.37" y="109.11" width="2.68" height="6.42"/>
        <polygon class="cls-24" points="237 115.53 239.68 115.53 242.37 115.53 245.05 115.53 245.05 109.11 247.73 109.11 250.41 109.11 250.41 115.53 250.41 121.95 250.41 128.37 247.73 128.37 245.05 128.37 245.05 134.79 242.37 134.79 239.68 134.79 237 134.79 237 128.37 234.32 128.37 234.32 121.95 234.32 115.53 237 115.53"/>
        <rect class="cls-29" x="105.57" y="83.44" width="2.68" height="6.42"/>
        <g>
          <polygon class="cls-43" points="65.33 564.82 65.33 558.41 68.01 558.41 70.69 558.41 73.38 558.41 76.06 558.41 76.06 551.99 78.74 551.99 81.42 551.99 84.11 551.99 86.78 551.99 89.47 551.99 92.15 551.99 94.84 551.99 97.51 551.99 100.2 551.99 102.88 551.99 105.57 551.99 108.24 551.99 110.93 551.99 113.61 551.99 116.29 551.99 118.98 551.99 121.66 551.99 124.34 551.99 127.02 551.99 129.71 551.99 132.38 551.99 132.38 558.41 135.07 558.41 137.75 558.41 140.44 558.41 140.44 564.82 143.11 564.82 145.8 564.82 145.8 571.24 143.11 571.24 140.44 571.24 137.75 571.24 135.07 571.24 132.38 571.24 129.71 571.24 127.02 571.24 124.34 571.24 121.66 571.24 118.98 571.24 116.29 571.24 113.61 571.24 110.93 571.24 108.24 571.24 105.57 571.24 102.88 571.24 100.2 571.24 97.51 571.24 94.84 571.24 92.15 571.24 89.47 571.24 86.78 571.24 84.11 571.24 81.42 571.24 78.74 571.24 76.06 571.24 73.38 571.24 70.69 571.24 68.01 571.24 65.33 571.24 62.65 571.24 62.65 564.82 65.33 564.82"/>
          <polygon class="cls-43" points="161.89 558.41 164.57 558.41 167.26 558.41 169.94 558.41 169.94 551.99 172.62 551.99 175.3 551.99 177.99 551.99 180.67 551.99 183.35 551.99 186.04 551.99 188.71 551.99 191.4 551.99 194.08 551.99 196.77 551.99 199.44 551.99 202.13 551.99 204.81 551.99 207.5 551.99 210.17 551.99 212.86 551.99 215.54 551.99 218.23 551.99 220.9 551.99 223.59 551.99 226.27 551.99 228.95 551.99 228.95 558.41 231.63 558.41 234.32 558.41 237 558.41 237 564.82 239.68 564.82 242.37 564.82 242.37 571.24 239.68 571.24 237 571.24 234.32 571.24 231.63 571.24 228.95 571.24 226.27 571.24 223.59 571.24 220.9 571.24 218.23 571.24 215.54 571.24 212.86 571.24 210.17 571.24 207.5 571.24 204.81 571.24 202.13 571.24 199.44 571.24 196.77 571.24 194.08 571.24 191.4 571.24 188.71 571.24 186.04 571.24 183.35 571.24 180.67 571.24 177.99 571.24 175.3 571.24 172.62 571.24 169.94 571.24 167.26 571.24 164.57 571.24 161.89 571.24 159.21 571.24 159.21 564.82 161.89 564.82 161.89 558.41"/>
        </g>
        <polygon class="cls-14" points="258.46 378.69 261.14 378.69 263.83 378.69 263.83 372.27 263.83 365.85 263.83 359.43 261.14 359.43 261.14 353.01 261.14 346.6 258.46 346.6 258.46 340.18 258.46 333.76 261.14 333.76 263.83 333.76 266.5 333.76 266.5 327.34 269.19 327.34 271.87 327.34 274.56 327.34 277.23 327.34 279.92 327.34 279.92 320.92 282.6 320.92 282.6 327.34 285.28 327.34 285.28 333.76 285.28 340.18 285.28 346.6 285.28 353.01 285.28 359.43 282.6 359.43 282.6 365.85 282.6 372.27 282.6 378.69 279.92 378.69 279.92 385.11 282.6 385.11 282.6 391.53 282.6 397.95 279.92 397.95 279.92 404.36 277.23 404.36 274.56 404.36 271.87 404.36 271.87 410.78 269.19 410.78 266.5 410.78 263.83 410.78 261.14 410.78 258.46 410.78 258.46 404.36 261.14 404.36 261.14 397.95 261.14 391.53 258.46 391.53 258.46 397.95 255.77 397.95 255.77 391.53 255.77 385.11 258.46 385.11 258.46 378.69"/>
        <polygon class="cls-14" points="51.91 327.34 54.6 327.34 57.28 327.34 59.96 327.34 62.65 327.34 62.65 333.76 65.33 333.76 68.01 333.76 70.69 333.76 73.38 333.76 76.06 333.76 76.06 340.18 73.38 340.18 73.38 346.6 73.38 353.01 73.38 359.43 70.69 359.43 70.69 365.85 70.69 372.27 70.69 378.69 73.38 378.69 73.38 385.11 76.06 385.11 76.06 391.53 78.74 391.53 78.74 397.95 76.06 397.95 73.38 397.95 73.38 404.36 73.38 410.78 70.69 410.78 68.01 410.78 65.33 410.78 62.65 410.78 59.96 410.78 57.28 410.78 57.28 404.36 54.6 404.36 54.6 397.95 51.91 397.95 51.91 391.53 51.91 385.11 51.91 378.69 51.91 372.27 51.91 365.85 49.24 365.85 49.24 359.43 49.24 353.01 49.24 346.6 49.24 340.18 49.24 333.76 49.24 327.34 51.91 327.34"/>
        <polygon class="cls-14" points="148.48 205.39 151.17 205.39 153.84 205.39 156.53 205.39 159.21 205.39 161.89 205.39 164.57 205.39 167.26 205.39 167.26 211.81 169.94 211.81 172.62 211.81 175.3 211.81 177.99 211.81 180.67 211.81 180.67 218.23 183.35 218.23 183.35 224.64 180.67 224.64 177.99 224.64 175.3 224.64 175.3 231.07 172.62 231.07 169.94 231.07 167.26 231.07 164.57 231.07 161.89 231.07 161.89 224.64 159.21 224.64 156.53 224.64 153.84 224.64 151.17 224.64 148.48 224.64 148.48 218.23 145.8 218.23 145.8 211.81 143.11 211.81 143.11 205.39 145.8 205.39 148.48 205.39"/>
        <path class="cls-14" d="M97.51,121.95h-2.68v19.25h2.68v19.26h2.69v6.42h2.68v6.42h2.69v6.42h8.04v6.42h8.05v6.42h18.77v6.42h48.28v-6.42h18.78v-6.42h8.04v-6.42h8.05v-6.42h5.36v-12.84h2.68v-12.84h-2.68v-6.42h8.05v6.42h8.05v-6.42h8.05v-6.42h2.68v-6.42h2.69v-12.83h2.68v-6.42h-2.68v-12.83h-8.05v6.41h-2.68v6.42h2.68v19.25h-5.37v6.42h-8.05v-6.42h-2.68v-12.83h-8.05v-6.42h-2.68v-12.83h-2.69v-6.42h-2.68v-6.42h-5.37v-6.42h-5.37v-6.43h-18.78v6.43h-10.72v6.42h-13.42v6.42h-16.09v-6.42h-18.78v6.42h-24.14v-6.42h-5.37v12.84h-2.69v25.67Zm83.16,12.84h-2.68v-6.42h-10.73v-12.83h13.41v6.42h0v6.42h26.83v6.42h-8.05v6.42h-13.41v-6.42h-5.37Zm-32.19,25.67h32.19v6.42h-2.68v6.42h-5.37v6.42h-18.78v-6.42h-2.68v-6.42h-2.68v-6.42Zm-2.68-19.26h5.37v6.42h8.04v6.42h-13.41v-12.84Zm-45.6-12.84h21.46v-6.42h0v-6.42h13.41v12.83h-8.05v6.42h-8.05v6.42h-13.41v-6.42h-5.37v-6.42Z"/>
        <polygon class="cls-58" points="89.47 64.19 89.47 57.76 92.15 57.76 92.15 51.35 94.84 51.35 97.51 51.35 97.51 44.93 100.2 44.93 100.2 38.52 102.88 38.52 105.57 38.52 108.24 38.52 108.24 32.09 110.93 32.09 113.61 32.09 116.29 32.09 116.29 25.67 118.98 25.67 121.66 25.67 124.34 25.67 124.34 19.25 127.02 19.25 129.71 19.25 132.38 19.25 135.07 19.25 137.75 19.25 137.75 12.83 140.44 12.83 143.11 12.83 145.8 12.83 148.48 12.83 151.17 12.83 153.84 12.83 156.53 12.83 159.21 12.83 159.21 6.42 161.89 6.42 164.57 6.42 167.26 6.42 169.94 6.42 172.62 6.42 175.3 6.42 177.99 6.42 177.99 12.83 180.67 12.83 183.35 12.83 186.04 12.83 188.71 12.83 191.4 12.83 194.08 12.83 196.77 12.83 196.77 19.25 199.44 19.25 202.13 19.25 204.81 19.25 207.5 19.25 210.17 19.25 212.86 19.25 212.86 12.83 215.54 12.83 215.54 6.42 218.23 6.42 220.9 6.42 220.9 12.83 223.59 12.83 223.59 19.25 226.27 19.25 228.95 19.25 231.63 19.25 231.63 12.83 234.32 12.83 237 12.83 237 19.25 237 25.67 239.68 25.67 239.68 32.09 242.37 32.09 242.37 38.52 245.05 38.52 245.05 44.93 245.05 51.35 247.73 51.35 247.73 57.76 250.41 57.76 250.41 64.19 250.41 70.6 250.41 77.02 250.41 83.44 250.41 89.86 247.73 89.86 247.73 96.28 245.05 96.28 245.05 102.69 242.37 102.69 242.37 109.11 239.68 109.11 237 109.11 237 115.53 234.32 115.53 231.63 115.53 231.63 109.11 228.95 109.11 228.95 102.69 226.27 102.69 226.27 96.28 223.59 96.28 223.59 89.86 223.59 83.44 220.9 83.44 220.9 77.02 218.23 77.02 215.54 77.02 215.54 70.6 212.86 70.6 210.17 70.6 207.5 70.6 207.5 64.19 204.81 64.19 202.13 64.19 199.44 64.19 196.77 64.19 194.08 64.19 191.4 64.19 188.71 64.19 188.71 70.6 186.04 70.6 183.35 70.6 180.67 70.6 180.67 77.02 177.99 77.02 175.3 77.02 172.62 77.02 169.94 77.02 169.94 83.44 167.26 83.44 164.57 83.44 161.89 83.44 159.21 83.44 159.21 77.02 156.53 77.02 153.84 77.02 151.17 77.02 148.48 77.02 145.8 77.02 143.11 77.02 140.44 77.02 137.75 77.02 137.75 83.44 135.07 83.44 132.38 83.44 129.71 83.44 127.02 83.44 124.34 83.44 121.66 83.44 118.98 83.44 116.29 83.44 113.61 83.44 110.93 83.44 108.24 83.44 108.24 77.02 110.93 77.02 113.61 77.02 113.61 70.6 110.93 70.6 108.24 70.6 105.57 70.6 102.88 70.6 100.2 70.6 100.2 77.02 97.51 77.02 94.84 77.02 92.15 77.02 89.47 77.02 86.78 77.02 86.78 70.6 86.78 64.19 89.47 64.19"/>
        <polygon class="cls-3" points="151.17 160.46 153.84 160.46 156.53 160.46 159.21 160.46 161.89 160.46 164.57 160.46 167.26 160.46 169.94 160.46 172.62 160.46 175.3 160.46 177.99 160.46 180.67 160.46 180.67 166.88 177.99 166.88 177.99 173.3 175.3 173.3 172.62 173.3 172.62 179.72 169.94 179.72 169.94 179.72 167.26 179.72 164.57 179.72 161.89 179.72 159.21 179.72 156.53 179.72 153.84 179.72 153.84 173.3 153.84 173.3 151.17 173.3 151.17 166.88 148.48 166.88 148.48 160.46 151.17 160.46"/>
        <rect class="cls-38" x="171.28" y="101.47" width="21.96" height="5.61"/>
        <rect class="cls-38" x="113.11" y="101.47" width="21.96" height="5.61"/>
        <g>
          <polygon class="cls-61" points="285.28 314.51 285.28 320.92 282.6 320.92 282.6 320.92 279.92 320.92 279.92 314.51 282.6 314.51 282.6 314.51 285.28 314.51"/>
          <rect class="cls-61" x="102.88" y="449.29" width="2.69" height="6.42"/>
          <polygon class="cls-61" points="274.07 320.92 279.92 320.92 279.92 327.34 274.07 327.34 268.23 327.34 268.23 333.76 266.5 333.76 265.55 333.76 263.83 333.76 263.83 327.34 265.55 327.34 266.5 327.34 268.23 327.34 268.23 320.92 274.07 320.92"/>
          <polygon class="cls-61" points="253.1 320.92 255.77 320.92 255.77 327.34 258.46 327.34 261.14 327.34 263.83 327.34 263.83 333.76 261.14 333.76 258.46 333.76 258.46 340.18 258.46 346.6 261.14 346.6 261.14 353.01 261.14 359.43 263.83 359.43 263.83 365.85 263.83 372.27 263.83 378.69 261.14 378.69 258.46 378.69 258.46 372.27 258.46 365.85 258.46 359.43 258.46 353.01 255.77 353.01 255.77 346.6 255.77 340.18 255.77 333.76 253.1 333.76 253.1 327.34 250.41 327.34 250.41 320.92 250.41 314.51 253.1 314.51 253.1 320.92"/>
          <polygon class="cls-61" points="46.55 314.51 46.55 308.09 49.24 308.09 49.24 301.67 51.91 301.67 51.91 295.25 51.91 288.83 54.6 288.83 54.6 282.41 57.28 282.41 57.28 275.99 59.96 275.99 59.96 282.41 59.96 288.83 57.28 288.83 57.28 295.25 57.28 301.67 54.6 301.67 54.6 308.09 51.91 308.09 51.91 314.51 54.6 314.51 54.6 320.92 57.28 320.92 59.96 320.92 59.96 327.34 57.28 327.34 54.6 327.34 51.91 327.34 49.24 327.34 49.24 333.76 49.24 340.18 49.24 346.6 49.24 353.01 49.24 359.43 49.24 365.85 51.91 365.85 51.91 372.27 51.91 378.69 51.91 385.11 51.91 391.53 51.91 397.95 54.6 397.95 54.6 404.36 57.28 404.36 57.28 410.78 54.6 410.78 51.91 410.78 51.91 404.36 49.24 404.36 49.24 397.95 46.55 397.95 46.55 391.53 46.55 385.11 49.24 385.11 49.24 378.69 46.55 378.69 46.55 372.27 46.55 365.85 46.55 359.43 46.55 353.01 46.55 346.6 46.55 340.18 46.55 333.76 46.55 327.34 46.55 320.92 49.24 320.92 49.24 320.92 46.55 320.92 46.55 314.51 49.24 314.51 49.24 314.51 46.55 314.51"/>
          <polygon class="cls-61" points="285.28 308.09 285.28 314.51 282.6 314.51 282.6 308.09 282.6 301.67 285.28 301.67 285.28 308.09"/>
          <polygon class="cls-61" points="62.65 269.58 62.65 263.16 65.33 263.16 65.33 256.74 68.01 256.74 68.01 250.32 70.69 250.32 70.69 243.9 73.38 243.9 73.38 237.48 76.06 237.48 78.74 237.48 78.74 243.9 76.06 243.9 76.06 250.32 73.38 250.32 73.38 256.74 70.69 256.74 70.69 263.16 68.01 263.16 68.01 269.58 65.33 269.58 65.33 275.99 62.65 275.99 59.96 275.99 59.96 269.58 62.65 269.58"/>
          <polygon class="cls-61" points="271.87 269.58 274.56 269.58 274.56 275.99 277.23 275.99 277.23 282.41 279.92 282.41 279.92 288.83 282.6 288.83 282.6 295.25 282.6 301.67 279.92 301.67 279.92 295.25 277.23 295.25 277.23 288.83 274.56 288.83 274.56 282.41 271.87 282.41 271.87 275.99 269.19 275.99 269.19 269.58 269.19 263.16 271.87 263.16 271.87 269.58"/>
          <rect class="cls-61" x="266.5" y="256.74" width="2.69" height="6.42"/>
          <rect class="cls-61" x="263.83" y="250.32" width="2.68" height="6.42"/>
          <polygon class="cls-61" points="263.83 243.9 263.83 250.32 261.14 250.32 258.46 250.32 258.46 243.9 261.14 243.9 263.83 243.9"/>
          <rect class="cls-61" x="255.77" y="237.48" width="2.69" height="6.42"/>
          <polygon class="cls-61" points="81.42 231.07 84.11 231.07 84.11 237.48 81.42 237.48 78.74 237.48 78.74 231.07 81.42 231.07"/>
          <polygon class="cls-61" points="255.77 231.07 255.77 237.48 253.1 237.48 250.41 237.48 250.41 231.07 253.1 231.07 255.77 231.07"/>
          <polygon class="cls-61" points="86.79 224.64 89.47 224.64 92.15 224.64 92.15 218.23 94.84 218.23 97.51 218.23 100.2 218.23 102.88 218.23 102.88 224.64 100.2 224.64 97.51 224.64 97.51 231.07 94.84 231.07 94.84 237.48 94.84 243.9 94.84 250.32 92.15 250.32 92.15 256.74 92.15 263.16 92.15 269.58 92.15 275.99 92.15 282.41 92.15 288.83 92.15 295.25 92.15 301.67 92.15 308.09 89.47 308.09 89.47 314.51 89.47 320.92 89.47 327.34 89.47 333.76 89.47 340.18 86.79 340.18 86.79 346.6 89.47 346.6 89.47 353.01 89.47 359.43 89.47 365.85 89.47 372.27 86.79 372.27 86.79 378.69 86.79 385.11 86.79 391.53 86.79 397.95 86.79 404.36 86.79 410.78 86.79 417.2 86.79 423.62 86.79 430.04 86.79 436.45 86.79 442.88 86.79 449.29 89.47 449.29 92.15 449.29 94.84 449.29 97.51 449.29 97.51 455.71 94.84 455.71 92.15 455.71 89.47 455.71 86.79 455.71 86.79 462.13 86.79 468.55 86.79 474.96 86.79 481.39 86.79 487.8 86.79 494.22 86.79 500.64 86.79 507.06 86.79 513.48 86.79 519.9 86.79 526.32 86.79 532.73 86.79 539.15 86.79 545.57 89.47 545.57 92.15 545.57 94.84 545.57 97.51 545.57 100.2 545.57 102.88 545.57 105.57 545.57 108.24 545.57 110.93 545.57 113.61 545.57 116.29 545.57 118.98 545.57 118.98 551.99 116.29 551.99 113.61 551.99 110.93 551.99 108.24 551.99 105.57 551.99 102.88 551.99 100.2 551.99 97.51 551.99 94.84 551.99 92.15 551.99 89.47 551.99 86.79 551.99 84.11 551.99 81.42 551.99 78.74 551.99 76.06 551.99 76.06 545.57 78.74 545.57 81.42 545.57 84.11 545.57 84.11 539.15 84.11 532.73 84.11 526.32 84.11 519.9 84.11 513.48 84.11 507.06 84.11 500.64 84.11 494.22 84.11 487.8 84.11 481.39 84.11 474.96 84.11 468.55 84.11 462.13 84.11 455.71 84.11 449.29 84.11 442.88 84.11 436.45 84.11 430.04 84.11 423.62 84.11 417.2 84.11 410.78 84.11 404.36 84.11 397.95 84.11 391.53 84.11 385.11 84.11 378.69 84.11 372.27 84.11 365.85 84.11 359.43 84.11 353.01 84.11 346.6 84.11 340.18 84.11 333.76 84.11 327.34 81.42 327.34 81.42 333.76 78.74 333.76 78.74 340.18 78.74 346.6 78.74 353.01 76.06 353.01 76.06 359.43 73.38 359.43 73.38 353.01 73.38 346.6 73.38 340.18 76.06 340.18 76.06 333.76 73.38 333.76 70.69 333.76 68.01 333.76 65.33 333.76 62.65 333.76 62.65 327.34 65.33 327.34 68.01 327.34 70.69 327.34 73.38 327.34 76.06 327.34 78.74 327.34 78.74 320.92 81.42 320.92 81.42 314.51 84.11 314.51 84.11 308.09 84.11 301.67 86.79 301.67 86.79 295.25 86.79 288.83 86.79 282.41 86.79 275.99 86.79 269.58 86.79 263.16 86.79 256.74 89.47 256.74 89.47 250.32 89.47 243.9 92.15 243.9 92.15 237.48 92.15 231.07 89.47 231.07 86.79 231.07 84.11 231.07 84.11 224.64 86.79 224.64"/>
          <polygon class="cls-61" points="156.53 224.64 159.21 224.64 161.89 224.64 161.89 231.07 159.21 231.07 156.53 231.07 153.84 231.07 151.17 231.07 151.17 224.64 153.84 224.64 156.53 224.64"/>
          <rect class="cls-61" x="175.3" y="224.64" width="2.69" height="6.43"/>
          <rect class="cls-61" x="180.67" y="224.64" width="2.68" height="6.43"/>
          <polygon class="cls-61" points="250.41 224.64 250.41 231.07 247.73 231.07 245.05 231.07 245.05 224.64 247.73 224.64 250.41 224.64"/>
          <polygon class="cls-61" points="143.11 224.64 143.11 218.23 145.8 218.23 148.48 218.23 148.48 224.64 145.8 224.64 143.11 224.64"/>
          <rect class="cls-61" x="186.04" y="218.23" width="2.68" height="6.42"/>
          <polygon class="cls-61" points="239.68 263.16 239.68 263.16 239.68 256.74 239.68 250.32 239.68 243.9 237 243.9 237 237.48 237 231.07 237 224.64 234.32 224.64 231.63 224.64 231.63 218.23 234.32 218.23 237 218.23 239.68 218.23 242.37 218.23 245.05 218.23 245.05 224.64 242.37 224.64 239.68 224.64 239.68 231.07 242.37 231.07 242.37 237.48 242.37 243.9 242.37 250.32 242.37 256.74 242.37 263.16 242.37 269.58 239.68 269.58 239.68 263.16"/>
          <polygon class="cls-61" points="137.75 218.23 135.07 218.23 132.38 218.23 129.71 218.23 127.02 218.23 124.34 218.23 121.66 218.23 118.98 218.23 116.29 218.23 113.61 218.23 113.61 211.81 116.29 211.81 118.98 211.81 121.66 211.81 124.34 211.81 127.02 211.81 129.71 211.81 132.38 211.81 135.07 211.81 137.75 211.81 140.44 211.81 140.44 205.39 143.11 205.39 143.11 211.81 143.11 218.23 140.44 218.23 137.75 218.23"/>
          <rect class="cls-61" x="140.44" y="198.97" width="2.68" height="6.42"/>
          <path class="cls-61" d="M65.33,564.82v-6.42h-5.36v6.42h-2.68v12.84h93.89v-6.42h-2.68v-6.42h2.68v6.42h2.68v6.42h93.89v-243.91h-2.68v-25.67h2.68v6.42h2.68v-12.84h-5.37v-32.09h-2.68v83.44h2.68v96.28H105.57v6.42h42.92v102.7h-8.05v6.42h5.36v6.42H62.65v-6.42h2.68Zm88.52-109.11h26.83v89.86h-5.37v6.42h50.96v-6.42h-42.92v-89.86h61.69v109.11h-2.68v6.42h-83.15v-6.42h-5.37v-109.11Z"/>
          <rect class="cls-61" x="159.21" y="558.41" width="2.68" height="6.42"/>
          <polygon class="cls-61" points="237 564.82 237 558.41 239.68 558.41 242.37 558.41 242.37 564.82 239.68 564.82 237 564.82"/>
          <polygon class="cls-61" points="73.38 558.41 70.69 558.41 68.01 558.41 65.33 558.41 65.33 551.99 68.01 551.99 70.69 551.99 73.38 551.99 76.06 551.99 76.06 558.41 73.38 558.41"/>
          <polygon class="cls-61" points="135.07 558.41 132.38 558.41 132.38 551.99 135.07 551.99 137.75 551.99 140.44 551.99 140.44 558.41 137.75 558.41 135.07 558.41"/>
          <polygon class="cls-61" points="169.94 551.99 169.94 558.41 167.26 558.41 164.57 558.41 164.57 551.99 167.26 551.99 169.94 551.99"/>
          <polygon class="cls-61" points="231.63 558.41 228.95 558.41 228.95 551.99 231.63 551.99 234.32 551.99 237 551.99 237 558.41 234.32 558.41 231.63 558.41"/>
          <polygon class="cls-61" points="127.02 551.99 124.34 551.99 121.66 551.99 121.66 545.57 124.34 545.57 127.02 545.57 129.71 545.57 132.38 545.57 132.38 551.99 129.71 551.99 127.02 551.99"/>
          <polygon class="cls-61" points="228.95 160.46 231.63 160.46 231.63 154.05 231.63 147.62 228.95 147.62 228.95 141.2 231.63 141.2 232.98 141.2 234.32 141.2 237 141.2 241.69 141.2 250.41 141.2 250.41 147.62 241.69 147.62 237 147.62 237 154.05 237 160.46 234.32 160.46 234.32 166.88 231.63 166.88 231.63 173.3 228.95 173.3 228.95 166.88 228.95 160.46"/>
          <polygon class="cls-61" points="78.74 410.78 78.74 417.2 76.06 417.2 73.38 417.2 70.69 417.2 68.01 417.2 65.33 417.2 62.65 417.2 59.96 417.2 59.96 410.78 62.65 410.78 65.33 410.78 68.01 410.78 70.69 410.78 73.38 410.78 73.38 404.36 73.38 397.95 76.06 397.95 78.74 397.95 78.74 404.36 78.74 410.78"/>
          <polygon class="cls-61" points="263.83 410.78 266.5 410.78 269.19 410.78 269.19 417.2 266.5 417.2 263.83 417.2 261.14 417.2 258.46 417.2 258.46 410.78 261.14 410.78 263.83 410.78"/>
          <rect class="cls-61" x="255.77" y="404.36" width="2.69" height="6.42"/>
          <polygon class="cls-61" points="277.23 410.78 274.56 410.78 271.87 410.78 271.87 404.36 274.56 404.36 277.23 404.36 279.92 404.36 279.92 410.78 277.23 410.78"/>
          <rect class="cls-61" x="279.92" y="397.95" width="2.68" height="6.42"/>
          <polygon class="cls-61" points="258.46 391.53 261.14 391.53 261.14 397.95 261.14 404.36 258.46 404.36 258.46 397.95 258.46 391.53"/>
          <polygon class="cls-61" points="78.74 378.69 78.74 385.11 81.42 385.11 81.42 391.53 81.42 397.95 78.74 397.95 78.74 391.53 76.06 391.53 76.06 385.11 73.38 385.11 73.38 378.69 76.06 378.69 78.74 378.69"/>
          <polygon class="cls-61" points="255.77 397.95 253.1 397.95 253.1 391.53 253.1 385.11 255.77 385.11 255.77 391.53 255.77 397.95"/>
          <polygon class="cls-61" points="285.28 372.27 285.28 378.69 285.28 385.11 285.28 391.53 285.28 397.95 282.6 397.95 282.6 391.53 282.6 385.11 279.92 385.11 279.92 378.69 282.6 378.69 282.6 372.27 282.6 365.85 282.6 359.43 285.28 359.43 285.28 365.85 285.28 372.27"/>
          <rect class="cls-61" x="255.77" y="378.69" width="2.69" height="6.42"/>
          <polygon class="cls-61" points="73.38 372.27 73.38 378.69 70.69 378.69 70.69 372.27 70.69 365.85 70.69 359.43 73.38 359.43 73.38 365.85 73.38 372.27"/>
          <polygon class="cls-61" points="287.96 333.76 287.96 340.18 287.96 346.6 287.96 353.01 287.96 359.43 285.28 359.43 285.28 353.01 285.28 346.6 285.28 340.18 285.28 333.76 285.28 327.34 287.96 327.34 287.96 333.76"/>
          <rect class="cls-61" x="282.6" y="320.92" width="2.68" height="6.42"/>
          <polygon class="cls-61" points="135.07 198.97 132.38 198.97 129.71 198.97 127.02 198.97 127.02 192.55 129.71 192.55 132.38 192.55 135.07 192.55 137.75 192.55 140.44 192.55 140.44 198.97 137.75 198.97 135.07 198.97"/>
          <polygon class="cls-61" points="188.71 205.39 188.71 198.97 188.71 192.55 191.4 192.55 194.08 192.55 196.77 192.55 199.44 192.55 202.13 192.55 202.13 198.97 199.44 198.97 196.77 198.97 194.08 198.97 194.08 205.39 194.08 211.81 196.77 211.81 199.44 211.81 202.13 211.81 204.81 211.81 207.5 211.81 210.17 211.81 212.86 211.81 215.54 211.81 218.23 211.81 220.9 211.81 223.59 211.81 223.59 218.23 220.9 218.23 218.23 218.23 215.54 218.23 212.86 218.23 210.17 218.23 207.5 218.23 204.81 218.23 202.13 218.23 199.44 218.23 196.77 218.23 194.08 218.23 191.4 218.23 188.71 218.23 188.71 211.81 188.71 205.39"/>
          <polygon class="cls-61" points="113.61 186.14 116.29 186.14 118.98 186.14 121.66 186.14 121.66 192.55 118.98 192.55 116.29 192.55 113.61 192.55 113.61 186.14"/>
          <polygon class="cls-61" points="212.86 192.55 210.17 192.55 207.5 192.55 207.5 186.14 210.17 186.14 212.86 186.14 215.54 186.14 215.54 192.55 212.86 192.55"/>
          <polygon class="cls-61" points="108.24 186.14 105.57 186.14 105.57 179.72 108.24 179.72 110.93 179.72 113.61 179.72 113.61 186.14 110.93 186.14 108.24 186.14"/>
          <polygon class="cls-61" points="220.9 186.14 218.23 186.14 215.54 186.14 215.54 179.72 218.23 179.72 220.9 179.72 223.59 179.72 223.59 186.14 220.9 186.14"/>
          <polygon class="cls-61" points="226.27 179.72 223.59 179.72 223.59 173.3 226.27 173.3 228.95 173.3 228.95 179.72 226.27 179.72"/>
          <polygon class="cls-61" points="100.2 166.88 102.88 166.88 102.88 173.3 105.57 173.3 105.57 179.72 102.88 179.72 100.2 179.72 100.2 173.3 97.51 173.3 97.51 166.88 97.51 160.46 100.2 160.46 100.2 166.88"/>
          <polygon class="cls-61" points="148.48 154.05 145.8 154.05 145.8 147.62 145.8 141.2 148.48 141.2 151.17 141.2 151.17 147.62 153.84 147.62 156.53 147.62 159.21 147.62 159.21 154.05 156.53 154.05 153.84 154.05 151.17 154.05 148.48 154.05"/>
          <polygon class="cls-61" points="258.46 141.2 255.77 141.2 253.1 141.2 253.1 134.79 255.77 134.79 255.77 128.37 258.46 128.37 258.46 134.79 258.46 141.2"/>
          <polygon class="cls-61" points="97.51 109.11 97.51 115.53 97.51 121.95 94.84 121.95 94.84 128.37 94.84 134.79 94.84 141.2 97.51 141.2 97.51 147.62 97.51 154.05 97.51 160.46 94.84 160.46 94.84 154.05 92.15 154.05 92.15 147.62 92.15 141.2 92.15 134.79 92.15 128.37 92.15 121.95 92.15 115.53 92.15 109.11 92.15 102.69 94.84 102.69 94.84 96.28 97.51 96.28 97.51 102.69 97.51 109.11"/>
          <polygon class="cls-61" points="258.46 128.37 258.46 121.95 258.46 115.53 261.14 115.53 261.14 109.11 258.46 109.11 258.46 102.69 258.46 96.28 255.77 96.28 253.1 96.28 250.41 96.28 250.41 102.69 247.73 102.69 247.73 109.11 245.05 109.11 242.37 109.11 242.37 102.69 245.05 102.69 245.05 96.28 247.73 96.28 247.73 89.86 250.41 89.86 250.41 83.44 250.41 77.02 250.41 70.6 250.41 64.19 250.41 57.76 247.73 57.76 247.73 51.35 245.05 51.35 245.05 44.93 245.05 38.52 247.73 38.52 247.73 44.93 250.41 44.93 250.41 51.35 253.1 51.35 253.1 57.76 255.77 57.76 255.77 64.19 255.77 70.6 255.77 77.02 255.77 83.44 255.77 89.86 258.46 89.86 261.14 89.86 261.14 96.28 263.83 96.28 263.83 102.69 263.83 109.11 263.83 115.53 263.83 121.95 263.83 128.37 261.14 128.37 258.46 128.37"/>
          <polygon class="cls-61" points="100.2 96.28 97.51 96.28 97.51 89.86 97.51 83.44 100.2 83.44 100.2 89.86 100.2 96.28"/>
          <polygon class="cls-61" points="186.04 77.02 183.35 77.02 177.99 77.02 177.99 70.6 183.35 70.6 186.04 70.6 188.71 70.6 188.71 77.02 186.04 77.02"/>
          <polygon class="cls-61" points="202.13 70.6 199.44 70.6 196.77 70.6 194.08 70.6 191.4 70.6 188.71 70.6 188.71 64.19 191.4 64.19 194.08 64.19 196.77 64.19 199.44 64.19 202.13 64.19 204.81 64.19 207.5 64.19 207.5 70.6 204.81 70.6 202.13 70.6"/>
          <polygon class="cls-61" points="102.88 83.44 100.2 83.44 100.2 77.02 86.79 77.02 84.11 77.02 82.76 77.02 82.76 70.6 81.42 70.6 81.42 64.19 84.11 64.19 84.11 57.76 86.79 57.76 86.79 51.35 89.47 51.35 92.15 51.35 92.15 57.76 89.47 57.76 89.47 64.19 86.79 64.19 86.79 70.6 100.2 70.6 102.88 70.6 105.57 70.6 108.24 70.6 110.93 70.6 113.61 70.6 113.61 77.02 110.93 77.02 108.24 77.02 108.24 83.44 105.57 83.44 102.88 83.44"/>
          <polygon class="cls-61" points="102.88 32.09 105.57 32.09 108.24 32.09 108.24 38.52 105.57 38.52 102.88 38.52 100.2 38.52 100.2 32.09 102.88 32.09"/>
          <polygon class="cls-61" points="239.68 115.53 237 115.53 231.63 115.53 228.95 115.53 228.95 109.11 231.63 109.11 237 109.11 239.68 109.11 241.02 109.11 242.37 109.11 242.37 115.53 239.68 115.53"/>
          <polygon class="cls-61" points="223.59 109.11 223.59 102.69 223.59 96.28 226.27 96.28 226.27 102.69 228.95 102.69 228.95 109.11 226.27 109.11 223.59 109.11"/>
          <polygon class="cls-61" points="127.02 89.86 124.34 89.86 121.66 89.86 118.98 89.86 116.29 89.86 113.61 89.86 110.93 89.86 108.24 89.86 108.24 83.44 110.93 83.44 113.61 83.44 116.29 83.44 118.98 83.44 121.66 83.44 124.34 83.44 127.02 83.44 129.71 83.44 129.71 89.86 127.02 89.86"/>
          <polygon class="cls-61" points="161.89 89.86 159.21 89.86 156.53 89.86 153.84 89.86 151.17 89.86 148.48 89.86 148.48 83.44 145.8 83.44 143.11 83.44 140.44 83.44 129.71 83.44 129.71 77.02 140.44 77.02 143.11 77.02 145.8 77.02 148.48 77.02 151.17 77.02 153.84 77.02 156.53 77.02 159.21 77.02 159.21 83.44 161.89 83.44 164.57 83.44 164.57 89.86 161.89 89.86"/>
          <polygon class="cls-61" points="175.3 83.44 172.62 83.44 164.57 83.44 164.57 77.02 172.62 77.02 175.3 77.02 177.99 77.02 177.99 83.44 175.3 83.44"/>
          <polygon class="cls-61" points="220.9 89.86 218.23 89.86 218.23 83.44 215.54 83.44 212.86 83.44 212.86 77.02 210.17 77.02 207.5 77.02 207.5 70.6 210.17 70.6 212.86 70.6 215.54 70.6 215.54 77.02 218.23 77.02 220.9 77.02 220.9 83.44 223.59 83.44 223.59 89.86 223.59 96.28 220.9 96.28 220.9 89.86"/>
          <polygon class="cls-61" points="94.84 44.93 94.84 38.52 97.51 38.52 100.2 38.52 100.2 44.93 97.51 44.93 97.51 51.35 94.84 51.35 92.15 51.35 92.15 44.93 94.84 44.93"/>
          <rect class="cls-61" x="242.37" y="32.09" width="2.68" height="6.43"/>
          <polygon class="cls-61" points="110.93 25.67 113.61 25.67 116.29 25.67 116.29 32.09 113.61 32.09 110.93 32.09 108.24 32.09 108.24 25.67 110.93 25.67"/>
          <polygon class="cls-61" points="118.98 25.67 118.98 19.25 121.66 19.25 124.34 19.25 124.34 25.67 121.66 25.67 118.98 25.67"/>
          <polygon class="cls-61" points="132.38 19.25 129.71 19.25 127.02 19.25 127.02 12.83 129.71 12.83 132.38 12.83 135.07 12.83 137.75 12.83 137.75 19.25 135.07 19.25 132.38 19.25"/>
          <polygon class="cls-61" points="215.54 12.83 212.86 12.83 212.86 19.25 210.17 19.25 207.5 19.25 204.81 19.25 202.13 19.25 199.44 19.25 196.77 19.25 196.77 12.83 199.44 12.83 202.13 12.83 204.81 12.83 207.5 12.83 210.17 12.83 210.17 6.42 207.5 6.42 207.5 0 210.17 0 212.86 0 215.54 0 218.23 0 218.23 6.42 215.54 6.42 215.54 12.83"/>
          <polygon class="cls-61" points="226.27 19.25 223.59 19.25 223.59 12.83 226.27 12.83 228.95 12.83 231.63 12.83 231.63 19.25 228.95 19.25 226.27 19.25"/>
          <rect class="cls-61" x="220.9" y="6.42" width="2.69" height="6.42"/>
          <polygon class="cls-61" points="239.68 25.67 237 25.67 237 19.25 237 12.83 234.32 12.83 234.32 6.42 237 6.42 239.68 6.42 242.37 6.42 242.37 12.83 242.37 19.25 242.37 25.67 242.37 32.09 239.68 32.09 239.68 25.67"/>
          <polygon class="cls-61" points="188.71 12.83 186.04 12.83 183.35 12.83 180.67 12.83 177.99 12.83 159.21 12.83 158.04 12.83 156.53 12.83 153.84 12.83 151.17 12.83 148.48 12.83 145.8 12.83 143.11 12.83 140.44 12.83 140.44 6.42 143.11 6.42 145.8 6.42 148.48 6.42 151.17 6.42 153.84 6.42 156.53 6.42 158.04 6.42 159.21 6.42 177.99 6.42 180.67 6.42 183.35 6.42 186.04 6.42 188.71 6.42 191.4 6.42 194.08 6.42 194.08 12.83 191.4 12.83 188.71 12.83"/>
        </g>
        <g>
          <polygon class="cls-23" points="25.23 314.22 20.24 312.08 21.42 309.31 26.42 311.46 25.23 314.22"/>
          <rect class="cls-10" x="26.82" y="311.2" width="3.01" height="5.44" transform="translate(-271.28 216.02) rotate(-66.75)"/>
          <rect class="cls-12" x="31.82" y="313.35" width="3" height="5.44" transform="translate(-270.23 221.92) rotate(-66.75)"/>
          <rect class="cls-4" x="36.82" y="315.49" width="3.01" height="5.44" transform="translate(-269.09 227.49) rotate(-66.69)"/>
          <rect class="cls-67" x="41.81" y="317.64" width="3.01" height="5.44" transform="translate(-268.06 233.46) rotate(-66.7)"/>
          <rect class="cls-62" x="46.81" y="319.79" width="3.01" height="5.44" transform="translate(-267.08 239.6) rotate(-66.75)"/>
          <rect class="cls-9" x="51.81" y="321.94" width="3.01" height="5.44" transform="translate(-266.01 245.41) rotate(-66.74)"/>
          <rect class="cls-55" x="56.81" y="324.09" width="3.01" height="5.44" transform="translate(-264.92 251.12) rotate(-66.7)"/>
          <rect class="cls-15" x="18.01" y="304.13" width="3.01" height="5.44" transform="translate(-270.12 203.66) rotate(-66.75)"/>
          <polygon class="cls-15" points="26.42 311.46 21.42 309.31 22.61 306.55 27.61 308.69 26.42 311.46"/>
          <rect class="cls-15" x="28.01" y="308.43" width="3.01" height="5.44" transform="translate(-267.99 215.35) rotate(-66.73)"/>
          <rect class="cls-15" x="33" y="310.58" width="3.02" height="5.44" transform="translate(-266.94 221.23) rotate(-66.73)"/>
          <rect class="cls-15" x="38" y="312.73" width="3.01" height="5.44" transform="translate(-265.92 227.24) rotate(-66.75)"/>
          <rect class="cls-15" x="43" y="314.88" width="3.01" height="5.44" transform="translate(-264.87 233.13) rotate(-66.75)"/>
          <rect class="cls-15" x="48" y="317.03" width="3.01" height="5.44" transform="translate(-263.82 239.01) rotate(-66.75)"/>
          <rect class="cls-15" x="53" y="319.18" width="3.01" height="5.44" transform="translate(-262.71 244.69) rotate(-66.71)"/>
          <rect class="cls-15" x="58" y="321.33" width="3.01" height="5.44" transform="translate(-261.66 250.55) rotate(-66.7)"/>
          <rect class="cls-15" x="63" y="323.48" width="3.01" height="5.44" transform="translate(-260.65 256.59) rotate(-66.73)"/>
          <polygon class="cls-15" points="71.4 330.8 66.41 328.66 67.6 325.9 72.59 328.04 71.4 330.8"/>
          <rect class="cls-15" x="72.99" y="327.78" width="3.01" height="5.44" transform="translate(-258.48 267.99) rotate(-66.66)"/>
          <rect class="cls-15" x="77.99" y="329.93" width="3.01" height="5.44" transform="translate(-257.52 274.37) rotate(-66.75)"/>
          <rect class="cls-15" x="82.99" y="332.08" width="3.01" height="5.44" transform="translate(-256.47 280.28) rotate(-66.75)"/>
          <rect class="cls-15" x="87.99" y="334.23" width="3.01" height="5.44" transform="translate(-255.42 286.19) rotate(-66.75)"/>
          <polygon class="cls-15" points="96.39 341.55 91.4 339.4 92.59 336.63 97.58 338.79 96.39 341.55"/>
          <rect class="cls-15" x="97.98" y="338.53" width="3.01" height="5.44" transform="translate(-253.3 297.83) rotate(-66.73)"/>
          <rect class="cls-23" x="102.98" y="340.67" width="3.01" height="5.44" transform="translate(-252.24 303.56) rotate(-66.7)"/>
          <rect class="cls-52" x="107.98" y="342.83" width="3.01" height="5.44" transform="translate(-251.19 309.48) rotate(-66.71)"/>
          <rect class="cls-36" x="112.98" y="344.98" width="3.01" height="5.44" transform="translate(-250.17 315.64) rotate(-66.75)"/>
          <rect class="cls-22" x="117.98" y="347.13" width="3" height="5.44" transform="translate(-249.12 321.52) rotate(-66.75)"/>
          <rect class="cls-46" x="122.98" y="349.28" width="3" height="5.44" transform="translate(-248.07 327.42) rotate(-66.75)"/>
          <polygon class="cls-62" points="131.38 356.61 126.39 354.45 127.57 351.69 132.57 353.84 131.38 356.61"/>
          <rect class="cls-59" x="132.97" y="353.57" width="3.01" height="5.44" transform="translate(-245.97 339.2) rotate(-66.75)"/>
          <rect class="cls-34" x="137.97" y="355.72" width="3.01" height="5.44" transform="translate(-244.91 344.97) rotate(-66.73)"/>
          <rect class="cls-15" x="14.2" y="299.22" width="3.01" height="5.44" transform="translate(-267.91 197.19) rotate(-66.75)"/>
          <rect class="cls-15" x="19.2" y="301.37" width="3.01" height="5.44" transform="translate(-266.78 202.84) rotate(-66.7)"/>
          <rect class="cls-15" x="24.2" y="303.52" width="3.01" height="5.44" transform="translate(-265.82 209) rotate(-66.76)"/>
          <rect class="cls-15" x="29.2" y="305.66" width="3.01" height="5.44" transform="translate(-264.76 214.86) rotate(-66.75)"/>
          <rect class="cls-15" x="34.2" y="307.82" width="3.01" height="5.44" transform="translate(-263.68 220.66) rotate(-66.73)"/>
          <rect class="cls-15" x="39.2" y="309.97" width="3" height="5.44" transform="translate(-262.59 226.41) rotate(-66.71)"/>
          <polygon class="cls-15" points="47.6 317.29 42.61 315.14 43.79 312.38 48.79 314.53 47.6 317.29"/>
          <rect class="cls-15" x="49.19" y="314.27" width="3.01" height="5.44" transform="translate(-260.56 238.43) rotate(-66.75)"/>
          <rect class="cls-15" x="54.19" y="316.41" width="3.01" height="5.44" transform="translate(-259.51 244.33) rotate(-66.75)"/>
          <rect class="cls-15" x="59.19" y="318.56" width="3.01" height="5.44" transform="translate(-258.4 249.97) rotate(-66.7)"/>
          <rect class="cls-15" x="174.14" y="368.01" width="3.02" height="5.44" transform="translate(-234.31 385.64) rotate(-66.73)"/>
          <polygon class="cls-15" points="182.55 375.33 177.55 373.19 178.75 370.42 183.74 372.57 182.55 375.33"/>
          <rect class="cls-15" x="184.14" y="372.31" width="3.01" height="5.44" transform="translate(-232.21 397.55) rotate(-66.75)"/>
          <rect class="cls-12" x="189.14" y="374.45" width="3.01" height="5.44" transform="translate(-231.15 403.49) rotate(-66.76)"/>
          <rect class="cls-13" x="10.39" y="294.3" width="3.01" height="5.44" transform="translate(-265.67 190.62) rotate(-66.73)"/>
          <rect class="cls-15" x="15.39" y="296.45" width="3.01" height="5.44" transform="translate(-264.65 196.6) rotate(-66.75)"/>
          <rect class="cls-15" x="20.39" y="298.6" width="3.01" height="5.44" transform="translate(-263.6 202.49) rotate(-66.75)"/>
          <rect class="cls-15" x="25.39" y="300.75" width="3.01" height="5.44" transform="translate(-262.48 208.19) rotate(-66.71)"/>
          <rect class="cls-15" x="30.39" y="302.9" width="3.01" height="5.44" transform="translate(-261.5 214.28) rotate(-66.75)"/>
          <rect class="cls-15" x="35.39" y="305.05" width="3.01" height="5.44" transform="translate(-260.35 219.85) rotate(-66.69)"/>
          <rect class="cls-68" x="210.32" y="380.29" width="3.01" height="5.44" transform="translate(-223.75 425.95) rotate(-66.69)"/>
          <polygon class="cls-53" points="233.72 394.07 228.73 391.91 229.92 389.15 234.92 391.3 233.72 394.07"/>
          <rect class="cls-40" x="235.31" y="391.04" width="3.02" height="5.44" transform="translate(-218.47 455.76) rotate(-66.73)"/>
          <rect class="cls-34" x="285.29" y="412.54" width="3.01" height="5.44" transform="translate(-207.95 514.84) rotate(-66.75)"/>
          <polygon class="cls-59" points="10 294.56 5 292.42 6.19 289.65 11.19 291.8 10 294.56"/>
          <rect class="cls-15" x="11.59" y="291.54" width="3.01" height="5.44" transform="translate(-262.32 189.83) rotate(-66.69)"/>
          <rect class="cls-15" x="16.58" y="293.69" width="3.01" height="5.44" transform="translate(-261.36 195.93) rotate(-66.73)"/>
          <rect class="cls-15" x="21.58" y="295.84" width="3.01" height="5.44" transform="translate(-260.27 201.71) rotate(-66.71)"/>
          <polygon class="cls-15" points="11.19 291.8 6.19 289.65 7.38 286.89 12.38 289.03 11.19 291.8"/>
          <rect class="cls-15" x="12.77" y="288.77" width="3.01" height="5.44" transform="translate(-259.14 189.46) rotate(-66.73)"/>
          <rect class="cls-25" x="182.71" y="361.86" width="3.01" height="5.44" transform="translate(-223.48 389.91) rotate(-66.75)"/>
          <rect class="cls-8" x="213.89" y="372" width="3.01" height="5.44" transform="translate(-213.95 424.41) rotate(-66.71)"/>
          <rect class="cls-59" x="10.15" y="281.09" width="3.01" height="5.44" transform="translate(-253.64 182.3) rotate(-66.71)"/>
          <g>
            <rect class="cls-42" x="191.52" y="368.93" width="3" height="5.44" transform="translate(-224.66 402) rotate(-66.71)"/>
            <polygon class="cls-42" points="218.49 374.41 219.68 371.64 224.67 373.79 229.67 375.95 234.67 378.09 233.48 380.86 232.29 383.62 231.1 386.38 229.92 389.15 228.73 391.91 223.73 389.77 218.73 387.62 219.92 384.85 214.92 382.71 216.11 379.94 211.12 377.79 212.3 375.02 217.3 377.18 218.49 374.41"/>
            <polygon class="cls-42" points="249.67 384.55 254.67 386.69 259.66 388.84 258.47 391.6 257.28 394.37 256.09 397.14 254.91 399.9 253.72 402.67 248.72 400.51 243.72 398.37 238.72 396.22 239.91 393.45 234.92 391.3 236.1 388.54 237.29 385.77 238.48 383.01 239.67 380.24 244.67 382.39 249.67 384.55"/>
            <polygon class="cls-42" points="274.66 395.29 279.66 397.44 278.47 400.2 277.28 402.97 276.09 405.73 274.9 408.5 273.71 411.26 268.71 409.12 263.71 406.96 258.72 404.82 259.9 402.05 261.09 399.29 262.28 396.52 263.47 393.76 264.66 390.99 269.66 393.14 274.66 395.29"/>
          </g>
          <rect class="cls-34" x="295.05" y="403.63" width="3.01" height="5.44" transform="translate(-193.86 518.41) rotate(-66.75)"/>
          <polygon class="cls-48" points="193.49 363.66 194.69 360.89 199.69 363.05 200.87 360.28 205.87 362.43 210.87 364.58 209.68 367.35 208.49 370.11 207.3 372.88 206.12 375.64 211.12 377.79 209.92 380.55 208.73 383.32 207.54 386.08 206.35 388.85 205.17 391.61 203.98 394.38 202.79 397.14 201.6 399.91 206.6 402.06 205.41 404.82 204.22 407.59 209.21 409.74 208.03 412.5 206.84 415.27 205.65 418.03 204.46 420.8 203.27 423.56 202.08 426.33 200.89 429.09 199.7 431.86 194.71 429.7 189.71 427.56 190.9 424.79 185.9 422.64 187.09 419.88 188.27 417.11 189.47 414.35 190.66 411.58 191.84 408.81 193.03 406.05 194.22 403.28 195.41 400.52 196.6 397.76 197.79 394.99 198.98 392.23 200.17 389.46 201.35 386.7 202.55 383.93 197.55 381.79 198.74 379.02 193.74 376.87 194.93 374.1 196.12 371.34 191.12 369.19 192.31 366.42 187.31 364.27 188.5 361.51 193.49 363.66"/>
          <rect class="cls-55" x="286.24" y="396.56" width="3.01" height="5.44" transform="translate(-192.73 505.9) rotate(-66.73)"/>
          <polygon class="cls-60" points="27.13 282.28 22.13 280.12 23.32 277.36 28.32 279.51 27.13 282.28"/>
          <rect class="cls-2" x="88.69" y="305.04" width="3.01" height="5.44" transform="translate(-228.18 269.14) rotate(-66.75)"/>
          <rect class="cls-31" x="148.67" y="330.84" width="3.01" height="5.44" transform="translate(-215.58 339.87) rotate(-66.75)"/>
          <rect class="cls-36" x="153.67" y="332.99" width="3.01" height="5.44" transform="translate(-214.54 345.48) rotate(-66.71)"/>
          <polygon class="cls-46" points="162.08 340.32 157.08 338.17 158.27 335.4 163.27 337.56 162.08 340.32"/>
          <rect class="cls-9" x="163.67" y="337.29" width="3.01" height="5.44" transform="translate(-212.43 357.58) rotate(-66.75)"/>
          <rect class="cls-44" x="29.91" y="276.48" width="3.01" height="5.44" transform="translate(-237.52 197.84) rotate(-66.75)"/>
          <g>
            <polygon class="cls-30" points="13.56 286.27 14.75 283.5 15.94 280.74 20.94 282.89 22.13 280.12 27.13 282.28 25.94 285.04 24.75 287.8 29.75 289.96 34.75 292.11 39.74 294.25 44.74 296.41 49.74 298.55 48.55 301.32 53.55 303.47 58.55 305.61 63.54 307.77 68.54 309.92 73.54 312.07 78.54 314.21 83.54 316.37 88.54 318.52 93.53 320.67 98.53 322.82 103.53 324.96 108.53 327.11 113.53 329.27 118.53 331.42 123.52 333.56 128.52 335.72 133.52 337.87 138.52 340.02 143.52 342.16 148.51 344.31 153.51 346.46 158.51 348.61 163.51 350.77 168.5 352.91 173.5 355.06 178.5 357.21 183.5 359.36 182.31 362.13 181.12 364.89 186.12 367.04 184.93 369.8 189.93 371.95 188.74 374.72 183.74 372.57 178.74 370.42 173.74 368.27 172.55 371.04 167.56 368.89 162.56 366.74 157.56 364.59 152.56 362.44 147.57 360.29 142.57 358.13 137.57 355.98 132.57 353.84 127.57 351.69 122.58 349.54 117.58 347.39 112.58 345.24 107.58 343.09 102.58 340.94 97.58 338.79 92.59 336.63 87.59 334.49 82.59 332.34 77.59 330.19 72.59 328.04 67.6 325.9 62.6 323.74 63.79 320.98 58.79 318.83 53.79 316.68 48.79 314.53 43.79 312.38 38.79 310.23 39.98 307.46 34.99 305.31 29.99 303.16 24.99 301.02 26.18 298.25 21.18 296.1 16.18 293.95 17.38 291.18 12.38 289.03 7.38 286.89 8.56 284.12 13.56 286.27"/>
            <rect class="cls-30" x="191.28" y="355.72" width="3.01" height="5.44" transform="translate(-212.65 394.06) rotate(-66.75)"/>
            <polygon class="cls-30" points="197.07 355.37 202.06 357.52 200.87 360.28 195.87 358.13 197.07 355.37"/>
            <rect class="cls-30" x="28.71" y="279.25" width="3.01" height="5.44" transform="translate(-240.82 198.57) rotate(-66.78)"/>
            <polygon class="cls-30" points="137.09 329.57 132.09 327.42 127.09 325.27 122.09 323.12 117.09 320.97 112.09 318.82 107.1 316.67 102.1 314.52 97.1 312.37 92.1 310.22 93.29 307.46 98.29 309.61 103.29 311.76 108.29 313.9 113.28 316.06 118.28 318.21 123.28 320.36 128.28 322.5 133.28 324.65 138.28 326.8 143.28 328.95 148.27 331.11 147.08 333.87 142.08 331.72 137.09 329.57"/>
            <polygon class="cls-30" points="39.5 281.05 44.5 283.19 49.5 285.35 54.49 287.49 59.49 289.65 64.49 291.79 69.49 293.94 74.49 296.09 73.3 298.86 68.3 296.71 63.3 294.56 58.3 292.41 53.3 290.26 48.31 288.11 43.31 285.96 38.31 283.81 33.32 281.66 34.5 278.9 39.5 281.05"/>
          </g>
          <polygon class="cls-45" points="78.29 301.01 73.3 298.86 74.49 296.09 79.49 298.25 78.29 301.01"/>
          <polygon class="cls-44" points="83.29 303.16 78.29 301.01 79.49 298.25 84.49 300.4 83.29 303.16"/>
          <rect class="cls-16" x="84.88" y="300.13" width="3.01" height="5.44" transform="translate(-225.97 262.68) rotate(-66.75)"/>
          <rect class="cls-59" x="89.88" y="302.28" width="3.01" height="5.44" transform="translate(-224.89 268.31) rotate(-66.7)"/>
          <g>
            <polygon class="cls-65" points="212.54 388.23 217.54 390.38 216.35 393.15 215.16 395.91 213.97 398.68 212.78 401.44 211.6 404.21 210.4 406.97 209.21 409.74 204.22 407.59 205.41 404.82 206.6 402.06 201.6 399.91 202.79 397.14 203.98 394.38 205.17 391.61 206.35 388.85 207.54 386.08 208.73 383.32 213.73 385.47 212.54 388.23"/>
            <polygon class="cls-65" points="294.65 403.89 293.46 406.66 292.27 409.42 291.08 412.19 289.89 414.95 284.9 412.8 283.71 415.57 278.71 413.41 279.89 410.65 281.09 407.88 282.27 405.12 283.47 402.36 284.66 399.59 289.65 401.74 294.65 403.89"/>
            <polygon class="cls-65" points="212.06 361.82 213.25 359.05 214.44 356.29 215.63 353.52 216.81 350.76 218.01 347.99 219.2 345.23 220.38 342.46 221.57 339.7 222.76 336.93 223.95 334.17 225.14 331.4 226.33 328.64 227.52 325.87 232.52 328.02 233.7 325.26 238.7 327.4 243.7 329.56 242.51 332.32 241.32 335.09 240.13 337.85 238.95 340.62 237.76 343.38 236.57 346.15 235.38 348.91 234.19 351.67 233 354.44 231.81 357.2 230.62 359.97 229.43 362.73 228.24 365.5 227.06 368.26 225.87 371.03 220.87 368.88 219.68 371.64 214.68 369.49 213.49 372.26 208.49 370.11 209.68 367.35 210.87 364.58 205.87 362.43 207.06 359.66 212.06 361.82"/>
          </g>
          <polygon class="cls-19" points="238.7 327.4 233.7 325.26 234.9 322.5 239.89 324.64 238.7 327.4"/>
          <rect class="cls-51" x="240.29" y="324.38" width="3.01" height="5.44" transform="translate(-154.25 419.86) rotate(-66.71)"/>
          <g>
            <path class="cls-61" d="M200.89,429.09l-1.18,2.76,5,2.15,1.19-2.76,1.19-2.77,1.19-2.76,1.18-2.76,1.19-2.76,1.19-2.76,1.19-2.76,1.19-2.76,1.19-2.76,1.19-2.77,1.18-2.76,1.19-2.77,1.19-2.76,1.19-2.77,1.19-2.76,5,2.15,5,2.15,5,2.15,5,2.15,5,2.15,5,2.15,5,2.15,5,2.15,5,2.15,5,2.15,5,2.15,5,2.15,5,2.15,1.19-2.76-5-2.15-5-2.16,1.19-2.76,1.19-2.77,1.19-2.77,1.19-2.76,1.19-2.76,1.19-2.77,5,2.15-1.19,2.76,5,2.15,1.19-2.76,1.19-2.77-5-2.15-5-2.15-5-2.15-5-2.15-5-2.15-4.99-2.14-5-2.15-5-2.15-5-2.15-5-2.15-5-2.15-4.99-2.15-4.99-2.15,1.18-2.77,1.19-2.76,1.19-2.77,1.19-2.76,1.19-2.77,1.19-2.76,1.19-2.77,1.18-2.76,1.19-2.77,1.19-2.76,1.19-2.76,1.19-2.76,1.19-2.76,1.19-2.76,1.19-2.77-5-2.15-1.19,2.76-1.19,2.77-1.19,2.76-1.19,2.76-1.19,2.76-1.19,2.77-1.19,2.77-1.18,2.76-1.19,2.76-1.19,2.76-1.19,2.77-1.19,2.76-1.19,2.76-1.19,2.77-1.19,2.76-1.19,2.77-5-2.15-1.19,2.76,5,2.15,5,2.15,5,2.15-1.19,2.76-1.19,2.77-1.19,2.76-1.19,2.77,5,2.15,1.19-2.76,1.19-2.77,1.19-2.76,1.19-2.76,5,2.15,5,2.16,5,2.15,5,2.15-1.19,2.76-1.19,2.77-1.19,2.77-1.19,2.76-1.19,2.76-5-2.15-5-2.15-5-2.15-5-2.15-5-2.16-5-2.15-5-2.15,1.19-2.76-5-2.15-1.19,2.76-1.19,2.76,5,2.15-1.19,2.76-1.19,2.76-1.19,2.77-1.19,2.76-1.19,2.77-1.19,2.76-1.19,2.76-1.19,2.77-1.19,2.76-1.19,2.76-1.19,2.76-1.19,2.76-1.19,2.77-1.19,2.76Zm57.83-24.28l1.19-2.76,1.19-2.77,1.19-2.76,1.19-2.76,1.19-2.76,5,2.15,5,2.15,5,2.15-1.19,2.76-1.19,2.76-1.19,2.77-1.19,2.77-1.19,2.76-5-2.15-5-2.15-5-2.15Z"/>
            <polygon class="cls-61" points="16.42 307.16 21.42 309.31 20.24 312.08 25.23 314.22 30.23 316.37 35.23 318.52 40.23 320.67 45.22 322.82 50.22 324.97 55.22 327.12 60.22 329.27 61.41 326.51 66.41 328.66 71.4 330.8 76.4 332.96 81.4 335.11 86.4 337.26 91.4 339.4 96.39 341.55 101.39 343.7 106.39 345.85 111.39 348.01 116.39 350.15 121.39 352.3 126.39 354.45 131.38 356.61 136.38 358.75 141.38 360.9 142.57 358.13 147.57 360.29 152.56 362.44 157.56 364.59 162.56 366.74 167.56 368.89 172.55 371.04 177.55 373.19 182.55 375.33 187.55 377.48 192.55 379.63 193.74 376.87 198.74 379.02 197.55 381.79 202.55 383.93 201.35 386.7 200.17 389.46 198.98 392.23 197.79 394.99 196.6 397.76 195.41 400.52 194.22 403.28 193.03 406.05 191.84 408.81 190.66 411.58 189.47 414.35 188.27 417.11 187.09 419.88 185.9 422.64 190.9 424.79 189.71 427.56 194.71 429.7 199.7 431.86 198.51 434.62 193.52 432.47 188.52 430.32 183.52 428.17 184.71 425.4 179.71 423.25 180.9 420.49 182.09 417.73 183.27 414.96 184.47 412.2 185.66 409.44 186.85 406.67 188.04 403.91 189.23 401.14 190.41 398.37 191.6 395.61 192.79 392.84 193.98 390.08 195.17 387.31 190.17 385.16 185.17 383.02 180.18 380.86 180.18 380.86 175.18 378.72 170.18 376.57 165.18 374.42 160.18 372.26 155.18 370.11 150.19 367.97 145.19 365.82 140.19 363.67 135.19 361.52 130.19 359.37 125.19 357.22 120.2 355.07 115.2 352.92 110.2 350.77 105.2 348.62 100.2 346.47 95.2 344.32 90.21 342.17 85.21 340.02 80.21 337.87 75.21 335.72 70.21 333.57 69.03 336.33 64.03 334.19 59.03 332.04 54.03 329.89 49.03 327.74 44.04 325.59 39.04 323.44 34.04 321.29 29.04 319.14 24.04 316.99 19.04 314.84 14.05 312.69 15.24 309.92 10.24 307.78 11.42 305.01 12.61 302.25 17.61 304.39 16.42 307.16"/>
            <rect class="cls-61" x="9.2" y="297.07" width="3.01" height="5.44" transform="translate(-268.97 191.3) rotate(-66.75)"/>
            <rect class="cls-61" x="5.39" y="292.15" width="3.01" height="5.44" transform="translate(-266.66 184.59) rotate(-66.7)"/>
            <rect class="cls-61" x="190.33" y="371.69" width="3.01" height="5.44" transform="translate(-227.9 402.88) rotate(-66.75)"/>
            <rect class="cls-61" x="211.51" y="377.53" width="3.01" height="5.44" transform="translate(-220.49 425.39) rotate(-66.69)"/>
            <polygon class="cls-61" points="291.08 412.19 292.27 409.42 293.46 406.66 298.46 408.8 297.27 411.57 296.08 414.33 294.89 417.09 293.7 419.86 288.7 417.72 289.89 414.95 291.08 412.19"/>
            <polygon class="cls-61" points="191.12 369.19 189.93 371.95 184.93 369.8 186.12 367.04 187.31 364.27 192.31 366.42 191.12 369.19"/>
            <polygon class="cls-61" points="211.12 377.79 206.12 375.64 207.3 372.88 208.49 370.11 213.49 372.26 212.3 375.02 211.12 377.79"/>
            <rect class="cls-61" x="183.9" y="359.1" width="3.01" height="5.44" transform="translate(-220.22 389.3) rotate(-66.74)"/>
            <polygon class="cls-61" points="9.75 281.36 8.56 284.12 7.38 286.89 6.19 289.65 5 292.42 0 290.27 1.19 287.5 2.38 284.74 3.56 281.97 4.76 279.2 9.75 281.36"/>
            <rect class="cls-61" x="190.08" y="358.48" width="3.02" height="5.44" transform="translate(-215.93 394.33) rotate(-66.71)"/>
            <rect class="cls-61" x="215.08" y="369.23" width="3.01" height="5.44" transform="translate(-210.66 424.07) rotate(-66.74)"/>
            <rect class="cls-61" x="11.34" y="278.33" width="3.01" height="5.44" transform="translate(-250.38 181.72) rotate(-66.71)"/>
            <polygon class="cls-61" points="194.69 360.89 195.87 358.13 200.87 360.28 199.69 363.05 194.69 360.89"/>
            <polygon class="cls-61" points="18.32 275.21 23.32 277.36 22.13 280.12 20.94 282.89 15.94 280.74 17.13 277.97 18.32 275.21"/>
            <rect class="cls-61" x="24.9" y="274.33" width="3.01" height="5.44" transform="translate(-238.56 191.93) rotate(-66.75)"/>
            <polygon class="cls-61" points="35.69 276.13 40.69 278.28 45.69 280.43 50.69 282.58 55.69 284.73 60.68 286.88 65.68 289.03 70.68 291.18 75.68 293.33 80.68 295.48 85.67 297.63 84.49 300.4 79.49 298.25 74.49 296.09 69.49 293.94 64.49 291.79 59.49 289.65 54.49 287.49 49.5 285.35 44.5 283.19 39.5 281.05 34.5 278.9 29.5 276.75 30.69 273.98 35.69 276.13"/>
            <polygon class="cls-61" points="234.9 322.5 233.7 325.26 232.52 328.02 227.52 325.87 226.33 328.64 225.14 331.4 223.95 334.17 222.76 336.93 221.57 339.7 220.38 342.46 219.2 345.23 218.01 347.99 216.81 350.76 215.63 353.52 214.44 356.29 213.25 359.05 212.06 361.82 207.06 359.66 205.87 362.43 200.87 360.28 202.06 357.52 197.07 355.37 192.07 353.22 187.07 351.07 182.07 348.92 177.07 346.77 172.07 344.62 167.08 342.47 168.27 339.71 163.27 337.56 158.27 335.4 153.27 333.25 148.27 331.11 143.28 328.95 138.28 326.8 133.28 324.65 128.28 322.5 123.28 320.36 118.28 318.21 113.28 316.06 108.29 313.9 103.29 311.76 98.29 309.61 93.29 307.46 94.48 304.69 99.48 306.84 104.48 309 109.48 311.14 114.47 313.29 119.47 315.44 124.47 317.59 129.47 319.74 134.47 321.89 139.47 324.04 144.46 326.19 149.46 328.34 154.46 330.49 159.46 332.64 164.46 334.79 169.46 336.94 174.46 339.08 179.45 341.23 184.44 343.39 189.44 345.54 194.44 347.69 199.44 349.84 204.44 351.99 209.44 354.13 210.63 351.37 211.82 348.61 213.01 345.84 214.2 343.07 215.38 340.31 216.58 337.55 217.76 334.78 218.95 332.02 220.14 329.25 221.33 326.49 222.52 323.72 223.71 320.96 228.71 323.11 229.9 320.34 231.09 317.58 236.09 319.73 241.09 321.87 246.08 324.03 244.89 326.79 239.89 324.64 234.9 322.5"/>
          </g>
          <polygon class="cls-3" points="38.31 283.81 43.31 285.96 48.31 288.11 53.3 290.26 58.3 292.41 63.3 294.56 68.3 296.71 73.3 298.86 78.29 301.01 83.29 303.16 88.29 305.3 87.1 308.07 92.1 310.22 97.1 312.37 102.1 314.52 107.1 316.67 112.09 318.82 117.09 320.97 122.09 323.12 127.09 325.27 132.09 327.42 137.09 329.57 142.08 331.72 147.08 333.87 152.08 336.02 157.08 338.17 162.08 340.32 167.08 342.47 172.07 344.62 177.07 346.77 182.07 348.92 187.07 351.07 192.07 353.22 197.07 355.37 195.87 358.13 190.88 355.98 189.69 358.75 188.5 361.51 183.5 359.36 178.5 357.21 173.5 355.06 168.5 352.91 163.51 350.77 158.51 348.61 153.51 346.46 148.51 344.31 143.52 342.16 138.52 340.02 133.52 337.87 128.52 335.72 123.52 333.56 118.53 331.42 113.53 329.27 108.53 327.11 103.53 324.96 98.53 322.82 93.53 320.67 88.54 318.52 83.54 316.37 78.54 314.21 73.54 312.07 68.54 309.92 63.54 307.77 58.55 305.61 53.55 303.47 48.55 301.32 49.74 298.55 44.74 296.41 39.74 294.25 34.75 292.11 29.75 289.96 24.75 287.8 25.94 285.04 27.13 282.28 32.13 284.43 33.32 281.66 38.31 283.81"/>
        </g>
      </g>
      <g>
        <polygon class="cls-61" points="274.07 320.92 279.92 320.92 279.92 327.34 274.07 327.34 268.23 327.34 268.23 333.76 266.5 333.76 265.55 333.76 263.83 333.76 263.83 327.34 265.55 327.34 266.5 327.34 268.23 327.34 268.23 320.92 274.07 320.92"/>
        <polygon class="cls-61" points="253.1 320.92 255.77 320.92 255.77 327.34 258.46 327.34 261.14 327.34 263.83 327.34 263.83 333.76 261.14 333.76 258.46 333.76 258.46 340.18 258.46 346.6 261.14 346.6 261.14 353.01 261.14 359.43 263.83 359.43 263.83 365.85 263.83 372.27 263.83 378.69 261.14 378.69 258.46 378.69 258.46 372.27 258.46 365.85 258.46 359.43 258.46 353.01 255.77 353.01 255.77 346.6 255.77 340.18 255.77 333.76 253.1 333.76 253.1 327.34 250.41 327.34 250.41 320.92 250.41 314.51 253.1 314.51 253.1 320.92"/>
        <polygon class="cls-61" points="263.83 410.78 266.5 410.78 269.19 410.78 269.19 417.2 266.5 417.2 263.83 417.2 261.14 417.2 258.46 417.2 258.46 410.78 261.14 410.78 263.83 410.78"/>
        <rect class="cls-61" x="255.77" y="404.36" width="2.69" height="6.42"/>
        <polygon class="cls-61" points="277.23 410.78 274.56 410.78 271.87 410.78 271.87 404.36 274.56 404.36 277.23 404.36 279.92 404.36 279.92 410.78 277.23 410.78"/>
        <rect class="cls-61" x="279.92" y="397.95" width="2.68" height="6.42"/>
        <polygon class="cls-61" points="258.46 391.53 261.14 391.53 261.14 397.95 261.14 404.36 258.46 404.36 258.46 397.95 258.46 391.53"/>
        <polygon class="cls-61" points="255.77 397.95 253.1 397.95 253.1 391.53 253.1 385.11 255.77 385.11 255.77 391.53 255.77 397.95"/>
        <polygon class="cls-61" points="285.28 372.27 285.28 378.69 285.28 385.11 285.28 391.53 285.28 397.95 282.6 397.95 282.6 391.53 282.6 385.11 279.92 385.11 279.92 378.69 282.6 378.69 282.6 372.27 282.6 365.85 282.6 359.43 285.28 359.43 285.28 365.85 285.28 372.27"/>
        <rect class="cls-61" x="255.77" y="378.69" width="2.69" height="6.42"/>
        <polygon class="cls-61" points="287.96 333.76 287.96 340.18 287.96 346.6 287.96 353.01 287.96 359.43 285.28 359.43 285.28 353.01 285.28 346.6 285.28 340.18 285.28 333.76 285.28 327.34 287.96 327.34 287.96 333.76"/>
      </g>
      <polygon class="cls-14" points="258.46 378.69 261.14 378.69 263.83 378.69 263.83 372.27 263.83 365.85 263.83 359.43 261.14 359.43 261.14 353.01 261.14 346.6 258.46 346.6 258.46 340.18 258.46 333.76 261.14 333.76 263.83 333.76 266.5 333.76 266.5 327.34 269.19 327.34 271.87 327.34 274.56 327.34 277.23 327.34 279.92 327.34 279.92 320.92 282.6 320.92 282.6 327.34 285.28 327.34 285.28 333.76 285.28 340.18 285.28 346.6 285.28 353.01 285.28 359.43 282.6 359.43 282.6 365.85 282.6 372.27 282.6 378.69 279.92 378.69 279.92 385.11 282.6 385.11 282.6 391.53 282.6 397.95 279.92 397.95 279.92 404.36 277.23 404.36 274.56 404.36 271.87 404.36 271.87 410.78 269.19 410.78 266.5 410.78 263.83 410.78 261.14 410.78 258.46 410.78 258.46 404.36 261.14 404.36 261.14 397.95 261.14 391.53 258.46 391.53 258.46 397.95 255.77 397.95 255.77 391.53 255.77 385.11 258.46 385.11 258.46 378.69"/>
    </g>
  </g>
</svg>