<?xml version="1.0" encoding="UTF-8"?>
<svg id="_Шар_2" data-name="Шар 2" xmlns="http://www.w3.org/2000/svg" viewBox="0 0 2524.79 1782.33">
  <defs>
    <style>
      .cls-1 {
        fill: #fff;
      }

      .cls-2 {
        fill: #8ad0ef;
      }

      .cls-3 {
        fill: #c0e4f4;
      }

      .cls-4 {
        fill: #29bbed;
      }

      .cls-5 {
        fill: #60c5ec;
      }
    </style>
  </defs>
  <g id="_Шар_1-2" data-name="Шар 1">
    <g>
      <rect class="cls-4" width="2524.79" height="1778.64"/>
      <polygon class="cls-5" points="2524.79 1369.04 2524.79 409.61 2506.56 409.61 2506.56 487.2 2472.57 487.2 2472.57 409.61 2417.66 409.61 2417.66 460.44 2328.75 460.44 2328.75 538.03 2250.31 538.03 2250.31 409.61 2187.55 409.61 2187.55 484.52 2101.26 484.52 2101.26 409.61 2041.11 409.61 2041.11 479.16 1967.9 479.16 1967.9 409.61 1881.61 409.61 1881.61 441.71 1761.31 441.71 1761.31 409.61 1688.1 409.61 1688.1 503.25 1617.5 503.25 1617.5 409.61 1562.58 409.61 1562.58 460.44 1460.6 460.44 1460.6 521.98 1363.85 521.98 1363.85 436.36 1298.49 436.36 1298.49 481.84 1240.97 481.84 1240.97 428.34 1159.89 428.34 1159.89 492.55 1039.6 492.55 1039.6 409.61 942.86 409.61 942.86 449.73 861.79 449.73 861.79 409.61 788.57 409.61 788.57 447.06 678.75 447.06 678.75 513.95 608.15 513.95 608.15 409.61 545.38 409.61 545.38 465.79 456.48 465.79 456.48 409.61 412.03 409.61 412.03 444.39 276.06 444.39 276.06 530 213.29 530 213.29 409.61 119.16 409.61 119.16 457.77 0 457.77 0 1369.04 2524.79 1369.04"/>
      <polygon class="cls-2" points="2524.79 1778.64 2524.79 819.22 2506.56 819.22 2506.56 896.81 2472.57 896.81 2472.57 819.22 2417.66 819.22 2417.66 870.06 2328.75 870.06 2328.75 947.64 2250.31 947.64 2250.31 819.22 2187.55 819.22 2187.55 894.13 2101.26 894.13 2101.26 819.22 2041.11 819.22 2041.11 888.78 1967.9 888.78 1967.9 819.22 1881.61 819.22 1881.61 851.33 1761.31 851.33 1761.31 819.22 1688.1 819.22 1688.1 912.86 1617.5 912.86 1617.5 819.22 1562.58 819.22 1562.58 870.06 1460.6 870.06 1460.6 931.59 1363.85 931.59 1363.85 845.97 1298.49 845.97 1298.49 891.45 1240.97 891.45 1240.97 837.95 1159.89 837.95 1159.89 902.15 1039.6 902.15 1039.6 819.22 942.86 819.22 942.86 859.35 861.79 859.35 861.79 819.22 788.57 819.22 788.57 856.67 678.75 856.67 678.75 923.56 608.15 923.56 608.15 819.22 545.38 819.22 545.38 875.4 456.48 875.4 456.48 819.22 412.03 819.22 412.03 854 276.06 854 276.06 939.61 213.29 939.61 213.29 819.22 119.16 819.22 119.16 867.38 0 867.38 0 1778.64 2524.79 1778.64"/>
    </g>
    <g>
      <polygon class="cls-3" points="631.44 1778.64 631.44 1776.08 648.54 1776.08 648.54 1761.52 631.44 1761.52 631.44 1746.96 614.34 1746.96 614.34 1732.39 597.24 1732.39 597.24 1703.27 580.13 1703.27 580.13 1601.32 563.03 1601.32 563.03 1615.88 545.93 1615.88 545.93 1630.44 443.33 1630.44 443.33 1615.88 426.23 1615.88 426.23 1601.32 409.12 1601.32 409.12 1586.75 392.02 1586.75 392.02 1601.32 374.92 1601.32 374.92 1630.44 357.83 1630.44 357.83 1645.01 340.72 1645.01 340.72 1659.57 323.63 1659.57 323.63 1674.14 289.44 1674.14 289.44 1688.7 152.62 1688.7 152.62 1674.14 118.43 1674.14 118.43 1659.57 101.32 1659.57 101.32 1645.01 84.22 1645.01 84.22 1630.44 50.01 1630.44 50.01 1645.01 32.91 1645.01 32.91 1659.57 0 1659.57 0 1778.64 631.44 1778.64"/>
      <polygon class="cls-1" points="682.74 1630.44 682.74 1601.32 665.64 1601.32 665.64 1586.75 648.54 1586.75 648.54 1572.19 631.44 1572.19 631.44 1557.62 580.13 1557.62 580.13 1513.93 563.03 1513.93 563.03 1470.24 545.93 1470.24 545.93 1455.68 528.83 1455.68 528.83 1441.11 511.73 1441.11 511.73 1426.55 494.63 1426.55 494.63 1411.98 357.83 1411.98 357.83 1426.55 340.72 1426.55 340.72 1397.42 323.63 1397.42 323.63 1382.86 289.44 1382.86 289.44 1368.29 272.33 1368.29 272.33 1353.73 169.72 1353.73 169.72 1368.29 135.52 1368.29 135.52 1382.86 118.43 1382.86 118.43 1397.42 101.32 1397.42 101.32 1411.98 84.22 1411.98 84.22 1426.55 67.12 1426.55 67.12 1470.24 0 1470.24 0 1659.57 32.91 1659.57 32.91 1645.01 50.01 1645.01 50.01 1630.44 84.22 1630.44 84.22 1645.01 101.32 1645.01 101.32 1659.57 118.43 1659.57 118.43 1674.14 152.62 1674.14 152.62 1688.7 289.44 1688.7 289.44 1674.14 323.63 1674.14 323.63 1659.57 340.72 1659.57 340.72 1645.01 357.83 1645.01 357.83 1630.44 374.92 1630.44 374.92 1601.32 392.02 1601.32 392.02 1586.75 409.12 1586.75 409.12 1601.32 426.23 1601.32 426.23 1615.88 443.33 1615.88 443.33 1630.44 545.93 1630.44 545.93 1615.88 563.03 1615.88 563.03 1601.32 580.13 1601.32 580.13 1703.27 597.24 1703.27 597.24 1732.39 614.34 1732.39 614.34 1746.96 631.44 1746.96 631.44 1761.52 648.54 1761.52 648.54 1776.08 665.64 1776.08 665.64 1746.96 682.74 1746.96 682.74 1732.39 699.84 1732.39 699.84 1630.44 682.74 1630.44"/>
    </g>
    <g>
      <polygon class="cls-3" points="459.27 1778.64 1177.7 1778.64 1177.7 1764.86 1160.99 1764.86 1160.99 1665.26 1144.28 1665.26 1144.28 1679.49 1127.57 1679.49 1127.57 1693.72 1027.33 1693.72 1027.33 1679.49 1010.62 1679.49 1010.62 1665.26 993.92 1665.26 993.92 1651.03 977.2 1651.03 977.2 1665.26 960.5 1665.26 960.5 1693.72 943.79 1693.72 943.79 1707.95 927.08 1707.95 927.08 1722.18 910.37 1722.18 910.37 1736.41 876.96 1736.41 876.96 1750.64 743.29 1750.64 743.29 1736.41 709.88 1736.41 709.88 1722.18 693.17 1722.18 693.17 1707.95 676.46 1707.95 676.46 1693.72 643.05 1693.72 643.05 1707.95 626.34 1707.95 626.34 1722.18 526.09 1722.18 526.09 1707.95 509.38 1707.95 509.38 1693.72 492.67 1693.72 492.67 1665.26 475.97 1665.26 475.97 1608.34 459.27 1608.34 459.27 1651.03 442.55 1651.03 442.55 1736.41 459.27 1736.41 459.27 1778.64"/>
      <polygon class="cls-1" points="492.67 1693.72 509.38 1693.72 509.38 1707.95 526.09 1707.95 526.09 1722.18 626.34 1722.18 626.34 1707.95 643.05 1707.95 643.05 1693.72 676.46 1693.72 676.46 1707.95 693.17 1707.95 693.17 1722.18 709.88 1722.18 709.88 1736.41 743.29 1736.41 743.29 1750.64 876.96 1750.64 876.96 1736.41 910.37 1736.41 910.37 1722.18 927.08 1722.18 927.08 1707.95 943.79 1707.95 943.79 1693.72 960.5 1693.72 960.5 1665.26 977.2 1665.26 977.2 1651.03 993.92 1651.03 993.92 1665.26 1010.62 1665.26 1010.62 1679.49 1027.33 1679.49 1027.33 1693.72 1127.57 1693.72 1127.57 1679.49 1144.28 1679.49 1144.28 1665.26 1160.99 1665.26 1160.99 1764.86 1177.7 1764.86 1177.7 1778.64 1277.95 1778.64 1277.95 1693.72 1261.25 1693.72 1261.25 1665.26 1244.53 1665.26 1244.53 1651.03 1227.82 1651.03 1227.82 1636.8 1211.11 1636.8 1211.11 1622.57 1160.99 1622.57 1160.99 1579.89 1144.28 1579.89 1144.28 1537.19 1127.57 1537.19 1127.57 1522.97 1110.87 1522.97 1110.87 1508.74 1094.16 1508.74 1094.16 1494.51 1077.45 1494.51 1077.45 1480.28 943.79 1480.28 943.79 1494.51 927.08 1494.51 927.08 1466.05 910.37 1466.05 910.37 1451.82 876.96 1451.82 876.96 1437.59 860.25 1437.59 860.25 1423.36 760 1423.36 760 1437.59 726.59 1437.59 726.59 1451.82 709.88 1451.82 709.88 1466.05 693.17 1466.05 693.17 1480.28 676.46 1480.28 676.46 1494.51 659.75 1494.51 659.75 1537.19 542.8 1537.19 542.8 1551.42 509.38 1551.42 509.38 1565.66 492.67 1565.66 492.67 1579.89 475.97 1579.89 475.97 1665.26 492.67 1665.26 492.67 1693.72"/>
    </g>
    <g>
      <polygon class="cls-3" points="1094.49 1721.5 1108.83 1721.5 1108.83 1745.94 1123.18 1745.94 1123.18 1758.16 1137.53 1758.16 1137.53 1770.38 1166.23 1770.38 1166.23 1778.64 1740.18 1778.64 1740.18 1770.38 1754.52 1770.38 1754.52 1758.16 1740.18 1758.16 1740.18 1745.94 1725.83 1745.94 1725.83 1733.72 1711.48 1733.72 1711.48 1709.28 1697.13 1709.28 1697.13 1623.74 1682.78 1623.74 1682.78 1635.96 1668.43 1635.96 1668.43 1648.18 1582.34 1648.18 1582.34 1635.96 1567.99 1635.96 1567.99 1623.74 1553.65 1623.74 1553.65 1611.52 1539.3 1611.52 1539.3 1623.74 1524.95 1623.74 1524.95 1648.18 1510.6 1648.18 1510.6 1660.4 1496.25 1660.4 1496.25 1672.62 1481.9 1672.62 1481.9 1684.84 1453.21 1684.84 1453.21 1697.06 1338.42 1697.06 1338.42 1684.84 1309.72 1684.84 1309.72 1672.62 1295.38 1672.62 1295.38 1660.4 1281.02 1660.4 1281.02 1648.18 1252.32 1648.18 1252.32 1660.4 1237.98 1660.4 1237.98 1672.62 1151.88 1672.62 1151.88 1660.4 1137.53 1660.4 1137.53 1648.18 1123.18 1648.18 1123.18 1623.74 1108.83 1623.74 1108.83 1574.86 1094.49 1574.86 1094.49 1611.52 1080.14 1611.52 1080.14 1684.84 1094.49 1684.84 1094.49 1721.5"/>
      <polygon class="cls-1" points="1783.23 1648.18 1783.23 1635.96 1783.23 1623.74 1768.87 1623.74 1768.87 1611.52 1754.52 1611.52 1754.52 1599.3 1740.17 1599.3 1740.17 1587.08 1725.83 1587.08 1711.48 1587.08 1697.13 1587.08 1697.13 1574.86 1697.13 1562.64 1697.13 1550.42 1682.78 1550.42 1682.78 1538.2 1682.78 1525.98 1682.78 1513.76 1668.43 1513.76 1668.43 1501.54 1654.08 1501.54 1654.08 1489.32 1639.73 1489.32 1639.73 1477.1 1625.39 1477.1 1625.39 1464.88 1611.05 1464.88 1596.69 1464.88 1582.34 1464.88 1567.99 1464.88 1553.65 1464.88 1539.3 1464.88 1524.95 1464.88 1510.6 1464.88 1510.6 1477.1 1496.25 1477.1 1496.25 1464.88 1496.25 1452.66 1481.91 1452.66 1481.91 1440.44 1467.56 1440.44 1453.21 1440.44 1453.21 1428.22 1438.86 1428.22 1438.86 1416.01 1424.51 1416.01 1410.16 1416.01 1395.81 1416.01 1381.47 1416.01 1367.12 1416.01 1352.77 1416.01 1352.77 1428.22 1338.42 1428.22 1324.07 1428.22 1324.07 1440.44 1309.72 1440.44 1309.72 1452.66 1295.38 1452.66 1295.38 1464.88 1281.02 1464.88 1281.02 1477.1 1266.67 1477.1 1266.67 1489.32 1266.67 1501.54 1266.67 1513.76 1252.32 1513.76 1237.97 1513.76 1223.63 1513.76 1209.28 1513.76 1194.93 1513.76 1180.58 1513.76 1166.23 1513.76 1166.23 1525.98 1151.88 1525.98 1137.53 1525.98 1137.53 1538.2 1123.18 1538.2 1123.18 1550.42 1108.83 1550.42 1108.83 1562.64 1108.83 1574.86 1108.83 1587.08 1108.83 1599.3 1108.83 1611.52 1108.83 1623.74 1123.18 1623.74 1123.18 1635.96 1123.18 1648.18 1137.53 1648.18 1137.53 1660.4 1151.88 1660.4 1151.88 1672.62 1166.23 1672.62 1180.58 1672.62 1194.93 1672.62 1209.28 1672.62 1223.63 1672.62 1237.97 1672.62 1237.97 1660.4 1252.32 1660.4 1252.32 1648.18 1266.67 1648.18 1281.02 1648.18 1281.02 1660.4 1295.38 1660.4 1295.38 1672.62 1309.72 1672.62 1309.72 1684.84 1324.07 1684.84 1338.42 1684.84 1338.42 1697.06 1352.77 1697.06 1367.12 1697.06 1381.47 1697.06 1395.81 1697.06 1410.16 1697.06 1424.51 1697.06 1438.86 1697.06 1453.21 1697.06 1453.21 1684.84 1467.56 1684.84 1481.91 1684.84 1481.91 1672.62 1496.25 1672.62 1496.25 1660.4 1510.6 1660.4 1510.6 1648.18 1524.95 1648.18 1524.95 1635.96 1524.95 1623.74 1539.3 1623.74 1539.3 1611.52 1553.65 1611.52 1553.65 1623.74 1567.99 1623.74 1567.99 1635.96 1582.34 1635.96 1582.34 1648.18 1596.69 1648.18 1611.05 1648.18 1625.39 1648.18 1639.73 1648.18 1654.08 1648.18 1668.43 1648.18 1668.43 1635.96 1682.78 1635.96 1682.78 1623.74 1697.13 1623.74 1697.13 1635.96 1697.13 1648.18 1697.13 1660.4 1697.13 1672.62 1697.13 1684.84 1697.13 1697.06 1697.13 1709.28 1711.48 1709.28 1711.48 1721.5 1711.48 1733.72 1725.83 1733.72 1725.83 1745.94 1740.17 1745.94 1740.17 1758.16 1754.52 1758.16 1754.52 1770.38 1768.87 1770.38 1768.87 1758.16 1768.87 1745.94 1783.23 1745.94 1783.23 1733.72 1797.57 1733.72 1797.57 1721.5 1797.57 1709.28 1797.57 1697.06 1797.57 1684.84 1797.57 1672.62 1797.57 1660.4 1797.57 1648.18 1783.23 1648.18"/>
    </g>
    <g>
      <polygon class="cls-3" points="1557.51 1725.18 1571.86 1725.18 1571.86 1749.63 1586.21 1749.63 1586.21 1761.85 1600.55 1761.85 1600.55 1774.07 1629.25 1774.07 1629.25 1782.33 2203.21 1782.33 2203.21 1774.07 2217.56 1774.07 2217.56 1761.85 2203.21 1761.85 2203.21 1749.63 2188.86 1749.63 2188.86 1737.4 2174.51 1737.4 2174.51 1712.96 2160.16 1712.96 2160.16 1627.42 2145.81 1627.42 2145.81 1639.64 2131.47 1639.64 2131.47 1651.86 2045.37 1651.86 2045.37 1639.64 2031.02 1639.64 2031.02 1627.42 2016.67 1627.42 2016.67 1615.2 2002.32 1615.2 2002.32 1627.42 1987.97 1627.42 1987.97 1651.86 1973.62 1651.86 1973.62 1664.08 1959.28 1664.08 1959.28 1676.3 1944.93 1676.3 1944.93 1688.52 1916.23 1688.52 1916.23 1700.74 1801.44 1700.74 1801.44 1688.52 1772.74 1688.52 1772.74 1676.3 1758.39 1676.3 1758.39 1664.08 1744.04 1664.08 1744.04 1651.86 1715.34 1651.86 1715.34 1664.08 1701 1664.08 1701 1676.3 1614.9 1676.3 1614.9 1664.08 1600.55 1664.08 1600.55 1651.86 1586.21 1651.86 1586.21 1627.42 1571.86 1627.42 1571.86 1578.54 1557.51 1578.54 1557.51 1615.2 1543.16 1615.2 1543.16 1688.52 1557.51 1688.52 1557.51 1725.18"/>
      <polygon class="cls-1" points="2246.25 1651.86 2246.25 1639.64 2246.25 1627.42 2231.9 1627.42 2231.9 1615.2 2217.56 1615.2 2217.56 1602.98 2203.21 1602.98 2203.21 1590.76 2188.86 1590.76 2174.51 1590.76 2160.16 1590.76 2160.16 1578.54 2160.16 1566.32 2160.16 1554.1 2145.81 1554.1 2145.81 1541.88 2145.81 1529.66 2145.81 1517.44 2131.47 1517.44 2131.47 1505.22 2117.11 1505.22 2117.11 1493 2102.76 1493 2102.76 1480.78 2088.42 1480.78 2088.42 1468.56 2074.07 1468.56 2059.72 1468.56 2045.37 1468.56 2031.02 1468.56 2016.67 1468.56 2002.32 1468.56 1987.97 1468.56 1973.62 1468.56 1973.62 1480.78 1959.28 1480.78 1959.28 1468.56 1959.28 1456.34 1944.93 1456.34 1944.93 1444.12 1930.58 1444.12 1916.23 1444.12 1916.23 1431.9 1901.88 1431.9 1901.88 1419.68 1887.54 1419.68 1873.18 1419.68 1858.83 1419.68 1844.48 1419.68 1830.14 1419.68 1815.79 1419.68 1815.79 1431.9 1801.44 1431.9 1787.09 1431.9 1787.09 1444.12 1772.74 1444.12 1772.74 1456.34 1758.39 1456.34 1758.39 1468.56 1744.04 1468.56 1744.04 1480.78 1729.69 1480.78 1729.69 1493 1729.69 1505.22 1729.69 1517.44 1715.35 1517.44 1701 1517.44 1686.65 1517.44 1672.3 1517.44 1657.95 1517.44 1643.61 1517.44 1629.25 1517.44 1629.25 1529.66 1614.9 1529.66 1600.55 1529.66 1600.55 1541.88 1586.21 1541.88 1586.21 1554.1 1571.86 1554.1 1571.86 1566.32 1571.86 1578.54 1571.86 1590.76 1571.86 1602.98 1571.86 1615.2 1571.86 1627.42 1586.21 1627.42 1586.21 1639.64 1586.21 1651.86 1600.55 1651.86 1600.55 1664.08 1614.9 1664.08 1614.9 1676.3 1629.25 1676.3 1643.61 1676.3 1657.95 1676.3 1672.3 1676.3 1686.65 1676.3 1701 1676.3 1701 1664.08 1715.35 1664.08 1715.35 1651.86 1729.69 1651.86 1744.04 1651.86 1744.04 1664.08 1758.39 1664.08 1758.39 1676.3 1772.74 1676.3 1772.74 1688.52 1787.09 1688.52 1801.44 1688.52 1801.44 1700.74 1815.79 1700.74 1830.14 1700.74 1844.48 1700.74 1858.83 1700.74 1873.18 1700.74 1887.54 1700.74 1901.88 1700.74 1916.23 1700.74 1916.23 1688.52 1930.58 1688.52 1944.93 1688.52 1944.93 1676.3 1959.28 1676.3 1959.28 1664.08 1973.62 1664.08 1973.62 1651.86 1987.97 1651.86 1987.97 1639.64 1987.97 1627.42 2002.32 1627.42 2002.32 1615.2 2016.67 1615.2 2016.67 1627.42 2031.02 1627.42 2031.02 1639.64 2045.37 1639.64 2045.37 1651.86 2059.72 1651.86 2074.07 1651.86 2088.42 1651.86 2102.76 1651.86 2117.11 1651.86 2131.47 1651.86 2131.47 1639.64 2145.81 1639.64 2145.81 1627.42 2160.16 1627.42 2160.16 1639.64 2160.16 1651.86 2160.16 1664.08 2160.16 1676.3 2160.16 1688.52 2160.16 1700.74 2160.16 1712.96 2174.51 1712.96 2174.51 1725.18 2174.51 1737.4 2188.86 1737.4 2188.86 1749.63 2203.21 1749.63 2203.21 1761.85 2217.56 1761.85 2217.56 1774.07 2231.9 1774.07 2231.9 1761.85 2231.9 1749.63 2246.25 1749.63 2246.25 1737.4 2260.6 1737.4 2260.6 1725.18 2260.6 1712.96 2260.6 1700.74 2260.6 1688.52 2260.6 1676.3 2260.6 1664.08 2260.6 1651.86 2246.25 1651.86"/>
    </g>
    <g>
      <polygon class="cls-3" points="2524.79 1778.64 2524.79 1657.53 2520.3 1657.53 2520.3 1671.04 2425.16 1671.04 2425.16 1657.53 2409.3 1657.53 2409.3 1644.02 2393.45 1644.02 2393.45 1630.52 2377.59 1630.52 2377.59 1644.02 2361.73 1644.02 2361.73 1671.04 2345.87 1671.04 2345.87 1684.54 2330.02 1684.54 2330.02 1698.05 2314.18 1698.05 2314.18 1711.55 2282.45 1711.55 2282.45 1725.06 2155.59 1725.06 2155.59 1711.55 2123.88 1711.55 2123.88 1698.05 2108.02 1698.05 2108.02 1684.54 2092.17 1684.54 2092.17 1671.04 2060.45 1671.04 2060.45 1684.54 2044.59 1684.54 2044.59 1698.05 1949.45 1698.05 1949.45 1684.54 1933.6 1684.54 1933.6 1671.04 1917.74 1671.04 1917.74 1644.02 1901.88 1644.02 1901.88 1590 1886.02 1590 1886.02 1630.52 1870.16 1630.52 1870.16 1711.55 1886.02 1711.55 1886.02 1752.06 1901.88 1752.06 1901.88 1778.64 2524.79 1778.64"/>
      <polygon class="cls-1" points="2524.79 1522.49 2520.3 1522.49 2520.3 1508.98 2504.45 1508.98 2504.45 1495.48 2488.59 1495.48 2488.59 1481.97 2472.74 1481.97 2472.74 1468.47 2345.87 1468.47 2345.87 1481.97 2330.02 1481.97 2330.02 1454.96 2314.18 1454.96 2314.18 1441.46 2282.45 1441.46 2282.45 1427.95 2266.6 1427.95 2266.6 1414.45 2171.45 1414.45 2171.45 1427.95 2139.74 1427.95 2139.74 1441.46 2123.88 1441.46 2123.88 1454.96 2108.02 1454.96 2108.02 1468.47 2092.17 1468.47 2092.17 1481.97 2076.31 1481.97 2076.31 1522.49 1965.31 1522.49 1965.31 1535.99 1933.6 1535.99 1933.6 1549.5 1917.74 1549.5 1917.74 1563 1901.88 1563 1901.88 1644.02 1917.74 1644.02 1917.74 1671.04 1933.6 1671.04 1933.6 1684.54 1949.45 1684.54 1949.45 1698.05 2044.59 1698.05 2044.59 1684.54 2060.45 1684.54 2060.45 1671.04 2092.17 1671.04 2092.17 1684.54 2108.02 1684.54 2108.02 1698.05 2123.88 1698.05 2123.88 1711.55 2155.59 1711.55 2155.59 1725.06 2282.45 1725.06 2282.45 1711.55 2314.18 1711.55 2314.18 1698.05 2330.02 1698.05 2330.02 1684.54 2345.87 1684.54 2345.87 1671.04 2361.73 1671.04 2361.73 1644.02 2377.59 1644.02 2377.59 1630.52 2393.45 1630.52 2393.45 1644.02 2409.3 1644.02 2409.3 1657.53 2425.16 1657.53 2425.16 1671.04 2520.3 1671.04 2520.3 1657.53 2524.79 1657.53 2524.79 1522.49"/>
    </g>
  </g>
</svg>