<?xml version="1.0" encoding="UTF-8"?>
<svg id="_Шар_2" data-name="Шар 2" xmlns="http://www.w3.org/2000/svg" viewBox="0 0 571.78 183.23">
  <defs>
    <style>
      .cls-1 {
        fill: #a27458;
      }

      .cls-2 {
        fill: #a2c154;
      }

      .cls-3 {
        fill: #8aa648;
      }

      .cls-4 {
        fill: #945834;
      }

      .cls-5 {
        fill: #7e4d2d;
      }

      .cls-6 {
        fill: #1d1d1b;
      }
    </style>
  </defs>
  <g id="_Шар_1-2" data-name="Шар 1">
    <g>
      <g>
        <polygon class="cls-5" points="3.09 85.29 3.09 118.88 58.48 118.88 58.48 135.33 84.17 135.33 84.17 154.85 109.86 154.85 109.86 180.14 450.04 180.14 450.04 150.74 487.03 150.74 487.03 135.33 510.67 135.33 510.67 117.85 568.7 117.85 568.7 85.29 3.09 85.29"/>
        <polygon class="cls-4" points="504.53 95.14 504.53 112 471.85 112 471.85 85.29 460.26 85.29 460.26 107.79 445.51 107.79 445.51 116.22 426.54 116.22 426.54 107.79 398.07 107.79 398.07 120.44 370.67 120.44 370.67 85.29 365.4 85.29 365.4 105.69 332.73 105.69 332.73 127.81 292.68 127.81 292.68 110.95 266.33 110.95 266.33 101.46 257.89 101.46 257.89 134.14 228.38 134.14 228.38 113.06 213.63 113.06 213.63 128.87 187.28 128.87 187.28 110.95 163.04 110.95 163.04 96.2 153.55 96.2 153.55 107.79 145.12 107.79 145.12 124.65 127.2 124.65 127.2 107.79 104.01 107.79 104.01 128.87 86.09 128.87 86.09 101.46 52.36 101.46 52.36 113.06 23.91 113.06 23.91 118.88 58.48 118.88 58.48 135.33 84.17 135.33 84.17 147.84 109.28 147.84 109.28 154.85 109.86 154.85 109.86 164.7 125.09 164.7 125.09 148.9 155.65 148.9 155.65 167.87 178.84 167.87 178.84 154.16 198.87 154.16 198.87 158.38 228.38 158.38 228.38 147.84 280.03 147.84 280.03 141.51 344.32 141.51 344.32 164.7 353.81 164.7 353.81 152.05 405.45 152.05 405.45 180.14 425.49 180.14 425.49 134.14 446.56 134.14 446.56 156.28 450.04 156.28 450.04 150.74 462.37 150.74 462.37 140.46 487.03 140.46 487.03 135.33 510.67 135.33 510.67 117.85 534.04 117.85 534.04 95.14 504.53 95.14"/>
        <path class="cls-1" d="M525.38,103.2h5.21v-.24c-1.74,.05-3.47,.14-5.21,.24Z"/>
        <rect class="cls-5" x="477.13" y="72.64" width="16.86" height="13.7"/>
        <rect class="cls-5" x="309.54" y="72.64" width="16.86" height="13.7"/>
        <rect class="cls-5" x="221.01" y="72.64" width="16.86" height="13.7"/>
        <rect class="cls-5" x="153.02" y="125.87" width="13.97" height="13.7"/>
        <rect class="cls-5" x="184.38" y="136.58" width="13.97" height="13.7"/>
        <rect class="cls-5" x="269.58" y="117.61" width="13.97" height="13.7"/>
        <rect class="cls-5" x="255.78" y="137.81" width="13.97" height="13.7"/>
        <rect class="cls-5" x="307.96" y="122" width="13.97" height="13.7"/>
        <rect class="cls-5" x="350.12" y="125.87" width="13.97" height="13.7"/>
        <rect class="cls-5" x="373.84" y="132.71" width="13.97" height="13.71"/>
        <rect class="cls-5" x="406.78" y="115.15" width="13.97" height="13.71"/>
        <rect class="cls-5" x="443.01" y="119.89" width="13.97" height="13.7"/>
        <polygon class="cls-5" points="510.67 117.85 513.18 117.85 513.18 115.15 499.22 115.15 499.22 128.86 510.67 128.86 510.67 117.85"/>
        <polygon class="cls-5" points="487.03 135.33 491.09 135.33 491.09 132.71 477.13 132.71 477.13 146.42 487.03 146.42 487.03 135.33"/>
        <rect class="cls-5" x="416.67" y="155.02" width="13.97" height="13.7"/>
        <rect class="cls-5" x="125.09" y="139.57" width="13.97" height="13.7"/>
        <rect class="cls-5" x="84.17" y="140.56" width="6.41" height="13.7"/>
        <polygon class="cls-5" points="52.02 112.17 52.02 118.88 58.48 118.88 58.48 125.87 65.98 125.87 65.98 112.17 52.02 112.17"/>
        <rect class="cls-5" x="148.28" y="72.64" width="16.86" height="13.7"/>
        <rect class="cls-5" x="360.13" y="78.81" width="16.86" height="13.7"/>
        <rect class="cls-5" x="415.23" y="78.44" width="16.86" height="13.7"/>
        <rect class="cls-5" x="67.12" y="78.44" width="16.86" height="13.7"/>
      </g>
      <path class="cls-6" d="M453.12,183.23H106.78v-25.3h-25.7v-19.52h-25.69v-16.44H0v-39.76H571.78v38.73h-58.03v17.48h-23.64v15.42h-37v29.4Zm-340.17-6.17H446.96v-29.4h37v-15.42h23.64v-17.47h58.02v-26.4H6.17v27.42H61.56v16.44h25.69v19.53h25.69v25.29Z"/>
      <rect class="cls-2" x="3.09" y="3.08" width="565.61" height="82.21"/>
      <polygon class="cls-3" points="568.7 24.52 529.83 24.52 529.83 37.17 519.29 37.17 519.29 49.82 495.04 49.82 495.04 60.36 471.85 60.36 471.85 42.44 461.31 42.44 461.31 37.17 440.24 37.17 440.24 30.85 421.26 30.85 421.26 46.66 411.78 46.66 411.78 69.85 401.24 69.85 401.24 46.66 384.37 46.66 384.37 25.57 372.78 25.57 372.78 55.09 334.83 55.09 334.83 26.63 300.06 26.63 300.06 47.71 281.08 47.71 281.08 58.25 256.84 58.25 256.84 44.55 248.41 44.55 248.41 50.87 224.17 50.87 224.17 17.15 202.04 17.15 202.04 34.01 169.36 34.01 169.36 45.6 121.93 45.6 121.93 75.11 100.85 75.11 100.85 34.01 73.45 34.01 73.45 48.76 37.61 48.76 37.61 69.85 3.09 69.85 3.09 85.29 30.24 85.29 30.24 92.14 47.1 92.14 47.1 85.29 96.11 85.29 96.11 96.09 112.97 96.09 112.97 85.29 131.42 85.29 131.42 93.19 148.28 93.19 148.28 85.29 181.48 85.29 181.48 92.51 198.35 92.51 198.35 85.29 247.36 85.29 247.36 96.09 264.22 96.09 264.22 85.29 281.61 85.29 281.61 92.51 298.48 92.51 298.48 85.29 343.27 85.29 343.27 96.09 360.13 96.09 360.13 85.29 389.91 85.29 389.91 96.09 406.78 96.09 406.78 85.29 441.55 85.29 441.55 96.09 458.42 96.09 458.42 85.29 503.74 85.29 503.74 87.93 520.61 87.93 520.61 85.29 568.7 85.29 568.7 24.52"/>
      <path class="cls-6" d="M461.51,99.18h-23.03v-10.8h-28.62v10.8h-23.03v-10.8h-23.61v10.8h-23.03v-10.8h-38.63v7.21h-23.03v-7.21h-11.22v10.8h-23.02v-10.8h-42.85v7.21h-23.03v-7.21h-27.04v7.91h-23.02v-7.91h-12.28v10.8h-23.02v-10.8H50.18v6.85H27.15v-6.85H0V0H571.78V88.37h-48.09v2.63h-23.02v-2.63h-39.16v10.8Zm-16.86-6.17h10.69v-10.8h51.49v2.63h10.7v-2.63h48.09V6.16H6.17V82.21h27.15v6.86h10.69v-6.86h55.18v10.8h10.7v-10.8h24.6v7.91h10.7v-7.91h39.37v7.22h10.69v-7.22h55.18v10.8h10.7v-10.8h23.55v7.22h10.69v-7.22h50.97v10.8h10.7v-10.8h35.94v10.8h10.69v-10.8h40.96v10.8Z"/>
    </g>
  </g>
</svg>