<?xml version="1.0" encoding="UTF-8"?>
<svg id="_Шар_2" data-name="Шар 2" xmlns="http://www.w3.org/2000/svg" viewBox="0 0 1000.66 320.67">
  <defs>
    <style>
      .cls-1 {
        fill: #a27458;
      }

      .cls-2 {
        fill: #a2c154;
      }

      .cls-3 {
        fill: #8aa648;
      }

      .cls-4 {
        fill: #945834;
      }

      .cls-5 {
        fill: #7e4d2d;
      }

      .cls-6 {
        fill: #1d1d1b;
      }
    </style>
  </defs>
  <g id="_Шар_1-2" data-name="Шар 1">
    <g>
      <g>
        <polygon class="cls-5" points="5.39 149.27 5.39 208.05 102.33 208.05 102.33 236.84 147.29 236.84 147.29 271.01 192.26 271.01 192.26 315.27 787.59 315.27 787.59 263.81 852.35 263.81 852.35 236.84 893.72 236.84 893.72 206.25 995.26 206.25 995.26 149.27 5.39 149.27"/>
        <polygon class="cls-4" points="882.97 166.51 882.97 196.03 825.79 196.03 825.79 149.27 805.5 149.27 805.5 188.65 779.67 188.65 779.67 203.4 746.47 203.4 746.47 188.65 696.67 188.65 696.67 210.78 648.7 210.78 648.7 149.27 639.48 149.27 639.48 184.96 582.3 184.96 582.3 223.69 512.21 223.69 512.21 194.18 466.08 194.18 466.08 177.58 451.33 177.58 451.33 234.76 399.68 234.76 399.68 197.87 373.86 197.87 373.86 225.54 327.74 225.54 327.74 194.18 285.31 194.18 285.31 168.36 268.72 168.36 268.72 188.65 253.96 188.65 253.96 218.16 222.6 218.16 222.6 188.65 182.02 188.65 182.02 225.54 150.66 225.54 150.66 177.58 91.64 177.58 91.64 197.87 41.83 197.87 41.83 208.05 102.33 208.05 102.33 236.84 147.29 236.84 147.29 258.74 191.25 258.74 191.25 271.01 192.26 271.01 192.26 288.26 218.91 288.26 218.91 260.58 272.41 260.58 272.41 293.79 312.99 293.79 312.99 269.8 348.03 269.8 348.03 277.19 399.68 277.19 399.68 258.74 490.07 258.74 490.07 247.68 602.59 247.68 602.59 288.26 619.19 288.26 619.19 266.12 709.57 266.12 709.57 315.27 744.63 315.27 744.63 234.76 781.52 234.76 781.52 273.5 787.59 273.5 787.59 263.81 809.18 263.81 809.18 245.83 852.35 245.83 852.35 236.84 893.72 236.84 893.72 206.25 934.62 206.25 934.62 166.51 882.97 166.51"/>
        <path class="cls-1" d="M919.45,180.62h9.12v-.42c-3.04,.09-6.08,.24-9.12,.42Z"/>
        <rect class="cls-5" x="835.01" y="127.13" width="29.51" height="23.98"/>
        <rect class="cls-5" x="541.72" y="127.13" width="29.51" height="23.98"/>
        <rect class="cls-5" x="386.77" y="127.13" width="29.51" height="23.98"/>
        <rect class="cls-5" x="267.79" y="220.28" width="24.44" height="23.97"/>
        <rect class="cls-5" x="322.67" y="239.03" width="24.44" height="23.98"/>
        <rect class="cls-5" x="471.78" y="205.83" width="24.44" height="23.97"/>
        <rect class="cls-5" x="447.64" y="241.19" width="24.44" height="23.98"/>
        <rect class="cls-5" x="538.95" y="213.52" width="24.44" height="23.97"/>
        <rect class="cls-5" x="612.74" y="220.28" width="24.44" height="23.97"/>
        <rect class="cls-5" x="654.24" y="232.27" width="24.44" height="23.97"/>
        <rect class="cls-5" x="711.89" y="201.53" width="24.44" height="23.97"/>
        <rect class="cls-5" x="775.29" y="209.83" width="24.44" height="23.98"/>
        <polygon class="cls-5" points="893.72 206.25 898.11 206.25 898.11 201.53 873.66 201.53 873.66 225.5 893.72 225.5 893.72 206.25"/>
        <polygon class="cls-5" points="852.35 236.84 859.45 236.84 859.45 232.27 835.01 232.27 835.01 256.25 852.35 256.25 852.35 236.84"/>
        <rect class="cls-5" x="729.22" y="271.31" width="24.44" height="23.98"/>
        <rect class="cls-5" x="218.91" y="244.26" width="24.44" height="23.98"/>
        <rect class="cls-5" x="147.29" y="245.98" width="11.21" height="23.98"/>
        <polygon class="cls-5" points="91.02 196.3 91.02 208.05 102.33 208.05 102.33 220.28 115.47 220.28 115.47 196.3 91.02 196.3"/>
        <rect class="cls-5" x="259.49" y="127.13" width="29.51" height="23.98"/>
        <rect class="cls-5" x="630.26" y="137.92" width="29.51" height="23.97"/>
        <rect class="cls-5" x="726.68" y="137.27" width="29.52" height="23.98"/>
        <rect class="cls-5" x="117.46" y="137.27" width="29.51" height="23.98"/>
      </g>
      <path class="cls-6" d="M793,320.67H186.87v-44.27h-44.97v-34.17h-44.97v-28.78H0v-69.57H1000.66v67.78h-101.55v30.57h-41.37v26.98h-64.75v51.46Zm-595.34-10.79H782.2v-51.46h64.75v-26.98h41.37v-30.57h101.55v-46.19H10.79v47.99H107.72v28.77h44.97v34.17h44.96v44.27Z"/>
      <rect class="cls-2" x="5.39" y="5.39" width="989.87" height="143.87"/>
      <polygon class="cls-3" points="995.26 42.92 927.24 42.92 927.24 65.06 908.79 65.06 908.79 87.2 866.37 87.2 866.37 105.64 825.79 105.64 825.79 74.28 807.35 74.28 807.35 65.06 770.45 65.06 770.45 53.99 737.25 53.99 737.25 81.66 720.64 81.66 720.64 122.24 702.2 122.24 702.2 81.66 672.69 81.66 672.69 44.77 652.39 44.77 652.39 96.42 585.99 96.42 585.99 46.61 525.12 46.61 525.12 83.5 491.91 83.5 491.91 101.95 449.49 101.95 449.49 77.97 434.73 77.97 434.73 89.03 392.31 89.03 392.31 30.01 353.57 30.01 353.57 59.52 296.38 59.52 296.38 79.81 213.38 79.81 213.38 131.46 176.48 131.46 176.48 59.52 128.53 59.52 128.53 85.35 65.81 85.35 65.81 122.24 5.39 122.24 5.39 149.27 52.9 149.27 52.9 161.26 82.42 161.26 82.42 149.27 168.18 149.27 168.18 168.18 197.7 168.18 197.7 149.27 229.98 149.27 229.98 163.1 259.49 163.1 259.49 149.27 317.6 149.27 317.6 161.9 347.11 161.9 347.11 149.27 432.89 149.27 432.89 168.18 462.4 168.18 462.4 149.27 492.84 149.27 492.84 161.9 522.35 161.9 522.35 149.27 600.74 149.27 600.74 168.18 630.26 168.18 630.26 149.27 682.36 149.27 682.36 168.18 711.89 168.18 711.89 149.27 772.75 149.27 772.75 168.18 802.27 168.18 802.27 149.27 881.59 149.27 881.59 153.88 911.1 153.88 911.1 149.27 995.26 149.27 995.26 42.92"/>
      <path class="cls-6" d="M807.66,173.57h-40.31v-18.9h-50.08v18.9h-40.31v-18.9h-41.31v18.9h-40.31v-18.9h-67.61v12.62h-40.31v-12.62h-19.64v18.9h-40.3v-18.9h-74.98v12.62h-40.31v-12.62h-47.32v13.83h-40.3v-13.83h-21.49v18.9h-40.31v-18.9H87.81v11.98H47.5v-11.98H0V0H1000.66V154.67h-84.17v4.61h-40.31v-4.61h-68.52v18.9Zm-29.51-10.79h18.72v-18.9h90.11v4.61h18.72v-4.61h84.17V10.79H10.79V143.87H58.29v11.99h18.72v-11.99h96.56v18.9h18.73v-18.9h43.07v13.83h18.73v-13.83h68.9v12.63h18.72v-12.63h96.56v18.9h18.72v-18.9h41.23v12.63h18.72v-12.63h89.19v18.9h18.73v-18.9h62.9v18.9h18.72v-18.9h71.67v18.9Z"/>
    </g>
  </g>
</svg>