<?xml version="1.0" encoding="UTF-8"?>
<svg id="_Шар_2" data-name="Шар 2" xmlns="http://www.w3.org/2000/svg" viewBox="0 0 103.54 98.38">
  <defs>
    <style>
      .cls-1 {
        fill: #fff;
      }

      .cls-2 {
        fill: #f6c800;
      }

      .cls-3 {
        fill: #eaa61d;
      }

      .cls-4 {
        fill: #1d1d1b;
      }
    </style>
  </defs>
  <g id="_Шар_1-2" data-name="Шар 1">
    <g>
      <rect class="cls-2" x="86.97" y="39.38" width="4.14" height="3.94"/>
      <g>
        <polygon class="cls-2" points="62.12 39.36 66.26 39.36 70.41 39.36 74.55 39.36 78.69 39.36 82.83 39.36 86.97 39.36 86.97 35.42 82.83 35.42 78.69 35.42 74.55 35.42 70.41 35.42 66.26 35.42 66.26 31.49 62.12 31.49 62.12 35.42 62.12 39.36"/>
        <rect class="cls-4" x="74.66" y="35.42" width="12.31" height="3.94"/>
        <polygon class="cls-2" points="62.12 23.61 57.98 23.61 57.98 27.55 57.98 31.49 62.12 31.49 62.12 27.55 62.12 23.61"/>
        <polygon class="cls-2" points="57.98 15.74 53.84 15.74 53.84 11.81 53.84 7.87 49.69 7.87 49.69 11.81 49.69 15.74 49.69 19.68 45.55 19.68 45.55 23.61 45.55 27.55 45.55 31.49 41.41 31.49 41.41 35.42 41.41 39.36 37.27 39.36 33.13 39.36 28.99 39.36 24.84 39.36 20.7 39.36 20.7 43.29 20.7 47.23 24.84 47.23 24.84 51.16 28.99 51.16 28.99 55.1 33.13 55.1 33.13 59.03 33.13 62.97 33.13 66.9 33.13 70.83 33.13 74.77 33.13 78.7 37.27 78.7 41.41 78.7 41.41 74.77 45.55 74.77 49.69 74.77 49.69 70.83 53.84 70.83 57.98 70.83 57.98 74.77 62.12 74.77 62.12 78.7 66.26 78.7 66.26 82.64 70.41 82.64 70.41 86.57 74.55 86.57 74.55 90.51 78.69 90.51 78.69 86.57 78.69 82.64 78.69 78.7 74.55 78.7 74.55 74.77 74.55 70.83 74.55 66.9 74.55 62.97 70.41 62.97 70.41 59.03 70.41 55.1 74.55 55.1 78.69 55.1 78.69 51.16 82.83 51.16 82.83 47.23 86.97 47.23 86.97 43.29 82.83 43.29 78.69 43.29 74.55 43.29 70.41 43.29 70.41 47.23 66.26 47.23 62.12 47.23 57.98 47.23 57.98 43.29 57.98 39.36 57.98 35.42 53.84 35.42 53.84 31.49 53.84 27.55 53.84 23.61 57.98 23.61 57.98 19.68 57.98 15.74"/>
      </g>
      <g>
        <polygon class="cls-4" points="24.84 90.51 24.84 86.57 24.84 82.64 24.84 78.7 20.7 78.7 20.7 82.64 20.7 86.57 20.7 90.51 20.7 94.44 20.7 98.38 24.84 98.38 24.84 94.44 28.99 94.44 33.13 94.44 33.13 90.51 28.99 90.51 24.84 90.51"/>
        <rect class="cls-4" x="66.26" y="86.57" width="4.14" height="3.94"/>
        <rect class="cls-4" x="33.13" y="86.57" width="4.14" height="3.94"/>
        <polygon class="cls-4" points="78.69 86.57 78.69 90.51 74.55 90.51 70.41 90.51 70.41 94.44 74.55 94.44 78.69 94.44 78.69 98.38 82.83 98.38 82.83 94.44 82.83 90.51 82.83 86.57 82.83 82.64 78.69 82.64 78.69 86.57"/>
        <polygon class="cls-4" points="62.12 82.64 57.98 82.64 57.98 86.57 62.12 86.57 66.26 86.57 66.26 82.64 62.12 82.64"/>
        <polygon class="cls-4" points="37.27 82.64 37.27 86.57 41.41 86.57 45.55 86.57 45.55 82.64 41.41 82.64 37.27 82.64"/>
        <polygon class="cls-4" points="53.84 78.7 49.69 78.7 45.55 78.7 45.55 82.64 49.69 82.64 53.84 82.64 57.98 82.64 57.98 78.7 53.84 78.7"/>
        <polygon class="cls-4" points="28.99 74.77 28.99 70.83 28.99 66.9 28.99 62.97 28.99 59.03 24.84 59.03 24.84 62.97 24.84 66.9 24.84 70.83 24.84 74.77 24.84 78.7 28.99 78.7 28.99 74.77"/>
        <polygon class="cls-4" points="74.55 62.97 74.55 66.9 74.55 70.83 78.69 70.83 78.69 66.9 78.69 62.97 78.69 59.03 74.55 59.03 74.55 62.97"/>
        <rect class="cls-4" x="78.69" y="55.1" width="4.14" height="3.93"/>
        <rect class="cls-4" x="20.7" y="55.1" width="4.14" height="3.93"/>
        <rect class="cls-4" x="82.83" y="51.16" width="4.14" height="3.94"/>
        <rect class="cls-4" x="16.56" y="51.16" width="4.14" height="3.94"/>
        <rect class="cls-4" x="86.97" y="47.23" width="4.14" height="3.93"/>
        <rect class="cls-4" x="12.42" y="47.23" width="4.14" height="3.93"/>
        <rect class="cls-4" x="91.11" y="43.29" width="4.14" height="3.94"/>
        <rect class="cls-4" x="8.28" y="43.29" width="4.14" height="3.94"/>
        <polygon class="cls-4" points="99.4 35.42 95.25 35.42 91.11 35.42 86.97 35.42 86.97 39.36 91.11 39.36 95.25 39.36 95.25 43.29 99.4 43.29 99.4 39.36 103.54 39.36 103.54 35.42 99.4 35.42"/>
        <polygon class="cls-4" points="12.42 39.36 16.56 39.36 20.7 39.36 24.84 39.36 28.99 39.36 28.99 35.42 24.84 35.42 20.7 35.42 16.56 35.42 12.42 35.42 8.28 35.42 4.14 35.42 0 35.42 0 39.36 4.14 39.36 4.14 43.29 8.28 43.29 8.28 39.36 12.42 39.36"/>
        <polygon class="cls-4" points="70.41 35.42 74.55 35.42 74.55 31.49 70.41 31.49 66.26 31.49 66.26 35.42 70.41 35.42"/>
        <polygon class="cls-4" points="37.27 35.42 37.27 31.49 33.13 31.49 28.99 31.49 28.99 35.42 33.13 35.42 37.27 35.42"/>
        <polygon class="cls-4" points="41.41 27.55 41.41 23.61 37.27 23.61 37.27 27.55 37.27 31.49 41.41 31.49 41.41 27.55"/>
        <polygon class="cls-4" points="66.26 23.61 62.12 23.61 62.12 27.55 62.12 31.49 66.26 31.49 66.26 27.55 66.26 23.61"/>
        <polygon class="cls-4" points="45.55 19.68 45.55 15.74 41.41 15.74 41.41 19.68 41.41 23.61 45.55 23.61 45.55 19.68"/>
        <rect class="cls-4" x="57.98" y="15.74" width="4.14" height="3.94"/>
        <polygon class="cls-4" points="57.98 7.87 53.84 7.87 53.84 11.81 53.84 15.74 57.98 15.74 57.98 11.81 57.98 7.87"/>
        <rect class="cls-4" x="45.55" y="7.87" width="4.14" height="3.94"/>
        <rect class="cls-4" x="49.69" width="4.15" height="3.94"/>
      </g>
      <polygon class="cls-1" points="86.97 39.36 82.83 39.36 78.69 39.36 74.55 39.36 70.41 39.36 66.26 39.36 62.12 39.36 62.12 35.42 62.12 31.49 57.98 31.49 57.98 27.55 57.98 23.61 53.84 23.61 53.84 27.55 53.84 31.49 53.84 35.42 57.98 35.42 57.98 39.36 57.98 43.29 57.98 47.23 62.12 47.23 66.26 47.23 66.26 47.23 70.41 47.23 70.41 43.29 70.41 43.29 74.55 43.29 78.69 43.29 82.83 43.29 86.97 43.29 91.11 43.29 91.11 39.36 86.97 39.36"/>
      <g>
        <rect class="cls-3" x="70.41" y="86.57" width="4.14" height="3.94"/>
        <rect class="cls-3" x="66.26" y="82.64" width="4.14" height="3.93"/>
        <rect class="cls-4" x="78.69" y="78.7" width="4.14" height="3.94"/>
        <polygon class="cls-3" points="62.12 78.7 62.12 74.77 57.98 74.77 57.98 70.83 53.84 70.83 49.69 70.83 49.69 74.77 45.55 74.77 41.41 74.77 41.41 78.7 37.27 78.7 33.13 78.7 33.13 74.77 33.13 70.83 33.13 66.9 33.13 62.97 33.13 59.03 33.13 55.1 28.99 55.1 28.99 51.16 24.84 51.16 24.84 47.23 20.7 47.23 20.7 43.29 20.7 39.36 16.56 39.36 12.42 39.36 8.28 39.36 8.28 43.29 12.42 43.29 12.42 47.23 16.56 47.23 16.56 51.16 20.7 51.16 20.7 55.1 24.84 55.1 24.84 59.03 28.99 59.03 28.99 62.97 28.99 66.9 28.99 70.83 28.99 74.77 28.99 78.7 24.84 78.7 24.84 82.64 24.84 86.57 24.84 90.51 28.99 90.51 33.13 90.51 33.13 86.57 37.27 86.57 37.27 82.64 41.41 82.64 45.55 82.64 45.55 78.7 49.69 78.7 53.84 78.7 57.98 78.7 57.98 82.64 62.12 82.64 66.26 82.64 66.26 78.7 62.12 78.7"/>
        <polygon class="cls-4" points="78.69 70.83 74.55 70.83 74.55 74.77 74.55 78.7 78.69 78.7 78.69 74.77 78.69 70.83"/>
        <polygon class="cls-3" points="70.41 55.1 70.41 59.03 70.41 62.97 74.55 62.97 74.55 59.03 78.69 59.03 78.69 55.1 74.55 55.1 70.41 55.1"/>
        <rect class="cls-3" x="78.69" y="51.16" width="4.14" height="3.94"/>
        <rect class="cls-3" x="82.83" y="47.23" width="4.14" height="3.93"/>
        <polygon class="cls-3" points="91.11 39.36 86.97 39.36 86.97 43.29 86.97 47.23 91.11 47.23 91.11 43.29 95.25 43.29 95.25 39.36 91.11 39.36"/>
        <polygon class="cls-3" points="37.27 39.36 41.41 39.36 41.41 35.42 41.41 31.49 37.27 31.49 37.27 35.42 33.13 35.42 28.99 35.42 28.99 39.36 33.13 39.36 37.27 39.36"/>
        <polygon class="cls-3" points="45.55 27.55 45.55 23.61 41.41 23.61 41.41 27.55 41.41 31.49 45.55 31.49 45.55 27.55"/>
        <rect class="cls-4" x="57.98" y="19.68" width="4.14" height="3.93"/>
        <polygon class="cls-4" points="49.69 15.74 49.69 11.81 45.55 11.81 45.55 15.74 45.55 19.68 49.69 19.68 49.69 15.74"/>
        <rect class="cls-4" x="49.69" y="3.94" width="4.15" height="3.93"/>
      </g>
    </g>
  </g>
</svg>